<?xml version="1.0" encoding="utf-8"?>
<!-- Generator: Adobe Illustrator 24.1.1, SVG Export Plug-In . SVG Version: 6.00 Build 0)  -->
<svg version="1.1" id="Слой_1" xmlns="http://www.w3.org/2000/svg" xmlns:xlink="http://www.w3.org/1999/xlink" x="0px" y="0px"
	 viewBox="0 0 547 480" style="enable-background:new 0 0 547 480;" xml:space="preserve">
<style type="text/css">
	.st0{fill:#EBEBEB;}
	.st1{fill:#FAFAFA;}
	.st2{fill:#E6E6E6;}
	.st3{fill:#F5F5F5;}
	.st4{fill:#F0F0F0;}
	.st5{fill:#E0E0E0;}
	.st6{fill:#263238;}
	.st7{fill:#FFFFFF;fill-opacity:0.2;}
	.st8{fill:#30A8F5;}
	.st9{fill:#FFFFFF;fill-opacity:0.5;}
	.st10{fill:#FFFFFF;fill-opacity:0.7;}
	.st11{fill:#FFFFFF;fill-opacity:0.8;}
	.st12{fill:#FFFFFF;fill-opacity:0.4;}
	.st13{fill-opacity:0.3;}
	.st14{fill:#FFFFFF;fill-opacity:0.3;}
	.st15{fill:#FFFFFF;fill-opacity:0.1;}
	.st16{fill:#FFFFFF;fill-opacity:0.6;}
	.st17{fill-opacity:0.2;}
	.st18{fill:#2E353A;}
	.st19{fill-opacity:0.25;}
	.st20{fill:#B97964;}
	.st21{fill-opacity:0.1;}
	.st22{fill-opacity:0.4;}
	.st23{fill:#A24E3F;}
	.st24{fill:#FFFFFF;}
	.st25{fill:#434242;}
	.st26{fill-rule:evenodd;clip-rule:evenodd;fill:#6EC3F8;}
	.st27{fill:#E31E24;}
	.st28{fill:#2B2A29;}
	.st29{fill-rule:evenodd;clip-rule:evenodd;fill:#FEFEFE;}
	.st30{fill:none;stroke:#FEFEFE;stroke-width:0.2;stroke-linecap:round;stroke-linejoin:round;}
	.st31{fill:#FFFFFF;stroke:#FEFEFE;stroke-width:8.000000e-02;stroke-miterlimit:22.93;}
</style>
<path class="st0" d="M384.4,449.1h-11.9v0.3h11.9V449.1z"/>
<path class="st0" d="M500.2,432.7H474v0.3h26.2V432.7z"/>
<path class="st0" d="M61.8,435H2.6v0.4h59.1V435H61.8z"/>
<path class="st0" d="M82.7,435h-8.6v0.4h8.6V435z"/>
<path class="st0" d="M239.2,440.8H110.8v0.3h128.3V440.8z"/>
<path class="st0" d="M547,423.5H10.6v0.1L547,423.5L547,423.5z"/>
<path class="st1" d="M172.7,186.4h30.8L178.7,45.6h-30.8L172.7,186.4z"/>
<path class="st1" d="M154.8,186.4h8.3L138.2,45.6h-8.3L154.8,186.4z"/>
<path class="st1" d="M64.6,188.8h8.5L47.6,44.1h-8.5L64.6,188.8z"/>
<path class="st1" d="M81.6,188.8h16.1L72.3,44.1H56.2L81.6,188.8z"/>
<path class="st2" d="M124.7,43.4h100.6v145.4H124.7V43.4z M217.5,51.4h-84.8v129.5h84.7L217.5,51.4z"/>
<path class="st3" d="M20,39.4h209.3v153.4H20V39.4z M221.3,47.4H28v137.5h193.3V47.4z"/>
<path class="st3" d="M450.5,89.1V31.9h-74.2v57.2H450.5z"/>
<path class="st0" d="M444.8,84.8V36.4H382v48.5H444.8z"/>
<path class="st1" d="M440.9,81.8V39.4h-55v42.4H440.9z"/>
<path class="st4" d="M423.4,67.3c6.3,0,11.4-5.1,11.4-11.4s-5.1-11.4-11.4-11.4S412,49.6,412,55.9l0,0
	C412,62.2,417.1,67.3,423.4,67.3L423.4,67.3z"/>
<path class="st3" d="M406.5,74.4c6.3,0,11.4-5.1,11.4-11.4s-5.1-11.4-11.4-11.4s-11.4,5.1-11.4,11.3l0,0
	C395.1,69.2,400.1,74.4,406.5,74.4z"/>
<path class="st5" d="M492.7,50h-34v44.2h34V50z"/>
<path class="st4" d="M490.1,53.4h-28.8v37.4h28.8V53.4z"/>
<path class="st1" d="M485.1,60.1h-18.5v24.1h18.5V60.1z"/>
<path class="st3" d="M350.4,86c9,0,16.2-10.6,16.2-23.8s-7.3-23.8-16.2-23.8c-9,0-16.2,10.7-16.2,23.8S341.5,86,350.4,86z"/>
<path class="st0" d="M350.4,79.3c6.4,0,11.7-7.7,11.7-17.2S356.8,45,350.4,45c-6.4,0-11.7,7.7-11.7,17.2S344,79.3,350.4,79.3z"/>
<path class="st1" d="M350.4,74.4c4.5,0,8.3-5.5,8.3-12.1s-3.7-12.1-8.3-12.1c-4.6,0-8.2,5.5-8.2,12.1S345.9,74.4,350.4,74.4z"/>
<path class="st3" d="M266.7,480c146.7,0,265.6-7,265.6-15.5c0-8.5-118.8-15.5-265.6-15.5S1.2,456,1.2,464.5
	C1.2,473,120,480,266.7,480z"/>
<path class="st6" d="M476.1,463.6H262.8l-2.6-7.2h216V463.6z"/>
<path class="st7" d="M476.1,463.6H262.8l-2.6-7.2h216V463.6z"/>
<path class="st6" d="M520.7,463.6h-44.6v-7.2h47.2L520.7,463.6z"/>
<path class="st8" d="M535.6,359.1h-41.3v97.9h41.3V359.1z"/>
<path class="st9" d="M494.3,457h41.3v-97.9h-41.3V457z"/>
<path class="st8" d="M497.1,359.1h-247v97.9h247V359.1z"/>
<path class="st10" d="M250.1,457h247v-97.9h-247V457z"/>
<path class="st11" d="M328,367l-0.3,2.2c-0.2,1.2-1.7,2-3.5,2h-20.8c-1.8,0-3.3-0.8-3.5-2l-0.3-2.2h-40.8v25.8h109.9V367H328z"/>
<path class="st11" d="M328,395.6l-0.3,2.2c-0.2,1.2-1.7,2-3.5,2h-20.8c-1.8,0-3.3-0.8-3.5-2l-0.3-2.2h-40.8v25.8h109.9v-25.8H328z"
	/>
<path class="st11" d="M328,424.3l-0.3,2.2c-0.2,1.2-1.7,2-3.5,2h-20.8c-1.8,0-3.3-0.8-3.5-2l-0.3-2.2h-40.8v25.8h109.9v-25.8H328z"
	/>
<path class="st11" d="M446,367l-0.3,2.2c-0.2,1.2-1.7,2-3.5,2h-20.8c-1.8,0-3.3-0.8-3.5-2l-0.3-2.2H377v25.8h109.7V367H446z"/>
<path class="st11" d="M446,395.6l-0.3,2.2c-0.2,1.2-1.7,2-3.5,2h-20.8c-1.8,0-3.3-0.8-3.5-2l-0.3-2.2H377v25.8h109.7v-25.8H446z"/>
<path class="st11" d="M446,424.3l-0.3,2.2c-0.2,1.2-1.7,2-3.5,2h-20.8c-1.8,0-3.3-0.8-3.5-2l-0.3-2.2H377v25.8h109.7v-25.8H446z"/>
<path class="st6" d="M512.4,344.8H304.2c-5.3,0-9.6-4.3-9.6-9.6l0,0c0-0.3,0-0.7,0-1.1l13.1-148.7c0.6-5.9,5.6-10.5,11.5-10.6h208.4
	c5.3,0,9.6,4.3,9.6,9.6c0,0.3,0,0.7-0.1,1.1l-13,148.8C523.4,340.2,518.3,344.7,512.4,344.8L512.4,344.8z"/>
<path class="st12" d="M512.4,344.8H304.2c-5.3,0-9.6-4.3-9.6-9.6l0,0c0-0.3,0-0.7,0-1.1l13.1-148.7c0.6-5.9,5.6-10.5,11.5-10.6
	h208.4c5.3,0,9.6,4.3,9.6,9.6c0,0.3,0,0.7-0.1,1.1l-13,148.8C523.4,340.2,518.3,344.7,512.4,344.8L512.4,344.8z"/>
<path class="st6" d="M508.7,344.8H300.4c-5.3,0-9.6-4.3-9.6-9.6l0,0c0-0.3,0-0.7,0-1.1l13.1-148.8c0.6-6,5.6-10.5,11.6-10.6h208.3
	c5.3,0,9.6,4.3,9.6,9.6c0,0.3,0,0.7,0,1.1l-13,148.8C519.6,340.2,514.7,344.8,508.7,344.8z"/>
<path class="st10" d="M508.7,344.8H300.4c-5.3,0-9.6-4.3-9.6-9.6l0,0c0-0.3,0-0.7,0-1.1l13.1-148.8c0.6-6,5.6-10.5,11.6-10.6h208.3
	c5.3,0,9.6,4.3,9.6,9.6c0,0.3,0,0.7,0,1.1l-13,148.8C519.6,340.2,514.7,344.8,508.7,344.8z"/>
<path class="st8" d="M511.8,334.2H299.2l13-148.8h212.6L511.8,334.2z"/>
<path class="st9" d="M511.8,334.2H299.2l13-148.8h212.6L511.8,334.2z"/>
<path class="st6" d="M277.7,342h246.5v2.7c0,7.9-6.4,14.4-14.3,14.4H292c-7.9,0-14.3-6.4-14.3-14.4V342z"/>
<path class="st7" d="M277.7,342h246.5v2.7c0,7.9-6.4,14.4-14.3,14.4H292c-7.9,0-14.3-6.4-14.3-14.4V342z"/>
<path class="st6" d="M260.5,342h246.5v2.7c0,7.9-6.4,14.4-14.3,14.4H274.9c-7.9,0-14.3-6.4-14.3-14.4V342L260.5,342z"/>
<path class="st9" d="M260.5,342h246.5v2.7c0,7.9-6.4,14.4-14.3,14.4H274.9c-7.9,0-14.3-6.4-14.3-14.4V342L260.5,342z"/>
<path class="st13" d="M361.7,342c1.8,3.1,5.1,5,8.5,5h27.1c3.6,0,6.8-1.9,8.6-5H361.7z"/>
<path class="st8" d="M500,306.2H274.4c-3.3,0-6-2.6-6-6c0-0.2,0-0.4,0-0.6l13.4-153.8c0.4-3.7,3.5-6.5,7.2-6.6h225.7
	c3.3,0,6,2.6,6,5.9l0,0c0,0.2,0,0.4,0,0.6l-13.5,153.8C507,303.3,503.8,306.2,500,306.2L500,306.2z"/>
<path class="st11" d="M500,306.2H274.4c-3.3,0-6-2.6-6-6c0-0.2,0-0.4,0-0.6l13.4-153.8c0.4-3.7,3.5-6.5,7.2-6.6h225.7
	c3.3,0,6,2.6,6,5.9l0,0c0,0.2,0,0.4,0,0.6l-13.5,153.8C507,303.3,503.8,306.2,500,306.2L500,306.2z"/>
<path class="st8" d="M514.7,139.2H289.2c-3.7,0.1-6.8,2.9-7.2,6.6l-0.7,7.7H520l0.6-7.7c0-0.2,0-0.4,0-0.6
	C520.7,141.8,518,139.2,514.7,139.2L514.7,139.2z"/>
<path class="st14" d="M514.7,139.2H289.2c-3.7,0.1-6.8,2.9-7.2,6.6l-0.7,7.7H520l0.6-7.7c0-0.2,0-0.4,0-0.6
	C520.7,141.8,518,139.2,514.7,139.2L514.7,139.2z"/>
<path class="st8" d="M295.5,146.3c-0.2,1.6-1.5,2.7-3.1,2.7l0,0c-1.4,0-2.5-1.2-2.5-2.5l0,0c0-0.1,0-0.1,0-0.2
	c0.2-1.6,1.5-2.7,3.1-2.7l0,0c1.4,0,2.5,1.2,2.5,2.5l0,0C295.4,146.2,295.5,146.2,295.5,146.3z"/>
<path class="st8" d="M305.1,146.3c-0.2,1.6-1.5,2.7-3.1,2.7l0,0c-1.4,0-2.5-1.2-2.5-2.5l0,0c0-0.1,0-0.1,0-0.2
	c0.2-1.6,1.5-2.7,3.1-2.7l0,0c1.4,0,2.5,1.2,2.5,2.5l0,0C305.2,146.2,305.2,146.2,305.1,146.3z"/>
<path class="st8" d="M314.8,146.3c-0.2,1.6-1.5,2.7-3.1,2.7l0,0c-1.4,0-2.5-1.2-2.5-2.5l0,0c0-0.1,0-0.1,0-0.2
	c0.2-1.6,1.5-2.7,3.1-2.7l0,0c1.4,0,2.5,1.2,2.5,2.5l0,0C314.9,146.2,314.8,146.2,314.8,146.3z"/>
<path class="st8" d="M432.6,320.9h-93.2c-3.4,0-6.1-2.7-6.1-6.1c0-0.2,0-0.5,0-0.7l0.6-7.6c0.3-3.8,3.6-6.7,7.4-6.8h93.2
	c3.4,0,6.1,2.7,6.1,6.1c0,0.2,0,0.5,0,0.7l-0.6,7.6C439.5,318,436.4,320.9,432.6,320.9L432.6,320.9z"/>
<path class="st8" d="M44.4,353.4h51.7l-10.7-73c-2.7-18.4-19-33.1-36.6-33.1H35.4C17.7,247.3,5.1,262,7,280.5l4.1,41.2L44.4,353.4z"
	/>
<path class="st15" d="M44.4,353.4h51.7l-10.7-73c-2.7-18.4-19-33.1-36.6-33.1H35.4C17.7,247.3,5.1,262,7,280.5l4.1,41.2L44.4,353.4z
	"/>
<path class="st8" d="M111.4,353.4H29.3l-7.2-73c-1.8-18.4,10.9-33.1,28.4-33.1h13.5c17.7,0,33.9,14.7,36.7,33.2L111.4,353.4z"/>
<path class="st14" d="M111.4,353.4H29.3l-7.2-73c-1.8-18.4,10.9-33.1,28.4-33.1h13.5c17.7,0,33.9,14.7,36.7,33.2L111.4,353.4z"/>
<path class="st8" d="M98.4,378.4c18.4-0.1,36.8-8.2,48.5-22.7c9.6-11.6,15-26,15.1-41.1c0-5.8-5.2-11.4-11.2-11.2h-34.6
	c-6.1,0.1-11.1,5.1-11.1,11.2c0,1.3,0,2.5-0.1,3.8c0,0.7-0.5,3.5-0.2,2.2c-0.4,2.5-1.1,5-1.8,7.4c-0.3,0.8-0.6,1.8-0.9,2.6
	c0.2-0.5-0.7,1.6-1.1,2.1c-1.2,2.2-2.4,4.3-3.9,6.4c0,0.1-0.2,0.3-0.3,0.5s-0.5,0.6-0.6,0.7c-0.7,0.8-1.5,1.8-2.3,2.6
	C93,344,92,345,91,345.9l-1.4,1.2l-1.1,0.8c-0.6,0.4-1.7,1.2-1.9,1.4c-0.9,0.6-2,1.3-3.1,1.8c-1.1,0.5-1.8,0.9-2.6,1.4
	c-1.8-0.9-3.7-1.9-5.5-2.9c-0.9-0.6-1.9-1.4-2.9-2c2.1,1.4-0.6-0.5-1.2-1.1c-2-1.8-3.8-3.6-5.5-5.6l-0.4-0.5
	c0.3,0.3-0.8-1.2-1.1-1.4c-0.7-1.1-1.5-2.2-2.1-3.4c-0.7-1.2-1.3-2.3-1.9-3.5c-0.3-0.5-0.5-1.1-0.7-1.6c1.2,2.4,0-0.2-0.2-0.6
	c-0.9-2.5-1.7-5.2-2.2-7.8c-0.1-0.6-0.2-1.3-0.3-1.8c0.5,2.6,0-0.2,0-0.7c-0.1-1.6-0.2-3.2-0.2-4.6c0-5.8-5.1-11.4-11.2-11.2H11.2
	c-6.1,0.1-11.1,5.1-11.2,11.2c0.3,26.9,17.2,50.8,42.4,60.1c6.6,2.4,13.6,3.7,20.6,3.7h1.4h34V378.4z"/>
<path class="st12" d="M98.4,378.4c18.4-0.1,36.8-8.2,48.5-22.7c9.6-11.6,15-26,15.1-41.1c0-5.8-5.2-11.4-11.2-11.2h-34.6
	c-6.1,0.1-11.1,5.1-11.1,11.2c0,1.3,0,2.5-0.1,3.8c0,0.7-0.5,3.5-0.2,2.2c-0.4,2.5-1.1,5-1.8,7.4c-0.3,0.8-0.6,1.8-0.9,2.6
	c0.2-0.5-0.7,1.6-1.1,2.1c-1.2,2.2-2.4,4.3-3.9,6.4c0,0.1-0.2,0.3-0.3,0.5s-0.5,0.6-0.6,0.7c-0.7,0.8-1.5,1.8-2.3,2.6
	C93,344,92,345,91,345.9l-1.4,1.2l-1.1,0.8c-0.6,0.4-1.7,1.2-1.9,1.4c-0.9,0.6-2,1.3-3.1,1.8c-1.1,0.5-1.8,0.9-2.6,1.4
	c-1.8-0.9-3.7-1.9-5.5-2.9c-0.9-0.6-1.9-1.4-2.9-2c2.1,1.4-0.6-0.5-1.2-1.1c-2-1.8-3.8-3.6-5.5-5.6l-0.4-0.5
	c0.3,0.3-0.8-1.2-1.1-1.4c-0.7-1.1-1.5-2.2-2.1-3.4c-0.7-1.2-1.3-2.3-1.9-3.5c-0.3-0.5-0.5-1.1-0.7-1.6c1.2,2.4,0-0.2-0.2-0.6
	c-0.9-2.5-1.7-5.2-2.2-7.8c-0.1-0.6-0.2-1.3-0.3-1.8c0.5,2.6,0-0.2,0-0.7c-0.1-1.6-0.2-3.2-0.2-4.6c0-5.8-5.1-11.4-11.2-11.2H11.2
	c-6.1,0.1-11.1,5.1-11.2,11.2c0.3,26.9,17.2,50.8,42.4,60.1c6.6,2.4,13.6,3.7,20.6,3.7h1.4h34V378.4z"/>
<path class="st8" d="M139.8,314.7c0,1.3,0,2.5-0.1,3.8c0,0.7-0.6,4.1-0.1,1.6c-0.4,2.6-1.1,5.4-1.9,7.9c-0.4,1.2-0.7,2.2-1.3,3.4
	c0.9-2.3-0.4,0.7-0.7,1.4c-1.2,2.2-2.4,4.3-3.9,6.4c-0.2,0.3-1.3,1.8-0.4,0.6s-0.3,0.3-0.5,0.6c-0.7,0.8-1.6,1.8-2.3,2.6
	c-0.7,0.8-1.9,1.9-2.8,2.7l-1.4,1.2c-0.2,0.2-2.2,1.7-0.9,0.7c1.1-0.7-1.7,1.2-2.1,1.4c-0.9,0.6-2,1.3-3.1,1.8
	c-1.1,0.5-2.1,1.1-3.2,1.6c-0.3,0.2-2.1,0.9-0.7,0.3c1.4-0.6-0.8,0.3-1.2,0.4c-2.2,0.8-4.5,1.5-7,2c-0.7,0.1-4.1,0.6-1.6,0.3
	c-1.6,0.2-3.1,0.3-4.6,0.3h-1.7c-1.9,0-3.9-0.1-5.8-0.3c-0.6,0-2.1-0.4,0.2,0c-0.6-0.1-1.2-0.2-1.8-0.3c-1.4-0.3-2.6-0.5-4-0.9
	c-1.4-0.4-2.3-0.7-3.5-1.1c-0.5-0.2-1.1-0.4-1.7-0.6c-1.6-0.5,1.6,0.8,0.2,0.1c-2.2-1.2-4.5-2.2-6.6-3.6c-1.1-0.6-1.9-1.4-2.9-2
	c2.1,1.4-0.6-0.5-1.2-1.1c-2-1.8-3.8-3.6-5.5-5.6l-1.1-1.4c1.7,2.1-0.1-0.3-0.3-0.5c-0.7-1.1-1.5-2.2-2.1-3.4
	c-0.7-1.2-1.4-2.3-1.9-3.5c-0.3-0.5-0.5-1.1-0.7-1.6c1.2,2.4,0-0.2-0.2-0.6c-0.9-2.5-1.7-5.2-2.2-7.8c-0.1-0.6-0.2-1.3-0.3-1.8
	c0.5,2.6,0-0.2,0-0.7c-0.1-1.6-0.2-3.2-0.2-4.6c0-5.8-5.1-11.4-11.2-11.2c-6.1,0.1-11.1,5.1-11.2,11.2c0.2,27,17,51,42.2,60.3
	c24.2,9.1,53.5,1.2,69.8-18.9c9.6-11.6,15-26.1,15.1-41.2c0-5.8-5.2-11.4-11.2-11.2C144.8,303.7,139.8,308.7,139.8,314.7
	L139.8,314.7z"/>
<path class="st16" d="M139.8,314.7c0,1.3,0,2.5-0.1,3.8c0,0.7-0.6,4.1-0.1,1.6c-0.4,2.6-1.1,5.4-1.9,7.9c-0.4,1.2-0.7,2.2-1.3,3.4
	c0.9-2.3-0.4,0.7-0.7,1.4c-1.2,2.2-2.4,4.3-3.9,6.4c-0.2,0.3-1.3,1.8-0.4,0.6s-0.3,0.3-0.5,0.6c-0.7,0.8-1.6,1.8-2.3,2.6
	c-0.7,0.8-1.9,1.9-2.8,2.7l-1.4,1.2c-0.2,0.2-2.2,1.7-0.9,0.7c1.1-0.7-1.7,1.2-2.1,1.4c-0.9,0.6-2,1.3-3.1,1.8
	c-1.1,0.5-2.1,1.1-3.2,1.6c-0.3,0.2-2.1,0.9-0.7,0.3c1.4-0.6-0.8,0.3-1.2,0.4c-2.2,0.8-4.5,1.5-7,2c-0.7,0.1-4.1,0.6-1.6,0.3
	c-1.6,0.2-3.1,0.3-4.6,0.3h-1.7c-1.9,0-3.9-0.1-5.8-0.3c-0.6,0-2.1-0.4,0.2,0c-0.6-0.1-1.2-0.2-1.8-0.3c-1.4-0.3-2.6-0.5-4-0.9
	c-1.4-0.4-2.3-0.7-3.5-1.1c-0.5-0.2-1.1-0.4-1.7-0.6c-1.6-0.5,1.6,0.8,0.2,0.1c-2.2-1.2-4.5-2.2-6.6-3.6c-1.1-0.6-1.9-1.4-2.9-2
	c2.1,1.4-0.6-0.5-1.2-1.1c-2-1.8-3.8-3.6-5.5-5.6l-1.1-1.4c1.7,2.1-0.1-0.3-0.3-0.5c-0.7-1.1-1.5-2.2-2.1-3.4
	c-0.7-1.2-1.4-2.3-1.9-3.5c-0.3-0.5-0.5-1.1-0.7-1.6c1.2,2.4,0-0.2-0.2-0.6c-0.9-2.5-1.7-5.2-2.2-7.8c-0.1-0.6-0.2-1.3-0.3-1.8
	c0.5,2.6,0-0.2,0-0.7c-0.1-1.6-0.2-3.2-0.2-4.6c0-5.8-5.1-11.4-11.2-11.2c-6.1,0.1-11.1,5.1-11.2,11.2c0.2,27,17,51,42.2,60.3
	c24.2,9.1,53.5,1.2,69.8-18.9c9.6-11.6,15-26.1,15.1-41.2c0-5.8-5.2-11.4-11.2-11.2C144.8,303.7,139.8,308.7,139.8,314.7
	L139.8,314.7z"/>
<path class="st8" d="M84.4,448.4l-1.3-0.7v-69.2c0-1.7-1.4-2.9-2.9-2.9l0,0h-8.4c-1.7,0-2.9,1.4-2.9,2.9v69.2l-1.4,0.7
	c-8.2,4.7-17.6,7.3-27.2,7.3h-0.1c-4.1,0-7.4,3.3-7.4,7.4h86.3c0-4.1-3.3-7.4-7.4-7.4h-0.1C102.1,455.8,92.7,453.2,84.4,448.4
	L84.4,448.4z"/>
<path class="st17" d="M83.1,385.8v-7.4c0-1.7-1.4-2.9-2.9-2.9h-8.4c-1.7,0-2.9,1.4-2.9,2.9v7.4H83.1z"/>
<path class="st18" d="M91,184.2c0,0-16.1,17.2-6.5,30l-0.2-4.4c0,0,1.4,7.9,21.9,9.4c20.5,1.5,15.3-11.9,15.3-11.9s1.4,3.9,4.4,4.3
	c0,0-3.9-4.3-2.4-12.4c1.5-8.1,7.4-12.3-2-19.2c0,0,0.7-7.4-15.8-5.5S91,184.2,91,184.2z"/>
<path class="st8" d="M131.6,228.4c-2.9-0.3-4.7-4.5-4.4-7.7c0.3-3.2,3.3-6.8,6.1-6.4c0.6,0,1.2,0.3,1.6,0.8c0.8,1.1,0.6,2.9,0.3,5.2
	c0,0.4-0.1,0.9-0.2,1.4c-0.1,0.4-0.1,0.9-0.1,1.4c-0.2,2.3-0.4,4.1-1.6,5c-0.4,0.3-0.8,0.4-1.4,0.5L131.6,228.4L131.6,228.4z
	 M133.1,216.2c-1.2-0.1-3.6,1.7-3.9,4.7s1.5,5.4,2.6,5.5h0.2c0.4-0.3,0.6-2.1,0.7-3.6c0-0.4,0.1-0.9,0.1-1.4
	c0.1-0.4,0.1-0.9,0.2-1.4c0.2-1.5,0.4-3.3,0.1-3.7C133.3,216.2,133.2,216.2,133.1,216.2z"/>
<path class="st19" d="M131.6,228.4c-2.9-0.3-4.7-4.5-4.4-7.7c0.3-3.2,3.3-6.8,6.1-6.4c0.6,0,1.2,0.3,1.6,0.8
	c0.8,1.1,0.6,2.9,0.3,5.2c0,0.4-0.1,0.9-0.2,1.4c-0.1,0.4-0.1,0.9-0.1,1.4c-0.2,2.3-0.4,4.1-1.6,5c-0.4,0.3-0.8,0.4-1.4,0.5
	L131.6,228.4L131.6,228.4z M133.1,216.2c-1.2-0.1-3.6,1.7-3.9,4.7s1.5,5.4,2.6,5.5h0.2c0.4-0.3,0.6-2.1,0.7-3.6
	c0-0.4,0.1-0.9,0.1-1.4c0.1-0.4,0.1-0.9,0.2-1.4c0.2-1.5,0.4-3.3,0.1-3.7C133.3,216.2,133.2,216.2,133.1,216.2z"/>
<path class="st8" d="M154.7,248.6c0,0-37.1-29.8-40.1-18.9c-4.2,14.6,38.1,27.2,38.1,27.2S156.6,257.7,154.7,248.6z"/>
<path class="st17" d="M150.6,253.8c3.7,2.1,3.2-2.2,1.7-7.1c-2.4-1.9-6.3-4.8-10.9-7.9C142.4,242.8,145.1,250.7,150.6,253.8z"/>
<path class="st17" d="M121.9,230.5l-2.1,3.5v7.3c3.7,3.1,7.8,5.6,12.2,7.7l0,0c-7.7-4.2-9.6-17.5-9.6-17.5L121.9,230.5z"/>
<path class="st8" d="M77.5,226.1L77.5,226.1c-2.3,0-4.2,1.8-4.2,4.1v0.1c0.3,11.8,1.1,44.7-0.6,57.5c-1.3,10-9.1,39.2-9.1,39.2
	l55.1-24.7c0,0-0.8-18.3,0-24.4c0.7-5.6,5.4-16.1,5.8-21.8c0.4-4.6-1.7-13.9-1.9-18.5c0-1.7,0.1-5.2,0.3-7.5V230
	c0-1.3-0.9-2.2-2.2-2.3L77.5,226.1z"/>
<path class="st20" d="M200.7,407.9l3.8,16.2l-7.9,1.8l-4.7-15.1L200.7,407.9z"/>
<path class="st8" d="M206.9,424.1c-0.1,0-0.2-0.1-0.2-0.1v-0.1v-0.1c0.1-0.1,2.8-2.6,4.4-2.5c0.3,0,0.5,0.1,0.7,0.3
	c0.2,0.1,0.3,0.4,0.3,0.6c0,0.1,0,0.2,0,0.3c-0.3,0.5-1.4,1.1-2.5,1.3C208.8,423.8,207.9,424.1,206.9,424.1L206.9,424.1z
	 M207.5,423.6c1.7-0.2,4-0.7,4.2-1.4c0-0.2,0-0.3-0.1-0.4c-0.1-0.1-0.3-0.2-0.4-0.2l0,0H211h-0.3
	C209.5,422.1,208.4,422.8,207.5,423.6L207.5,423.6z"/>
<path class="st8" d="M206.8,424.1c-0.1,0-0.1-0.1-0.1-0.2c-0.1-0.3-0.1-0.6-0.1-0.9c0-0.9,0.2-1.9,0.6-2.8c0.2-0.3,0.6-0.5,1.1-0.6
	c0.6-0.1,0.8,0.2,0.9,0.4c0.4,0.9-1.3,3.4-2.2,4.1L206.8,424.1L206.8,424.1L206.8,424.1z M208.3,419.9c-0.3,0.1-0.5,0.2-0.6,0.4
	c-0.4,0.7-0.6,1.6-0.6,2.4c0,0.2,0,0.4,0,0.6c0.9-0.9,2-2.7,1.8-3.4C208.8,420.1,208.8,419.8,208.3,419.9L208.3,419.9L208.3,419.9z"
	/>
<path class="st6" d="M205.7,423l-9.8,2.2c-0.3,0.1-0.6,0.4-0.6,0.7v8.4c0,0.7,0.6,1.4,1.4,1.4h0.3c3.5-0.8,6.6-1.8,11-2.7
	c5.2-1.2,4-0.3,10.1-1.6c3.7-0.8,3.4-5.2,1.8-5c-7.4,0.7-8.5-1.3-11.9-3.2C207.2,423,206.5,422.9,205.7,423L205.7,423z"/>
<path class="st21" d="M203.4,419.5l-2.7-11.7l-8.8,2.9l3.6,11.5L203.4,419.5z"/>
<path class="st6" d="M64.4,340.5c-4.8-11.7-1.5-30.7,36.7-37.7c31.3-5.9,51.5-3.6,62.3-1.1c5.8,1.4,10.5,5.5,12.7,11
	c5.4,13.2,14,35.4,26.8,100.8l-9.7,4.1c0,0-10.5-31.6-16.2-44.6c-5.1-11.6-15.9-30-19.4-47c0,0-15,5.3-33.1,13.9
	C101.9,350.8,74.1,363.7,64.4,340.5z"/>
<path class="st6" d="M191.3,415.1l2.3,5.7l10.9-4l-1.2-6L191.3,415.1z"/>
<path class="st7" d="M191.3,415.1l2.3,5.7l10.9-4l-1.2-6L191.3,415.1z"/>
<path class="st21" d="M157.4,326.2l0.3-0.1c1.9,8.3,4.6,16.3,8.3,24c2-8.8,4.5-21.4,2.6-23.8C165.8,322.5,157.4,326.3,157.4,326.2
	L157.4,326.2z"/>
<path class="st20" d="M131,437.6l-2.4,16.2h7.8l4.3-15.6L131,437.6z"/>
<path class="st8" d="M138.3,454.2c-0.1,0-0.2-0.1-0.2-0.2l0,0c0-0.1,0-0.2,0.1-0.2c0.1-0.1,3.3-2,4.8-1.6c0.3,0.1,0.5,0.2,0.7,0.5
	c0.2,0.3,0.2,0.6,0,0.9c-0.6,0.5-1.5,0.8-2.3,0.8h-0.4h-0.2C139.9,454.5,139.2,454.4,138.3,454.2L138.3,454.2z M139,453.9
	c1.7,0.2,4,0.1,4.4-0.5c0.1-0.1,0.1-0.3,0-0.5s-0.2-0.3-0.4-0.3h-0.4C141.3,452.8,140.1,453.2,139,453.9L139,453.9z"/>
<path class="st8" d="M138.2,454.2c-0.1,0-0.1-0.1-0.1-0.2l0,0c0.1-1.4,0.5-2.6,1.4-3.6c0.3-0.3,0.7-0.4,1.1-0.4h0.1
	c0.6,0,0.8,0.3,0.8,0.6c0.2,1.1-1.9,3.1-3.1,3.6H138.2L138.2,454.2z M140.4,450.4c-0.3,0-0.5,0.1-0.7,0.3c-0.6,0.8-1.1,1.8-1.2,2.8
	c1.2-0.7,2.5-2.3,2.4-2.9c0,0,0-0.2-0.4-0.2H140.4z"/>
<path class="st6" d="M137.3,452.9l-10,0.3c-0.4,0-0.7,0.3-0.7,0.6l-1.6,8.2c0,0.1,0,0.2,0,0.2c0,0.6,0.4,1.2,1.1,1.4h0.2
	c3.6-0.2,6.8-0.4,11.4-0.5c5.3-0.1,4,0.5,10.2,0.4c3.8,0,4.3-4.3,2.7-4.5c-7.4-0.7-8.1-2.9-11.1-5.5c-0.5-0.4-1.3-0.6-1.9-0.6
	L137.3,452.9z"/>
<path class="st21" d="M137.5,449.6l3.2-11.3l-9.7-0.6l-1.8,11.9L137.5,449.6L137.5,449.6z"/>
<path class="st6" d="M165.4,331.5c-1.6-2.9-4.6-5-8-5.3c-2.2,0.8-16.1,5.8-32.9,13.8c-11.4,5.4-23.9,11.3-34.9,13l0,0l54.3-3.2
	c-5.3,15.5-6.6,39.7-8.2,53c-1.6,13-6.3,40.5-6.3,40.5h10.4C139.7,443.2,170,339.9,165.4,331.5z"/>
<path class="st22" d="M165.4,331.5c-1.6-2.9-4.6-5-8-5.3c-2.2,0.8-16.1,5.8-32.9,13.8c-11.4,5.4-23.9,11.3-34.9,13l0,0l54.3-3.2
	c-5.3,15.5-6.6,39.7-8.2,53c-1.6,13-6.3,40.5-6.3,40.5h10.4C139.7,443.2,170,339.9,165.4,331.5z"/>
<path class="st6" d="M128.5,441.5l-0.8,6.2l12.2-0.2l1.3-5.9L128.5,441.5z"/>
<path class="st7" d="M128.5,441.5l-0.8,6.2l12.2-0.2l1.3-5.9L128.5,441.5z"/>
<path class="st20" d="M148,226.2l-2.2-4.2l-8.5-7.2c-0.8-0.7-2.1-0.7-3.1,0l-4.3,3.6c-0.5,0.4-0.8,1.2-0.8,1.8c0,0.1,0,0.3,0,0.5
	l0.9,4.5c0.2,1.1,1.1,1.8,2.1,1.8c2.7,0.2,7.9,0.3,9.1-1.2l1.3,3.8L148,226.2z"/>
<path class="st8" d="M123.4,211.5h5.5c1.8,0,3.2,1.4,3.2,3.2v11c0,2.9-2.3,5.3-5.3,5.3h-1.3c-2.9,0-5.3-2.3-5.3-5.3v-11
	C120.2,212.8,121.6,211.5,123.4,211.5L123.4,211.5z"/>
<path class="st22" d="M123.4,211.5h5.5c1.8,0,3.2,1.4,3.2,3.2v11c0,2.9-2.3,5.3-5.3,5.3h-1.3c-2.9,0-5.3-2.3-5.3-5.3v-11
	C120.2,212.8,121.6,211.5,123.4,211.5L123.4,211.5z"/>
<path class="st20" d="M96.4,207.2c0.6,5.9,0.8,16.4-3.5,20c4.2,3.9,9,7.3,14,10c6.8-4.7,3.8-9.8,3.8-9.8c-5.5-1.6-5.7-6.8-4.2-11.2
	L96.4,207.2z"/>
<path class="st21" d="M106.5,216.2l-6.8-6.1l-1.6,0.7c0,0,1.7,7.7,7.7,10.3c0-0.2,0-0.4,0-0.6C105.9,219,106.1,217.6,106.5,216.2
	L106.5,216.2z"/>
<path class="st20" d="M93.1,193.3c0.3,9.7,0.2,13.7,4.8,18.9c7.1,7.7,18.9,5.3,21.5-4.3c2.3-8.6,1.5-23-7.8-27.1
	c-6.6-2.9-14.4,0-17.4,6.6c-0.7,1.7-1.2,3.6-1.2,5.4C93.1,193,93.1,193.1,93.1,193.3L93.1,193.3z"/>
<path class="st18" d="M101.7,176.1c-2.3,2.4,0.6,8.5,9.3,10c6.5,1.2,13,9.9,14,2.3C126,181.4,110.6,174.4,101.7,176.1z"/>
<path class="st18" d="M105.9,179.1c3.7,4.4-0.7,10-3.5,12.3c-2.7,2.3-6.7,4.1-5.2,8.8c1.6,4.7,0.7,16.5-7,12.6
	c-7.7-3.9-4.2-17.4-0.3-23.2S101.5,173.8,105.9,179.1z"/>
<path class="st23" d="M114.1,198.1c0.6,1.8,1.6,3.6,2.6,5.2c-0.8,0.5-1.9,0.7-2.8,0.4L114.1,198.1z"/>
<path class="st18" d="M104.2,192.5c-0.1,0-0.1,0-0.1-0.1c-0.1-0.1-0.1-0.2-0.1-0.3s0-0.2,0.1-0.3l0,0c0.8-0.9,2-1.4,3.3-1.4
	c0.2,0,0.4,0,0.6,0c0.2,0,0.3,0.2,0.3,0.4c0,0,0,0,0,0.1c0,0.2-0.2,0.3-0.4,0.3l0,0c-0.1,0-0.3,0-0.4,0c-1.1,0-2,0.4-2.7,1.3
	c-0.1,0-0.1,0.1-0.2,0.1C104.3,192.5,104.3,192.5,104.2,192.5L104.2,192.5z"/>
<path class="st18" d="M120.8,193.1c-0.1,0-0.1-0.1-0.1-0.1c-0.7-0.6-1.6-1.1-2.6-1.1c-0.2,0-0.4,0-0.6,0.1h-0.1
	c-0.2,0-0.3-0.1-0.3-0.3l0,0v-0.1c0-0.2,0.1-0.3,0.3-0.3c0.3-0.1,0.5-0.1,0.8-0.1c1.2,0,2.3,0.4,3.2,1.3c0.1,0.1,0.1,0.2,0.1,0.3
	s0,0.2-0.1,0.3c-0.1,0.1-0.2,0.1-0.3,0.1L120.8,193.1L120.8,193.1z"/>
<path class="st18" d="M108.6,196.6c0,0.7,0.4,1.4,0.9,1.5c0.5,0.1,0.9-0.6,0.9-1.4c0-0.7-0.4-1.4-0.8-1.5
	C109.3,195.1,108.7,195.8,108.6,196.6z"/>
<path class="st18" d="M117.5,196.9c0,0.7,0.4,1.4,0.8,1.5c0.4,0.1,0.9-0.6,0.9-1.4c0-0.7-0.4-1.4-0.8-1.4S117.6,196.1,117.5,196.9z"
	/>
<path class="st18" d="M118.3,195.5l1.9-0.5C120.2,195,119.2,196.5,118.3,195.5z"/>
<path class="st18" d="M109.4,195.2l1.9-0.5C111.3,194.7,110.2,196.2,109.4,195.2z"/>
<path class="st8" d="M90.1,226.5c-1.4-0.8-3.1-0.8-4.3,0c-0.6,0.4-2-1.3-2.9-0.2c0,0,13.1,25,11.2,41.9c-1.1,9.3-1.7,18.5-1.7,27.8
	s4.7-2.2,7.1-1.4c0.5,0.2,1.2,0.2,1.8,0.2c1.1,0,2.1-0.2,3.1-0.7c0.9-0.5-1.3-18.9-1.1-27.7c0.4-20.2-10.9-39.3-10.9-39.3
	L90.1,226.5z"/>
<path class="st13" d="M90.1,226.5c-1.4-0.8-3.1-0.8-4.3,0c-0.6,0.4-2-1.3-2.9-0.2c0,0,13.1,25,11.2,41.9c-1.1,9.3-1.7,18.5-1.7,27.8
	s4.7-2.2,7.1-1.4c0.5,0.2,1.2,0.2,1.8,0.2c1.1,0,2.1-0.2,3.1-0.7c0.9-0.5-1.3-18.9-1.1-27.7c0.4-20.2-10.9-39.3-10.9-39.3
	L90.1,226.5z"/>
<path class="st18" d="M109.9,207c1.1,0.9,2.3,1.4,3.7,1.4h0.4c0.1,0,0.2-0.1,0.2-0.2l0,0c0-0.1-0.1-0.2-0.2-0.2h-0.3
	c-1.6,0-2.9-0.6-4-1.8h-0.1h-0.1l0,0c0,0-0.1,0.1,0,0.1v0.1C109.6,206.7,109.7,206.9,109.9,207z"/>
<path class="st8" d="M141.4,227.3c0,0,5.5,34.5,13.3,29.3c6.7-4.4-3.7-25.8-6.8-32.1c-0.2-0.3-0.5-0.5-0.8-0.5s-0.6,0.1-0.7,0.4
	C145.1,225.9,143.4,226.9,141.4,227.3z"/>
<path class="st8" d="M94.7,223.5c0,0,7.2,10.2,13.6,8.2c4.8-1.5-0.3-5.8-0.3-5.8c1.1-0.2,2.1,0,2.9,0.6c0.6,0.4,0.9-0.5,2.3,1.2
	c0,0,5.2,11.8-2.8,13.5c-12,2.4-20.1-14.6-20.1-14.6s1.5-1.9,2.8-1.4C92.9,225.1,92.3,223.6,94.7,223.5z"/>
<path class="st13" d="M94.7,223.5c0,0,7.2,10.2,13.6,8.2c4.8-1.5-0.3-5.8-0.3-5.8c1.1-0.2,2.1,0,2.9,0.6c0.6,0.4,0.9-0.5,2.3,1.2
	c0,0,5.2,11.8-2.8,13.5c-12,2.4-20.1-14.6-20.1-14.6s1.5-1.9,2.8-1.4C92.9,225.1,92.3,223.6,94.7,223.5z"/>
<path class="st17" d="M119.8,276.2l-18.4-0.8l-25-47.6c-0.1,0.1-0.2,0.1-0.3,0.2c-1.6,1.4-2.5,3.3-2.7,5.3c0,1.2,0,2.4,0.1,3.9
	c1.1,7.6,6.8,20.4,21.2,43.4c1.6,2.5,4.3,4,7.3,4h0.3l17.5-1.3C119.7,281.1,119.7,278.8,119.8,276.2z"/>
<path class="st17" d="M95.5,228.5c0,0,9.9,8.3,14.3,6.5c2.8-1.2,1.7-5,1.7-5s3.8,7.1-1.6,8C103.9,239.3,95.5,228.5,95.5,228.5z"/>
<path class="st17" d="M90.9,228l4.7,6.7C93.1,233.4,91.3,230.9,90.9,228z"/>
<path class="st8" d="M112,227.5c1.5-0.7,3.3-0.6,4.7,0.2c0.7,0.4,1.8,9,2.9,15c1.2,6,1.7,13.4,0.5,25.2c-0.3,4.3-0.4,8.6-0.4,13
	c0,3.9,0.1,7.8,0.3,11.6c-0.7-0.4-1.6-0.6-2.4-0.6c-0.8,0-1.7,0.2-2.4,0.6c-0.5,0.3-1.1,0.5-1.7,0.5c-1.1,0-2-0.5-2.5-1.4
	c-0.5-0.8,0.7-12.1,2.7-23.8c0.7-5.2,1.2-10.4,1.2-15.7c0-5.8-0.5-11.6-1.5-17.3L112,227.5z"/>
<path class="st13" d="M112,227.5c1.5-0.7,3.3-0.6,4.7,0.2c0.7,0.4,1.8,9,2.9,15c1.2,6,1.7,13.4,0.5,25.2c-0.3,4.3-0.4,8.6-0.4,13
	c0,3.9,0.1,7.8,0.3,11.6c-0.7-0.4-1.6-0.6-2.4-0.6c-0.8,0-1.7,0.2-2.4,0.6c-0.5,0.3-1.1,0.5-1.7,0.5c-1.1,0-2-0.5-2.5-1.4
	c-0.5-0.8,0.7-12.1,2.7-23.8c0.7-5.2,1.2-10.4,1.2-15.7c0-5.8-0.5-11.6-1.5-17.3L112,227.5z"/>
<path class="st17" d="M113.6,229.7c0,0,1.9,2.3,0.9,7.6C114.5,237.3,117.9,234.3,113.6,229.7z"/>
<path class="st20" d="M91.2,204.1c0.8,1.7,2.3,2.8,4.1,3.5c2.4,0.7,3.6-1.4,2.9-3.7c-0.5-2-2.4-4.8-4.8-4.6
	c-1.6,0.2-2.7,1.6-2.7,3.2c0,0.1,0,0.3,0,0.4C90.7,203.3,90.9,203.7,91.2,204.1L91.2,204.1z"/>
<path class="st20" d="M144.1,271.7h3.6l10.7-2c0.2,0,0.4,0,0.6,0c0.9,0,1.9,0.4,2.6,1.2l8.1,9l-4.7,0.1l-4.3-1.5
	c0,0-6.3,3.3-15.8-1.1L144.1,271.7z"/>
<path class="st8" d="M104.4,268.7c0,0-21.8-48-29.3-40.8c-5.2,5.1-3.5,15.5,21.3,50.5c1.6,2.2,4.1,3.6,6.8,3.5c0.3,0,0.5,0,0.8,0
	l41.7-2.7c-0.5-2.7-0.5-5.7,0-8.4L104.4,268.7z"/>
<path class="st8" d="M218,448.4l-1.3-0.7V301.2c0-1.7-1.4-2.9-2.9-2.9h-8.4c-1.7,0-2.9,1.4-2.9,2.9l0,0v146.4l-1.3,0.7
	c-8.2,4.7-17.6,7.3-27.2,7.3h-0.1c-4.1,0-7.4,3.3-7.4,7.4h86.3c0-4.1-3.3-7.4-7.4-7.4h-0.1C235.7,455.7,226.3,453.1,218,448.4
	L218,448.4z"/>
<path class="st17" d="M216.7,308.6v-7.4c0-1.7-1.4-2.9-2.9-2.9h-8.4c-1.7,0-2.9,1.4-2.9,2.9l0,0v7.4H216.7z"/>
<path class="st8" d="M140.6,293.3h137.5v4c0,2.6-2.1,4.7-4.7,4.7l0,0h-128c-2.6,0-4.7-2.1-4.7-4.7l0,0V293.3L140.6,293.3z"/>
<path class="st14" d="M140.6,293.3h137.5v4c0,2.6-2.1,4.7-4.7,4.7l0,0h-128c-2.6,0-4.7-2.1-4.7-4.7l0,0V293.3L140.6,293.3z"/>
<path class="st8" d="M135.8,284.6h147.4c2.4,0,4.3,1.9,4.4,4.3l0,0c0,2.4-2,4.4-4.4,4.4H135.8c-2.4,0-4.4-2-4.4-4.4l0,0
	C131.4,286.5,133.4,284.6,135.8,284.6L135.8,284.6z"/>
<path class="st12" d="M135.8,284.6h147.4c2.4,0,4.3,1.9,4.4,4.3l0,0c0,2.4-2,4.4-4.4,4.4H135.8c-2.4,0-4.4-2-4.4-4.4l0,0
	C131.4,286.5,133.4,284.6,135.8,284.6L135.8,284.6z"/>
<path class="st17" d="M210.8,299.7v-6.4h-70.2v6.4c0,0.1,0,0.1,0,0.2c0,1.2,0.8,2.1,2,2.2h66.2c1.2-0.1,2-1.1,2-2.2
	C210.9,299.8,210.9,299.8,210.8,299.7L210.8,299.7z"/>
<path class="st17" d="M220.2,290.3v-2.5c0-0.1,0-0.2,0-0.2c0-1.5-1.2-2.7-2.6-2.8H134c-1.5,0.1-2.6,1.4-2.6,2.8v2.9
	c0,1.5,1.2,2.7,2.6,2.8h83.5c1.5-0.1,2.6-1.4,2.6-2.8C220.2,290.4,220.2,290.3,220.2,290.3L220.2,290.3z"/>
<path class="st6" d="M228.8,284.5H183c-2.4,0-4.4-2-4.4-4.4l0,0h54.8C233.3,282.5,231.3,284.5,228.8,284.5L228.8,284.5L228.8,284.5z
	"/>
<path class="st7" d="M228.8,284.5H183c-2.4,0-4.4-2-4.4-4.4l0,0h54.8C233.3,282.5,231.3,284.5,228.8,284.5L228.8,284.5L228.8,284.5z
	"/>
<path class="st6" d="M196.8,284.5H151c-2.4,0-4.4-2-4.4-4.4l0,0h54.8C201.3,282.5,199.3,284.5,196.8,284.5L196.8,284.5L196.8,284.5z
	"/>
<path class="st9" d="M196.8,284.5H151c-2.4,0-4.4-2-4.4-4.4l0,0h54.8C201.3,282.5,199.3,284.5,196.8,284.5L196.8,284.5L196.8,284.5z
	"/>
<path class="st6" d="M229.1,283.1h-27.9c-0.6,0-1.1-0.4-1.1-1.1c0-0.1,0-0.2,0-0.3l15.3-43.8c0.4-1.2,1.6-2,2.8-2h28
	c0.6,0,1.1,0.4,1.1,1.1c0,0.1,0,0.2,0,0.3L232,281.1C231.6,282.2,230.4,283.1,229.1,283.1z"/>
<path class="st9" d="M229.1,283.1h-27.9c-0.6,0-1.1-0.4-1.1-1.1c0-0.1,0-0.2,0-0.3l15.3-43.8c0.4-1.2,1.6-2,2.8-2h28
	c0.6,0,1.1,0.4,1.1,1.1c0,0.1,0,0.2,0,0.3L232,281.1C231.6,282.2,230.4,283.1,229.1,283.1z"/>
<path class="st6" d="M230.5,283.1h-27.9c-0.6,0-1.1-0.4-1.1-1.1c0-0.1,0-0.2,0-0.3l15.3-43.8c0.4-1.2,1.6-2,2.8-2h27.9
	c0.6,0,1.1,0.4,1.1,1.1c0,0.1,0,0.2,0,0.3l-15.3,43.8C232.9,282.2,231.8,283.1,230.5,283.1L230.5,283.1z"/>
<path class="st10" d="M230.5,283.1h-27.9c-0.6,0-1.1-0.4-1.1-1.1c0-0.1,0-0.2,0-0.3l15.3-43.8c0.4-1.2,1.6-2,2.8-2h27.9
	c0.6,0,1.1,0.4,1.1,1.1c0,0.1,0,0.2,0,0.3l-15.3,43.8C232.9,282.2,231.8,283.1,230.5,283.1L230.5,283.1z"/>
<path class="st24" d="M227.4,259.5c-0.3,1.7-1.6,3.1-2.6,3.1s-1.7-1.4-1.3-3.1c0.4-1.7,1.5-3.1,2.6-3.1S227.8,257.8,227.4,259.5z"/>
<path class="st25" d="M345.1,162.1h6.8l-0.8,9.8h-2l0.6-8.1h-2.9l-0.3,4.2c0,0.8-0.2,1.7-0.3,2.5c-0.1,0.4-0.3,0.7-0.6,1.1
	c-0.4,0.3-0.9,0.4-1.5,0.4c-0.2,0-0.6,0-1.3-0.1l0.1-1.6h0.4c0.3,0,0.6,0,0.8-0.2c0.1-0.1,0.2-0.4,0.3-0.8l0.1-1.7L345.1,162.1z"/>
<path class="st25" d="M353.8,164.9h1.8l-0.3,4.4l3.3-4.4h1.9l-0.5,7.2h-1.8l0.3-4.5L355,172h-1.8L353.8,164.9z"/>
<path class="st25" d="M362.1,164.9h1.9l-0.1,1.7c0,0.3,0,0.5,0,0.8c0.1,0.2,0.2,0.4,0.4,0.5c0.2,0.1,0.5,0.2,0.8,0.2
	c0.4,0,0.7-0.1,1.2-0.2l0.2-3.1h1.9l-0.6,7.1h-1.9l0.2-2.8c-0.5,0.2-1.2,0.2-1.7,0.3c-0.5,0-1.1-0.1-1.6-0.3
	c-0.4-0.2-0.7-0.5-0.8-0.9c-0.1-0.5-0.2-1.1-0.1-1.6L362.1,164.9z"/>
<path class="st25" d="M370.2,164.9h1.9l-0.2,2.6h2.7l0.2-2.6h1.9l-0.6,7.1h-1.9l0.2-2.9h-2.7l-0.2,2.9h-1.9L370.2,164.9z"/>
<path class="st25" d="M378.5,164.9h1.9l-0.2,2.9h1.9c0.5,0,1.2,0,1.7,0.2c0.4,0.1,0.7,0.3,0.9,0.7c0.2,0.3,0.3,0.8,0.3,1.3
	c0,0.6-0.3,1.2-0.8,1.6c-0.6,0.4-1.4,0.5-2.2,0.5h-4L378.5,164.9z M380,170.8h1.8c0.3,0,0.7,0,1.1-0.2c0.2-0.1,0.3-0.4,0.3-0.7
	c0.1-0.3-0.1-0.5-0.3-0.7c-0.4-0.2-0.9-0.2-1.4-0.2h-1.3L380,170.8z M386.5,164.9h1.9l-0.5,7.1H386L386.5,164.9z"/>
<path class="st25" d="M390.2,164.9h1.8l-0.3,4.4l3.3-4.4h1.9l-0.5,7.1h-1.8l0.3-4.5l-3.4,4.5h-1.8L390.2,164.9z M395,162h0.9
	c-0.1,0.5-0.3,1.1-0.7,1.4c-0.4,0.3-0.9,0.5-1.5,0.5c-0.5,0-1.1-0.2-1.4-0.5c-0.3-0.4-0.5-0.9-0.5-1.4h0.9c0,0.3,0.1,0.5,0.3,0.7
	c0.2,0.2,0.5,0.3,0.8,0.2c0.3,0,0.6-0.1,0.8-0.2C394.9,162.6,395,162.3,395,162L395,162z"/>
<path class="st25" d="M402.5,164.9h1.9l-0.2,2.9c0.2,0,0.5-0.1,0.7-0.3c0.2-0.3,0.4-0.6,0.5-1.1c0.2-0.5,0.5-0.9,0.9-1.4
	c0.3-0.2,0.7-0.3,1.2-0.3h0.7l-0.1,1.3c-0.6-0.2-1.3,0.1-1.5,0.7c0,0.1,0,0.2,0,0.3c-0.2,0.5-0.5,0.9-1.1,1.3
	c0.6,0.3,1.2,0.8,1.4,1.6v0.1l0.8,2h-2l-0.7-2.1c-0.1-0.3-0.2-0.5-0.4-0.8c-0.2-0.1-0.4-0.2-0.6-0.2l-0.2,3.1h-1.9L402.5,164.9z"/>
<path class="st25" d="M410.7,167.1l-1.7-0.3c0.2-0.6,0.6-1.2,1.2-1.6c0.6-0.3,1.4-0.5,2.1-0.5c0.6,0,1.3,0.1,1.9,0.3
	c0.3,0.1,0.6,0.4,0.8,0.7c0.2,0.5,0.2,1.2,0.1,1.7l-0.2,2.2c0,0.4,0,0.9,0,1.4c0,0.3,0.1,0.6,0.2,0.9h-1.9c0-0.1-0.1-0.3-0.1-0.5
	c0-0.2,0-0.2,0-0.2c-0.3,0.3-0.6,0.5-1.1,0.7c-0.4,0.1-0.7,0.2-1.2,0.2c-0.6,0-1.3-0.2-1.7-0.6c-0.4-0.4-0.5-0.9-0.5-1.5
	c0-0.4,0.2-0.7,0.4-1.1c0.2-0.3,0.5-0.5,0.8-0.7c0.5-0.2,1.1-0.3,1.6-0.4c0.6-0.1,1.3-0.2,1.9-0.4v-0.2c0-0.3,0-0.5-0.2-0.7
	c-0.3-0.2-0.7-0.3-1.1-0.2c-0.3,0-0.5,0.1-0.8,0.2C411,166.6,410.8,166.8,410.7,167.1z M413.1,168.6c-0.2,0.1-0.6,0.2-1.2,0.3
	c-0.3,0.1-0.7,0.2-1.1,0.3c-0.2,0.1-0.4,0.4-0.4,0.6c0,0.2,0.1,0.5,0.2,0.6c0.2,0.2,0.4,0.3,0.7,0.3c0.3,0,0.7-0.1,1.1-0.3
	c0.2-0.1,0.4-0.4,0.5-0.6c0.1-0.3,0.1-0.6,0.1-0.9L413.1,168.6z"/>
<path class="st25" d="M422.7,161.9h1.3c0,0.4-0.2,0.9-0.5,1.3c-0.5,0.4-1.3,0.5-1.9,0.4h-0.6c-0.5,0-0.9,0-1.5,0.2
	c-0.4,0.1-0.7,0.4-0.9,0.7c-0.3,0.5-0.5,1.2-0.5,1.8c0.3-0.5,0.7-0.8,1.2-1.2c0.5-0.2,1.1-0.4,1.6-0.4c0.8,0,1.8,0.3,2.3,1.1
	c0.6,0.7,0.8,1.6,0.7,2.5c-0.2,2.1-1.9,3.7-4,3.7c-0.7,0-1.4-0.2-2-0.5c-0.5-0.3-0.8-0.8-1.1-1.5c-0.2-1.1-0.2-2.1-0.1-3.2
	c0-1.4,0.4-2.6,1.3-3.7c0.9-0.8,2.1-1.3,3.4-1.2h0.9C422.4,162.1,422.6,162,422.7,161.9z M418.4,168.5c-0.1,0.5,0,1.1,0.3,1.6
	c0.3,0.3,0.7,0.5,1.2,0.5c0.5,0,0.9-0.2,1.3-0.6c0.4-0.4,0.6-0.9,0.6-1.5c0.1-0.5-0.1-1.1-0.3-1.6c-0.3-0.4-0.7-0.6-1.2-0.5
	c-0.5,0-0.9,0.2-1.3,0.5C418.6,167.3,418.4,167.9,418.4,168.5z"/>
<path class="st25" d="M425.5,164.9h1.8l-0.3,4.4l3.3-4.4h1.9l-0.5,7.1h-1.8l0.3-4.5l-3.3,4.5h-1.8L425.5,164.9z"/>
<path class="st25" d="M434,164.9h1.9l-0.2,2.6h2.7l0.2-2.6h1.9l-0.6,7.2H438l0.2-2.9h-2.7l-0.2,2.9h-1.9L434,164.9z"/>
<path class="st25" d="M446.1,169.7l1.9,0.3c-0.2,0.6-0.7,1.2-1.3,1.6c-0.6,0.4-1.3,0.5-2,0.5c-1.1,0.1-2-0.3-2.6-1.3
	c-0.4-0.7-0.6-1.6-0.5-2.4c0-1.1,0.4-2,1.2-2.7c0.6-0.6,1.5-1.1,2.4-1.1c0.9-0.1,1.8,0.3,2.4,1.1c0.6,0.9,0.8,2.1,0.6,3.2h-4.7
	c-0.1,0.4,0.1,0.9,0.3,1.3c0.2,0.3,0.6,0.5,1.1,0.4c0.3,0,0.5-0.1,0.7-0.2C445.8,170.3,446,170,446.1,169.7z M446.3,167.8
	c0.1-0.4-0.1-0.8-0.3-1.3c-0.2-0.3-0.5-0.4-0.9-0.4s-0.7,0.2-1.1,0.4c-0.3,0.3-0.5,0.7-0.5,1.3H446.3z"/>
<path class="st25" d="M448.9,164.9h6.4l-0.1,1.5H453l-0.4,5.6h-1.9l0.4-5.6h-2.3L448.9,164.9z"/>
<path class="st26" d="M306.4,182.9h182.2l-2.8,24.2H304.1L306.4,182.9z"/>
<path class="st25" d="M316.7,196.6h-0.8l-0.3-0.9h-1.7l-0.4,0.9h-0.9l2-4.2h0.9L316.7,196.6z M315.3,194.9l-0.4-1.6l-0.7,1.6H315.3z
	"/>
<path class="st25" d="M319.8,192.2h0.5c0,0.2-0.1,0.4-0.2,0.5c-0.2,0.2-0.5,0.2-0.8,0.2H319c-0.2,0-0.4,0-0.6,0.1s-0.3,0.2-0.4,0.3
	c-0.1,0.2-0.2,0.5-0.2,0.8c0.1-0.2,0.3-0.4,0.5-0.5s0.4-0.2,0.7-0.2c0.4,0,0.7,0.2,0.9,0.4c0.2,0.3,0.3,0.6,0.3,1.1
	c0,0.4-0.2,0.7-0.5,1.1c-0.3,0.3-0.7,0.5-1.2,0.4c-0.3,0-0.6-0.1-0.8-0.2c-0.2-0.1-0.4-0.4-0.5-0.6c-0.1-0.4-0.1-0.8,0-1.4
	c0-0.5,0.2-1.2,0.5-1.6c0.4-0.3,0.9-0.5,1.5-0.5h0.4C319.6,192.3,319.8,192.3,319.8,192.2z M318,195c0,0.2,0,0.4,0.1,0.6
	c0.1,0.2,0.3,0.2,0.5,0.2s0.4-0.1,0.5-0.2c0.1-0.2,0.2-0.4,0.2-0.6c0-0.2,0-0.5-0.1-0.6c-0.1-0.2-0.3-0.2-0.5-0.2s-0.4,0.1-0.5,0.2
	C318.1,194.6,318,194.8,318,195z"/>
<path class="st25" d="M321,193.4h0.7l-0.1,1.9l1.4-1.9h0.8l-0.2,3.1h-0.7l0.2-1.9l-1.5,1.9h-0.7L321,193.4z"/>
<path class="st25" d="M324.3,193.4h2.7v0.6h-0.9l-0.2,2.4H325l0.2-2.4h-0.9L324.3,193.4L324.3,193.4z"/>
<path class="st25" d="M327.3,193.4h0.8l0.5,2.2l0.8-2.2h0.8l-1.4,2.9l-0.2,0.5c-0.1,0.1-0.1,0.3-0.2,0.4c-0.1,0.1-0.1,0.2-0.2,0.2
	c-0.1,0.1-0.2,0.1-0.3,0.1s-0.3,0-0.4,0c-0.1,0-0.3,0-0.4,0V197c0.1,0,0.2,0,0.3,0c0.2,0,0.3-0.1,0.4-0.2c0.1-0.1,0.2-0.3,0.2-0.4
	L327.3,193.4z"/>
<path class="st25" d="M330.9,193.4h0.7v0.4c0.1-0.2,0.2-0.3,0.4-0.4c0.2-0.1,0.4-0.1,0.5-0.1c0.3,0,0.6,0.1,0.8,0.4
	c0.2,0.3,0.3,0.7,0.3,1.2s-0.2,0.8-0.5,1.2c-0.2,0.3-0.6,0.4-0.9,0.4c-0.1,0-0.3,0-0.4-0.1c-0.1-0.1-0.3-0.2-0.4-0.3l-0.1,1.6h-0.8
	L330.9,193.4z M331.6,195c0,0.2,0,0.5,0.1,0.7c0.1,0.2,0.3,0.2,0.5,0.2s0.3-0.1,0.5-0.2c0.2-0.2,0.2-0.5,0.2-0.7
	c0-0.2,0-0.5-0.1-0.7c-0.1-0.1-0.3-0.2-0.4-0.2c-0.2,0-0.4,0.1-0.5,0.2C331.7,194.5,331.6,194.7,331.6,195L331.6,195z"/>
<path class="st25" d="M334.5,193.4h0.7l-0.2,1.9l1.4-1.9h0.8l-0.1,3.2h-0.7l0.2-1.9l-1.6,1.9h-0.7L334.5,193.4z"/>
<path class="st25" d="M339.8,195.5l0.8,0.1c-0.1,0.3-0.3,0.5-0.5,0.7c-0.2,0.1-0.5,0.2-0.8,0.2c-0.4,0-0.8-0.1-1.2-0.5
	c-0.2-0.3-0.3-0.7-0.2-1.1c0-0.4,0.2-0.8,0.5-1.2c0.3-0.3,0.6-0.4,1.1-0.4s0.8,0.1,1.1,0.4c0.2,0.4,0.3,0.9,0.3,1.4h-2
	c0,0.2,0,0.4,0.1,0.5s0.3,0.2,0.4,0.2c0.1,0,0.2,0,0.3-0.1C339.7,195.9,339.8,195.8,339.8,195.5z M339.9,194.8c0-0.2,0-0.4-0.1-0.5
	c-0.1-0.1-0.2-0.2-0.4-0.2c-0.2,0-0.3,0.1-0.4,0.2c-0.1,0.1-0.2,0.3-0.2,0.5H339.9z"/>
<path class="st25" d="M341.5,193.4h0.8l-0.1,1.2h1.2l0.1-1.2h0.8l-0.2,3.1h-0.8l0.1-1.3h-1.2l-0.1,1.3h-0.8L341.5,193.4z"/>
<path class="st25" d="M344.7,193.4h2.7v0.6h-1.1l-0.2,2.4h-0.8l0.2-2.4h-0.9L344.7,193.4z"/>
<path class="st25" d="M353.1,196.6h-0.9l-0.3-0.9h-1.7l-0.4,0.9h-0.9l2-4.2h0.9L353.1,196.6z M351.8,194.9l-0.4-1.6l-0.7,1.6H351.8z
	"/>
<path class="st25" d="M354.1,193.4h2.7l-0.2,3.1h-0.8l0.2-2.4h-1.1l-0.1,1.4c0,0.2-0.1,0.5-0.2,0.7c-0.1,0.1-0.2,0.2-0.3,0.3
	c-0.1,0-0.3,0.1-0.5,0.1s-0.3,0-0.5,0V196h0.3c0.1,0,0.2,0,0.2-0.1c0.1-0.2,0.1-0.4,0.1-0.6L354.1,193.4z"/>
<path class="st25" d="M357.3,193.4h2.8v0.6H359l-0.2,2.4H358l0.2-2.4h-1.1L357.3,193.4z"/>
<path class="st25" d="M361,194.5l-0.7-0.1c0.1-0.3,0.2-0.5,0.5-0.6c0.3-0.1,0.6-0.2,0.9-0.2c0.3,0,0.5,0,0.8,0.1
	c0.1,0.1,0.3,0.2,0.3,0.3c0,0.2,0,0.5,0,0.7l-0.1,0.9c0,0.2,0,0.4,0,0.6c0,0.1,0,0.3,0.1,0.4h-0.7c0-0.1,0-0.1-0.1-0.2v-0.1
	c-0.1,0.1-0.3,0.2-0.4,0.3c-0.2,0.1-0.3,0.1-0.5,0.1c-0.3,0-0.5-0.1-0.7-0.3s-0.2-0.4-0.2-0.6s0.1-0.3,0.2-0.4
	c0.1-0.1,0.2-0.2,0.3-0.3c0.2-0.1,0.4-0.1,0.6-0.2c0.3,0,0.5-0.1,0.8-0.2v-0.2c0-0.1,0-0.2-0.1-0.3c-0.1-0.1-0.3-0.1-0.4-0.1
	c-0.1,0-0.2,0-0.3,0.1C361.3,194.2,361.2,194.3,361,194.5z M362.1,195.1l-0.5,0.1c-0.1,0-0.3,0.1-0.4,0.1c-0.1,0.1-0.2,0.2-0.2,0.3
	s0,0.2,0.1,0.3c0.1,0.1,0.2,0.1,0.3,0.1c0.1,0,0.3-0.1,0.4-0.1c0.1-0.1,0.2-0.2,0.2-0.3s0.1-0.2,0.1-0.4V195.1z"/>
<path class="st25" d="M363.8,193.4h0.7l-0.2,1.9l1.4-1.9h0.8l-0.2,3.1h-0.7l0.2-2l-1.5,2h-0.7L363.8,193.4z M365.9,192.3h0.4
	c0,0.2-0.1,0.4-0.3,0.6c-0.2,0.1-0.4,0.2-0.6,0.2s-0.4-0.1-0.6-0.2c-0.1-0.2-0.2-0.4-0.2-0.6h0.4c0,0.1,0,0.2,0.1,0.3
	c0.1,0.1,0.2,0.1,0.3,0.1s0.2,0,0.3-0.1C365.8,192.5,365.8,192.4,365.9,192.3z"/>
<path class="st25" d="M370.1,194.4l-0.8,0.1c0-0.1-0.1-0.2-0.1-0.3c-0.1-0.1-0.2-0.1-0.3-0.1c-0.2,0-0.4,0.1-0.5,0.2
	c-0.1,0.2-0.2,0.4-0.2,0.7c0,0.2,0,0.5,0.1,0.7c0.1,0.1,0.3,0.2,0.5,0.2c0.1,0,0.3,0,0.4-0.1c0.1-0.1,0.2-0.3,0.2-0.4l0.8,0.1
	c-0.2,0.6-0.8,1.1-1.5,1.1c-0.4,0-0.7-0.1-1.1-0.4c-0.3-0.3-0.4-0.7-0.3-1.2c0-0.4,0.2-0.8,0.5-1.2c0.3-0.3,0.7-0.4,1.2-0.4
	c0.3,0,0.6,0.1,0.8,0.2C369.9,193.9,370,194.1,370.1,194.4z"/>
<path class="st25" d="M370.7,193.4h0.8l-0.1,1.3c0.1,0,0.2,0,0.3-0.1c0.1-0.1,0.2-0.3,0.2-0.4c0.1-0.2,0.2-0.4,0.4-0.5
	c0.1-0.1,0.3-0.1,0.5-0.1h0.3v0.5c-0.1,0-0.3,0-0.4,0c-0.1,0.1-0.2,0.2-0.2,0.4c-0.1,0.2-0.2,0.4-0.4,0.5c0.3,0.1,0.5,0.3,0.6,0.6
	v0.1l0.4,0.8h-0.8l-0.3-0.8c0-0.1-0.1-0.2-0.2-0.3c-0.1-0.1-0.2-0.1-0.3-0.1l-0.1,1.4h-0.8L370.7,193.4z"/>
<path class="st25" d="M373.4,195c0-0.3,0.1-0.5,0.3-0.7c0.1-0.2,0.3-0.4,0.6-0.5c0.2-0.1,0.5-0.2,0.8-0.2c0.7,0,1.5,0.5,1.5,1.3
	c0,0.1,0,0.2,0,0.3c0,0.4-0.2,0.8-0.5,1.2c-0.3,0.3-0.7,0.4-1.2,0.4c-0.3,0-0.5-0.1-0.8-0.2c-0.2-0.1-0.4-0.3-0.5-0.5
	C373.4,195.6,373.3,195.3,373.4,195z M374.2,195c0,0.2,0,0.5,0.2,0.7c0.1,0.2,0.3,0.2,0.5,0.2s0.4-0.1,0.5-0.2
	c0.2-0.2,0.3-0.4,0.3-0.7c0-0.2,0-0.5-0.2-0.7c-0.1-0.1-0.3-0.2-0.5-0.2s-0.4,0.1-0.5,0.2C374.3,194.5,374.2,194.8,374.2,195
	L374.2,195z"/>
<path class="st25" d="M377.3,193.4h2.1l-0.1,0.6H378l-0.2,2.4H377L377.3,193.4z"/>
<path class="st25" d="M379.4,195c0-0.3,0.1-0.5,0.3-0.7c0.1-0.2,0.3-0.4,0.6-0.5c0.2-0.1,0.5-0.2,0.8-0.2c0.7,0,1.5,0.5,1.5,1.3
	c0,0.1,0,0.2,0,0.3c0,0.4-0.2,0.8-0.5,1.2c-0.3,0.3-0.7,0.4-1.2,0.4c-0.3,0-0.5-0.1-0.8-0.2c-0.2-0.1-0.4-0.3-0.5-0.5
	C379.4,195.6,379.3,195.3,379.4,195z M380.2,195c0,0.2,0,0.5,0.2,0.7c0.1,0.2,0.3,0.2,0.5,0.2s0.4-0.1,0.5-0.2
	c0.2-0.2,0.3-0.4,0.3-0.7c0-0.2,0-0.5-0.2-0.7c-0.1-0.1-0.3-0.2-0.5-0.2s-0.4,0.1-0.5,0.2C380.3,194.5,380.2,194.8,380.2,195
	L380.2,195z"/>
<path class="st25" d="M384.9,193.4h2.1v0.6h-1.3l-0.2,2.4h-0.8L384.9,193.4z"/>
<path class="st25" d="M387,195c0-0.3,0.1-0.5,0.3-0.7c0.1-0.2,0.3-0.4,0.6-0.5c0.2-0.1,0.5-0.2,0.8-0.2c0.4,0,0.8,0.1,1.1,0.4
	c0.3,0.3,0.4,0.7,0.3,1.2c0,0.4-0.2,0.8-0.5,1.2c-0.3,0.3-0.7,0.4-1.2,0.4c-0.3,0-0.5-0.1-0.8-0.2c-0.2-0.1-0.4-0.3-0.5-0.5
	C387,195.6,387,195.3,387,195z M387.8,195c0,0.2,0,0.5,0.2,0.7c0.1,0.2,0.3,0.2,0.5,0.2s0.4-0.1,0.5-0.2c0.2-0.2,0.3-0.4,0.3-0.7
	c0-0.2,0-0.5-0.2-0.7c-0.1-0.1-0.3-0.2-0.5-0.2s-0.4,0.1-0.5,0.2C387.9,194.5,387.8,194.8,387.8,195L387.8,195z"/>
<path class="st25" d="M393.5,194.4l-0.8,0.1c0-0.1-0.1-0.3-0.2-0.3c-0.1-0.1-0.2-0.1-0.3-0.1c-0.2,0-0.4,0.1-0.5,0.2
	c-0.1,0.2-0.2,0.4-0.2,0.7c0,0.2,0,0.5,0.1,0.7c0.1,0.1,0.3,0.2,0.5,0.2c0.1,0,0.3,0,0.4-0.1c0.1-0.1,0.2-0.3,0.2-0.4l0.8,0.1
	c-0.2,0.6-0.8,1.2-1.5,1.1c-0.4,0-0.7-0.1-1.1-0.4c-0.2-0.3-0.3-0.7-0.3-1.2c0-0.4,0.2-0.8,0.5-1.2c0.3-0.3,0.7-0.4,1.2-0.4
	c0.3,0,0.6,0.1,0.8,0.2C393.3,193.9,393.4,194.1,393.5,194.4z"/>
<path class="st25" d="M393.8,193.5h0.8l0.5,2.2l0.8-2.2h0.8l-1.4,2.9l-0.2,0.5c-0.1,0.1-0.1,0.3-0.2,0.4c-0.1,0.1-0.1,0.2-0.2,0.2
	c-0.1,0.1-0.2,0.1-0.3,0.1c-0.1,0-0.3,0-0.4,0c-0.1,0-0.3,0-0.4,0v-0.6h0.3c0.2,0,0.3,0,0.4-0.2c0.1-0.1,0.2-0.3,0.2-0.4
	L393.8,193.5z"/>
<path class="st25" d="M399.6,196.6h-2.3l-0.1,0.8h-0.6l0.1-1.5h0.3c0.2-0.2,0.3-0.4,0.4-0.7c0.2-0.5,0.2-1.2,0.3-1.7h2.4l-0.2,2.4
	h0.3l-0.1,1.5h-0.6L399.6,196.6z M399.2,195.9l0.1-1.7h-0.9c0,0.6-0.2,1.2-0.5,1.7H399.2z"/>
<path class="st25" d="M401.6,194.5l-0.7-0.1c0.1-0.3,0.2-0.5,0.5-0.6c0.3-0.2,0.6-0.2,0.9-0.2c0.3,0,0.5,0,0.8,0.1
	c0.1,0.1,0.3,0.2,0.3,0.3c0.1,0.2,0.1,0.5,0,0.7l-0.1,0.9c0,0.2,0,0.4,0,0.6c0,0.1,0.1,0.3,0.1,0.4h-0.8c0-0.1,0-0.1-0.1-0.2v-0.1
	c-0.1,0.1-0.3,0.2-0.4,0.3c-0.2,0.1-0.3,0.1-0.5,0.1c-0.3,0-0.5-0.1-0.7-0.2c-0.2-0.2-0.2-0.4-0.2-0.6c0-0.2,0.1-0.3,0.2-0.4
	c0.1-0.1,0.2-0.2,0.3-0.3c0.2-0.1,0.4-0.1,0.6-0.2c0.3,0,0.5-0.1,0.8-0.2v-0.3c0-0.1,0-0.2-0.1-0.3c-0.1-0.1-0.3-0.1-0.4-0.1
	c-0.1,0-0.2,0-0.3,0.1C401.7,194.2,401.6,194.3,401.6,194.5z M402.7,195.1l-0.5,0.1c-0.1,0-0.3,0.1-0.4,0.1
	c-0.1,0.1-0.2,0.2-0.2,0.3s0,0.2,0.1,0.3c0.1,0.1,0.2,0.1,0.3,0.1s0.3-0.1,0.4-0.1c0.1-0.1,0.2-0.1,0.2-0.3c0-0.1,0.1-0.2,0.1-0.4
	V195.1z"/>
<path class="st25" d="M404.4,193.5h0.7v0.4c0.1-0.1,0.2-0.3,0.4-0.3c0.2-0.1,0.4-0.1,0.5-0.1c0.3,0,0.6,0.1,0.8,0.4
	c0.2,0.3,0.3,0.7,0.3,1.2s-0.2,0.8-0.5,1.2c-0.2,0.3-0.6,0.4-0.9,0.4c-0.1,0-0.3,0-0.4-0.1c-0.1-0.1-0.3-0.2-0.4-0.3l-0.1,1.6h-0.8
	L404.4,193.5z M405,195c0,0.3,0,0.5,0.1,0.7c0.1,0.1,0.3,0.2,0.5,0.2c0.2,0,0.3-0.1,0.5-0.2c0.2-0.2,0.2-0.5,0.2-0.7
	c0-0.2,0-0.5-0.1-0.7c-0.1-0.1-0.3-0.2-0.4-0.2c-0.2,0-0.4,0.1-0.5,0.2C405.1,194.5,405,194.7,405,195L405,195z"/>
<path class="st25" d="M410.6,194.4l-0.8,0.1c0-0.1-0.1-0.2-0.1-0.3c-0.1-0.1-0.2-0.1-0.3-0.1c-0.2,0-0.3,0.1-0.5,0.2
	c-0.3,0.4-0.3,0.9-0.1,1.5c0.1,0.1,0.3,0.2,0.4,0.2c0.1,0,0.3,0,0.4-0.1c0.1-0.1,0.2-0.3,0.2-0.4l0.8,0.1c-0.1,0.3-0.3,0.6-0.5,0.8
	c-0.3,0.2-0.6,0.3-0.9,0.3c-0.4,0-0.7-0.1-1.1-0.4c-0.2-0.3-0.3-0.7-0.3-1.2c0-0.4,0.2-0.8,0.5-1.2c0.3-0.3,0.7-0.4,1.2-0.4
	c0.3,0,0.6,0.1,0.8,0.2C410.4,193.9,410.6,194.1,410.6,194.4z"/>
<path class="st25" d="M410.9,193.5h2.7v0.6h-0.9l-0.2,2.4h-0.8l0.2-2.4h-0.9V193.5z"/>
<path class="st25" d="M414.1,193.5h1.8c0.3,0,0.5,0,0.8,0.2c0.2,0.1,0.2,0.4,0.2,0.6c0,0.2-0.1,0.3-0.2,0.4
	c-0.1,0.1-0.2,0.2-0.4,0.2c0.3,0.1,0.6,0.4,0.5,0.7c0,0.2-0.1,0.4-0.3,0.5c-0.2,0.2-0.5,0.2-0.8,0.2h-1.9L414.1,193.5z M414.9,194.8
	h0.5c0.2,0,0.4,0,0.5-0.1c0.1-0.1,0.2-0.2,0.2-0.3s0-0.2-0.1-0.3c-0.2-0.1-0.3-0.1-0.5-0.1H415L414.9,194.8z M414.8,196.1h0.6
	c0.2,0,0.3,0,0.5-0.1c0.1-0.1,0.2-0.2,0.2-0.3s0-0.2-0.2-0.3s-0.4-0.1-0.7-0.1h-0.4V196.1z"/>
<path class="st25" d="M419.3,195.5l0.8,0.1c-0.1,0.3-0.3,0.5-0.5,0.6c-0.2,0.2-0.5,0.2-0.8,0.2c-0.4,0-0.8-0.1-1.2-0.5
	c-0.2-0.3-0.2-0.7-0.2-1.1c0-0.4,0.2-0.8,0.5-1.2c0.3-0.3,0.6-0.4,1.1-0.4s0.8,0.1,1.1,0.4c0.3,0.4,0.3,0.9,0.3,1.4h-2
	c0,0.2,0,0.4,0.2,0.5c0.1,0.1,0.3,0.2,0.4,0.2s0.2,0,0.3-0.1C419.2,195.9,419.3,195.8,419.3,195.5z M419.4,194.8
	c0-0.2,0-0.4-0.1-0.5c-0.1-0.1-0.2-0.2-0.4-0.2c-0.2,0-0.3,0.1-0.4,0.2c-0.1,0.1-0.2,0.3-0.2,0.5H419.4z"/>
<path class="st25" d="M421,193.5h0.8l-0.1,1.2h1.2l0.1-1.2h0.8l-0.3,3.1h-0.8l0.1-1.3h-1.2l-0.1,1.3h-0.8L421,193.5z"/>
<path class="st25" d="M424.6,193.5h0.8l-0.1,1.2h1.2l0.1-1.2h0.8l-0.2,3.1h-0.8l0.1-1.3h-1.2l-0.1,1.3h-0.7L424.6,193.5z"/>
<path class="st25" d="M427.8,195c0-0.3,0.1-0.5,0.3-0.8c0.1-0.2,0.3-0.4,0.6-0.5c0.2-0.1,0.5-0.2,0.8-0.2c0.7,0,1.5,0.5,1.5,1.3
	c0,0.1,0,0.2,0,0.3c0,0.4-0.2,0.8-0.5,1.2c-0.3,0.3-0.7,0.4-1.2,0.4c-0.3,0-0.5-0.1-0.8-0.2c-0.2-0.1-0.4-0.3-0.5-0.5
	C427.8,195.6,427.8,195.3,427.8,195z M428.7,195c0,0.2,0,0.5,0.2,0.7c0.1,0.2,0.3,0.2,0.5,0.2s0.4-0.1,0.5-0.2
	c0.2-0.2,0.3-0.4,0.3-0.7c0-0.2,0-0.5-0.2-0.7c-0.1-0.2-0.3-0.2-0.5-0.2s-0.4,0.1-0.5,0.2C428.8,194.5,428.7,194.8,428.7,195
	L428.7,195z"/>
<path class="st25" d="M431.7,193.5h2.1v0.6h-1.3l-0.2,2.4h-0.8L431.7,193.5z"/>
<path class="st25" d="M433.8,195c0-0.3,0.1-0.5,0.3-0.8c0.1-0.2,0.3-0.4,0.6-0.5c0.2-0.1,0.5-0.2,0.8-0.2c0.7,0,1.5,0.5,1.5,1.3
	c0,0.1,0,0.2,0,0.3c-0.1,0.9-0.8,1.7-1.8,1.6c-0.2,0-0.4-0.1-0.6-0.2c-0.2-0.1-0.4-0.3-0.5-0.5C433.8,195.6,433.8,195.3,433.8,195z
	 M434.7,195c0,0.2,0,0.5,0.2,0.7c0.1,0.1,0.3,0.2,0.5,0.2s0.4-0.1,0.5-0.2c0.2-0.2,0.3-0.4,0.3-0.7c0-0.2,0-0.5-0.2-0.7
	c-0.1-0.2-0.3-0.2-0.5-0.2s-0.4,0.1-0.5,0.2C434.8,194.5,434.7,194.8,434.7,195L434.7,195z"/>
<path class="st25" d="M439.1,193.5h0.8l0.5,2.2l0.8-2.2h0.8l-1.4,2.9l-0.2,0.5c-0.1,0.1-0.1,0.3-0.2,0.4c-0.1,0.1-0.1,0.2-0.2,0.2
	c-0.1,0.1-0.2,0.1-0.3,0.1c-0.1,0-0.3,0-0.4,0c-0.1,0-0.3,0-0.4,0v-0.6c0.1,0,0.2,0,0.3,0c0.2,0,0.3,0,0.4-0.2
	c0.1-0.1,0.2-0.3,0.2-0.4L439.1,193.5z"/>
<path class="st25" d="M442.7,193.5h0.8l-0.1,1.2h1.2l0.1-1.2h0.8l-0.2,3.1h-0.8l0.1-1.3h-1.2l-0.1,1.3h-0.8L442.7,193.5z"/>
<path class="st25" d="M446.3,193.5h0.7l-0.2,1.9l1.4-1.9h0.8l-0.2,3.1h-0.7l0.2-1.9l-1.5,1.9h-0.7L446.3,193.5z"/>
<path class="st25" d="M450,193.5h1.8c0.3,0,0.5,0,0.8,0.2c0.2,0.1,0.2,0.4,0.2,0.6c0,0.2-0.1,0.3-0.2,0.4c-0.1,0.1-0.2,0.2-0.4,0.2
	c0.2,0,0.3,0.1,0.4,0.3c0.1,0.1,0.1,0.3,0.1,0.4c0,0.2-0.1,0.4-0.3,0.5c-0.2,0.2-0.5,0.2-0.8,0.2h-1.9L450,193.5z M450.7,194.8h0.5
	c0.2,0,0.4,0,0.5-0.1c0.1-0.1,0.2-0.2,0.2-0.3s0-0.2-0.1-0.3c-0.2-0.1-0.3-0.1-0.5-0.1h-0.5L450.7,194.8z M450.6,196.1h0.6
	c0.2,0,0.3,0,0.5-0.1c0.1-0.1,0.2-0.2,0.2-0.3s0-0.2-0.2-0.3s-0.4-0.1-0.7-0.1h-0.4V196.1z"/>
<path class="st25" d="M455.1,195.5l0.8,0.1c-0.2,0.5-0.8,0.9-1.4,0.9c-0.4,0-0.8-0.2-1.2-0.5c-0.2-0.3-0.3-0.7-0.2-1.1
	c0-0.4,0.2-0.8,0.5-1.2c0.3-0.3,0.6-0.4,1.1-0.4s0.8,0.1,1.1,0.4c0.3,0.4,0.3,0.9,0.3,1.4h-2c0,0.2,0,0.4,0.1,0.5
	c0.1,0.1,0.3,0.2,0.4,0.2c0.1,0,0.2,0,0.3-0.1C455,195.9,455.1,195.8,455.1,195.5z M455.2,194.8c0-0.2,0-0.4-0.1-0.5
	c-0.1-0.1-0.2-0.2-0.4-0.2s-0.3,0.1-0.4,0.2c-0.1,0.1-0.2,0.3-0.2,0.5H455.2z"/>
<path class="st25" d="M456.8,193.5h0.7v0.4c0.1-0.1,0.2-0.3,0.4-0.3c0.2-0.1,0.4-0.1,0.5-0.1c0.3,0,0.6,0.1,0.8,0.4
	c0.2,0.3,0.3,0.7,0.3,1.2s-0.2,0.8-0.5,1.2c-0.2,0.3-0.6,0.4-0.9,0.4c-0.1,0-0.3,0-0.4-0.1c-0.1-0.1-0.3-0.2-0.4-0.3l-0.1,1.6h-0.8
	L456.8,193.5z M457.4,195c0,0.2,0,0.5,0.1,0.7c0.1,0.2,0.3,0.2,0.5,0.2s0.3-0.1,0.5-0.2c0.2-0.2,0.2-0.4,0.2-0.7
	c0-0.2,0-0.5-0.1-0.7c-0.1-0.1-0.3-0.2-0.4-0.2c-0.2,0-0.4,0.1-0.5,0.2C457.6,194.5,457.4,194.7,457.4,195L457.4,195z"/>
<path class="st25" d="M463,194.4l-0.8,0.1c0-0.1-0.1-0.2-0.1-0.3c-0.1-0.1-0.2-0.1-0.3-0.1c-0.2,0-0.3,0.1-0.5,0.2
	c-0.1,0.2-0.2,0.4-0.2,0.7c0,0.2,0,0.5,0.1,0.7c0.1,0.1,0.3,0.2,0.4,0.2c0.1,0,0.3,0,0.4-0.1c0.1-0.1,0.2-0.3,0.2-0.4l0.8,0.1
	c-0.1,0.3-0.3,0.6-0.5,0.8c-0.3,0.2-0.6,0.3-0.9,0.3c-0.4,0-0.7-0.1-1.1-0.4c-0.2-0.3-0.4-0.7-0.3-1.2c0-0.4,0.2-0.8,0.5-1.2
	c0.3-0.3,0.7-0.4,1.2-0.4c0.3,0,0.6,0.1,0.8,0.2C462.8,193.9,463,194.2,463,194.4z"/>
<path class="st25" d="M463.7,193.5h0.7l-0.2,1.9l1.4-1.9h0.7l-0.2,3.1h-0.8l0.2-1.9l-1.5,1.9h-0.7L463.7,193.5z"/>
<path class="st25" d="M467,193.5h2.7v0.6h-0.9l-0.2,2.4h-0.8l0.2-2.4H467L467,193.5z"/>
<path class="st25" d="M471.9,195.5l0.8,0.1c-0.1,0.3-0.3,0.5-0.5,0.6c-0.2,0.2-0.5,0.2-0.8,0.2c-0.4,0-0.8-0.2-1.2-0.5
	c-0.2-0.3-0.3-0.7-0.2-1.1c0-0.4,0.2-0.8,0.5-1.2c0.3-0.3,0.6-0.4,1.1-0.4s0.8,0.1,1.1,0.4c0.2,0.4,0.3,0.9,0.3,1.4h-2
	c0,0.2,0,0.4,0.1,0.5c0.1,0.1,0.3,0.2,0.4,0.2c0.1,0,0.2,0,0.3-0.1C471.8,195.9,471.9,195.8,471.9,195.5z M472,194.8
	c0-0.2,0-0.4-0.1-0.5c-0.1-0.1-0.2-0.2-0.4-0.2s-0.3,0.1-0.4,0.2c-0.1,0.1-0.2,0.3-0.2,0.5H472z"/>
<path class="st25" d="M473.1,193.5h2.7v0.6h-0.9l-0.2,2.4h-0.8l0.2-2.4H473L473.1,193.5z"/>
<path class="st25" d="M476.9,194.5l-0.7-0.1c0.1-0.3,0.2-0.5,0.5-0.6c0.3-0.2,0.6-0.2,0.9-0.2s0.5,0,0.8,0.1
	c0.1,0.1,0.3,0.2,0.3,0.3c0.1,0.2,0.1,0.5,0,0.7l-0.1,0.9c0,0.2,0,0.4,0,0.6c0,0.1,0.1,0.3,0.1,0.4H478v-0.2v-0.1
	c-0.1,0.1-0.3,0.2-0.5,0.3s-0.3,0.1-0.5,0.1c-0.3,0-0.5-0.1-0.7-0.2c-0.2-0.2-0.2-0.4-0.2-0.6c0-0.2,0.1-0.3,0.2-0.4
	c0.1-0.1,0.2-0.2,0.4-0.3s0.4-0.1,0.6-0.2c0.3,0,0.5-0.1,0.8-0.2v-0.3c0-0.1,0-0.2-0.1-0.3c-0.1-0.1-0.3-0.1-0.4-0.1
	c-0.1,0-0.2,0-0.3,0.1C477,194.2,476.9,194.3,476.9,194.5z M478,195.1l-0.5,0.1c-0.1,0-0.3,0.1-0.4,0.1c-0.1,0.1-0.2,0.2-0.2,0.3
	s0,0.2,0.1,0.3s0.2,0.1,0.3,0.1c0.1,0,0.3-0.1,0.4-0.1c0.1-0.1,0.2-0.1,0.2-0.3c0-0.1,0.1-0.3,0.1-0.4V195.1z"/>
<path class="st25" d="M306.3,215.8h1.4c0-0.3-0.1-0.5-0.2-0.7c-0.2-0.2-0.4-0.3-0.7-0.3c-0.2,0-0.4,0.1-0.6,0.2
	c-0.2,0.1-0.3,0.3-0.4,0.5l-0.8-0.2c0.1-0.3,0.3-0.6,0.6-0.8c0.3-0.2,0.7-0.3,1.2-0.3c0.5,0,1.1,0.2,1.4,0.6
	c0.3,0.5,0.4,1.1,0.4,1.6c0,0.4-0.1,0.8-0.3,1.2s-0.4,0.5-0.7,0.7c-0.3,0.2-0.6,0.3-1.1,0.3c-0.8,0.1-1.6-0.5-1.7-1.3l0,0l0.8-0.3
	c0,0.2,0.1,0.5,0.3,0.6c0.2,0.1,0.4,0.2,0.6,0.2s0.5-0.1,0.6-0.3c0.2-0.2,0.3-0.5,0.4-0.8h-1.4L306.3,215.8z"/>
<path class="st25" d="M309.3,215.2h2.7l-0.2,3.1H311l0.2-2.4h-1.2l-0.1,1.4c0,0.2-0.1,0.5-0.2,0.7c-0.1,0.1-0.2,0.2-0.3,0.3
	c-0.1,0-0.3,0.1-0.5,0.1s-0.3,0-0.5,0v-0.6h0.3c0.1,0,0.2,0,0.2-0.1c0.1-0.2,0.1-0.4,0.1-0.6L309.3,215.2z"/>
<path class="st25" d="M314.4,217.2l0.8,0.1c-0.1,0.3-0.3,0.5-0.5,0.6c-0.2,0.2-0.5,0.2-0.8,0.2c-0.4,0-0.8-0.1-1.2-0.5
	c-0.2-0.3-0.2-0.7-0.2-1.1c0-0.4,0.2-0.8,0.5-1.2c0.3-0.3,0.6-0.4,1.1-0.4s0.8,0.1,1.1,0.4c0.2,0.4,0.3,0.9,0.3,1.4h-2
	c0,0.2,0,0.4,0.1,0.5c0.1,0.1,0.3,0.2,0.4,0.2c0.1,0,0.2,0,0.3-0.1C314.3,217.6,314.4,217.5,314.4,217.2z M314.5,216.4
	c0-0.2,0-0.4-0.1-0.5c-0.1-0.1-0.2-0.2-0.4-0.2c-0.2,0-0.3,0.1-0.4,0.2c-0.1,0.1-0.2,0.3-0.2,0.5H314.5z"/>
<path class="st25" d="M316.1,215.2h0.8l-0.1,1.3c0.1,0,0.2,0,0.3-0.1c0.1-0.1,0.2-0.3,0.2-0.4c0.1-0.2,0.2-0.4,0.4-0.5
	c0.1-0.1,0.3-0.1,0.5-0.1h0.3v0.5c-0.1,0-0.3,0-0.4,0.1c-0.1,0.1-0.2,0.2-0.2,0.3c-0.1,0.2-0.2,0.4-0.4,0.5c0.3,0.1,0.5,0.3,0.6,0.6
	v0.1l0.4,0.8h-0.8l-0.3-0.8c0-0.1-0.1-0.2-0.2-0.3c-0.1-0.1-0.2-0.1-0.3-0.1l-0.1,1.4H316L316.1,215.2z"/>
<path class="st25" d="M318.7,215.2h2.7v0.6h-0.9l-0.2,2.4h-0.8l0.2-2.4h-0.9L318.7,215.2z"/>
<path class="st25" d="M321.9,215.2h0.7v0.4c0.1-0.1,0.2-0.3,0.4-0.3c0.2-0.1,0.4-0.1,0.5-0.1c0.3,0,0.6,0.1,0.8,0.4
	c0.2,0.3,0.3,0.7,0.3,1.2c0,0.4-0.2,0.8-0.5,1.2c-0.2,0.3-0.6,0.4-0.9,0.4c-0.1,0-0.3,0-0.4-0.1c-0.1-0.1-0.3-0.2-0.4-0.3l-0.1,1.6
	h-0.8L321.9,215.2z M322.6,216.7c0,0.3,0,0.5,0.1,0.7c0.1,0.1,0.3,0.2,0.5,0.2s0.4-0.1,0.5-0.2c0.2-0.2,0.2-0.5,0.2-0.7
	s0-0.5-0.1-0.7c-0.1-0.1-0.3-0.2-0.4-0.2c-0.2,0-0.4,0.1-0.5,0.2C322.7,216.2,322.6,216.4,322.6,216.7z"/>
<path class="st25" d="M325.2,216.7c0-0.3,0.1-0.5,0.3-0.7c0.1-0.2,0.3-0.4,0.6-0.5c0.2-0.1,0.5-0.2,0.8-0.2c0.4,0,0.8,0.1,1.1,0.4
	c0.3,0.3,0.4,0.7,0.3,1.2c0,0.4-0.2,0.8-0.5,1.2c-0.3,0.3-0.7,0.4-1.2,0.4c-0.3,0-0.5-0.1-0.8-0.2c-0.2-0.1-0.4-0.3-0.5-0.5
	C325.2,217.4,325.2,217,325.2,216.7z M326.1,216.7c0,0.2,0,0.5,0.2,0.7c0.1,0.1,0.3,0.2,0.5,0.2s0.4-0.1,0.5-0.2
	c0.2-0.2,0.3-0.4,0.3-0.7c0-0.2,0-0.5-0.2-0.7c-0.1-0.1-0.3-0.2-0.5-0.2c-0.2,0-0.4,0.1-0.5,0.2
	C326.2,216.2,326.1,216.5,326.1,216.7L326.1,216.7z"/>
<path class="st25" d="M329.1,215.2h0.8l-0.1,1.2h1.2l0.1-1.2h0.8l-0.3,3.2h-0.8l0.1-1.3h-1.2l-0.1,1.3h-0.8L329.1,215.2z"/>
<path class="st25" d="M332.7,215.2h0.8l-0.1,1.2h1.2l0.1-1.2h0.8l-0.2,3.1h-0.8l0.1-1.3h-1.2l-0.1,1.3h-0.8L332.7,215.2z"/>
<path class="st25" d="M336.8,216.2l-0.7-0.1c0.1-0.3,0.2-0.5,0.5-0.6s0.6-0.2,0.9-0.2c0.3,0,0.5,0,0.8,0.1c0.1,0.1,0.3,0.2,0.3,0.3
	c0,0.2,0,0.5,0,0.7l-0.1,0.9c0,0.2,0,0.4,0,0.6c0,0.1,0.1,0.3,0.1,0.4H338c0,0,0-0.1-0.1-0.2v-0.1c-0.1,0.1-0.3,0.2-0.4,0.3
	c-0.2,0.1-0.3,0.1-0.5,0.1c-0.3,0-0.5-0.1-0.7-0.2c-0.2-0.2-0.2-0.4-0.2-0.6c0-0.2,0.1-0.3,0.2-0.4c0.1-0.1,0.2-0.2,0.4-0.3
	c0.2-0.1,0.4-0.1,0.6-0.2c0.3,0,0.5-0.1,0.8-0.2v-0.1c0-0.1,0-0.2-0.1-0.3c-0.1-0.1-0.3-0.1-0.4-0.1c-0.1,0-0.2,0-0.3,0.1
	C337,216,336.9,216.1,336.8,216.2z M337.9,216.8c-0.2,0.1-0.3,0.1-0.5,0.1c-0.1,0-0.3,0.1-0.4,0.1c-0.1,0.1-0.2,0.2-0.2,0.3
	s0,0.2,0.1,0.3s0.2,0.1,0.3,0.1c0.1,0,0.3,0,0.4-0.1c0.1-0.1,0.2-0.2,0.2-0.3s0.1-0.2,0.1-0.4V216.8z"/>
<path class="st25" d="M342.3,215.2l-0.2,3.1h-0.8l0.1-1.3h-0.1c-0.1,0-0.3,0-0.4,0.1c-0.1,0.1-0.2,0.2-0.3,0.3l-0.1,0.1l-0.6,0.8
	h-0.9l0.6-0.8c0.2-0.2,0.3-0.4,0.5-0.4c-0.2,0-0.4-0.1-0.5-0.3c-0.1-0.2-0.2-0.4-0.2-0.6c0-0.2,0.1-0.3,0.2-0.5
	c0.1-0.1,0.2-0.2,0.4-0.3c0.2-0.1,0.4-0.1,0.7-0.1H342.3z M341.3,215.8h-0.5c-0.2,0-0.3,0-0.4,0.1c-0.1,0.1-0.1,0.2-0.2,0.3
	c0,0.1,0,0.2,0.1,0.3c0.1,0.1,0.3,0.1,0.5,0.1h0.5V215.8z"/>
<path class="st25" d="M344.7,215.2h2.7l-0.2,3.1h-0.8l0.2-2.4h-1.1l-0.3,2.4h-0.8L344.7,215.2z"/>
<path class="st25" d="M348,216.7c0-0.3,0.1-0.5,0.3-0.8c0.1-0.2,0.3-0.4,0.6-0.5c0.2-0.1,0.5-0.2,0.8-0.2c0.4,0,0.7,0.1,1.1,0.4
	c0.3,0.3,0.4,0.7,0.3,1.2c0,0.4-0.2,0.8-0.5,1.2c-0.3,0.3-0.7,0.4-1.2,0.4c-0.3,0-0.5-0.1-0.8-0.2c-0.2-0.1-0.4-0.3-0.5-0.5
	C348,217.4,347.9,217,348,216.7z M348.8,216.7c0,0.2,0,0.5,0.2,0.7c0.1,0.1,0.3,0.2,0.5,0.2s0.4-0.1,0.5-0.2
	c0.2-0.2,0.3-0.4,0.3-0.7c0-0.2,0-0.5-0.2-0.7c-0.1-0.2-0.3-0.2-0.5-0.2s-0.4,0.1-0.5,0.2C348.9,216.2,348.8,216.5,348.8,216.7
	L348.8,216.7z"/>
<path class="st25" d="M351.7,215.2h0.8v0.7c0,0.1,0,0.2,0,0.4c0,0.1,0.1,0.2,0.2,0.2c0.1,0.1,0.2,0.1,0.3,0.1c0.2,0,0.3,0,0.5-0.1
	l0.1-1.3h0.8l-0.2,3.1h-0.8l0.1-1.3c-0.2,0.1-0.5,0.1-0.7,0.1s-0.4,0-0.6-0.2c-0.2-0.1-0.3-0.2-0.3-0.4c-0.1-0.2-0.1-0.4,0-0.6
	L351.7,215.2z"/>
<path class="st25" d="M354.8,215.2h2.7v0.6h-0.9l-0.2,2.4h-0.8l0.2-2.4h-0.9L354.8,215.2L354.8,215.2z"/>
<path class="st25" d="M358.6,216.2l-0.7-0.1c0.1-0.3,0.2-0.5,0.5-0.6c0.3-0.1,0.6-0.2,0.9-0.2c0.3,0,0.5,0,0.8,0.1
	c0.1,0.1,0.3,0.2,0.3,0.3c0.1,0.2,0.1,0.5,0,0.7l-0.1,0.9c0,0.2,0,0.4,0,0.6c0,0.1,0.1,0.3,0.1,0.4h-0.8c0-0.1,0-0.1-0.1-0.2v-0.1
	c-0.1,0.1-0.3,0.2-0.5,0.3c-0.2,0.1-0.3,0.1-0.5,0.1c-0.3,0-0.5-0.1-0.7-0.3c-0.2-0.2-0.2-0.4-0.2-0.6c0-0.2,0.1-0.3,0.2-0.4
	s0.2-0.2,0.3-0.3c0.2-0.1,0.4-0.1,0.6-0.2c0.3,0,0.5-0.1,0.8-0.2v-0.1c0-0.1,0-0.2-0.1-0.3c-0.1-0.1-0.3-0.1-0.4-0.1
	c-0.1,0-0.2,0-0.3,0.1C358.7,216,358.6,216.1,358.6,216.2z M359.7,216.9c-0.2,0-0.3,0.1-0.5,0.1c-0.1,0-0.3,0.1-0.4,0.1
	c-0.1,0.1-0.2,0.2-0.2,0.3s0,0.2,0.1,0.3c0.1,0.1,0.2,0.1,0.3,0.1c0.1,0,0.3,0,0.4-0.1c0.1-0.1,0.2-0.2,0.2-0.3s0.1-0.2,0.1-0.4
	V216.9z"/>
<path class="st27" d="M361.6,216l-0.4-0.3c0.1-0.1,0.3-0.3,0.4-0.4l0.1-0.1l-0.4-0.1l-0.3-0.1l0.2-0.5c0.2,0.1,0.4,0.2,0.6,0.3
	c0-0.2,0-0.5,0-0.7h0.5c0,0.1-0.1,0.4-0.1,0.7l0.3-0.1c0.2-0.1,0.3-0.1,0.5-0.2l0.1,0.5l-0.7,0.1l0.3,0.4c0.1,0.1,0.1,0.1,0.1,0.2
	l-0.4,0.3l-0.3-0.6C361.9,215.6,361.8,215.8,361.6,216z"/>
<path class="st28" d="M480.5,223.1H304.8v-0.9h175.7L480.5,223.1L480.5,223.1z M480.5,222.2c0.2,0,0.4,0.2,0.4,0.4
	c0,0.2-0.2,0.4-0.4,0.4V222.2z M482.5,224.5l-0.8-0.1v-0.5l0,0v-0.1l0,0l0,0l0,0l0,0l0,0l0,0l0,0l0,0l0,0l0,0l0,0l0,0l0,0l0,0l0,0
	l0,0h-0.1h-0.3v-0.9h0.3h0.1h0.1h0.1h0.1h0.1h0.1h0.1h0.1l0.1,0.1l0.1,0.1l0.1,0.1l0.1,0.1l0.1,0.1l0.1,0.1l0.1,0.1l0.1,0.1v0.1v0.1
	v0.1v0.1v0.1v0.1v0.1v0.1v0.1v0.4L482.5,224.5z M482.5,224.5c0,0.2-0.2,0.4-0.5,0.4l0,0c-0.2,0-0.4-0.2-0.4-0.5L482.5,224.5z
	 M480.5,232.7l1.1-8.3l0.8,0.1l-1.1,8.3L480.5,232.7z M481.5,232.8c0,0.2-0.3,0.4-0.5,0.4s-0.4-0.3-0.4-0.5L481.5,232.8z
	 M478.9,235.1v-0.8h0.3h0.1h0.1h0.1h0.1h0.1h0.1h0.1l0,0h0.1l0,0l0,0l0,0l0,0l0,0l0,0l0,0v-0.1V234v-0.1v-0.1v-0.1v-0.1v-0.1v-0.1
	v0.1v-0.1l0.9,0.1v0.1v0.1v0.1v0.1v0.1v0.1v0.1v0.1l-0.1,0.1v0.1l-0.1,0.1l-0.1,0.1l-0.1,0.1l-0.1,0.1l-0.1,0.1l-0.1,0.1l-0.1,0.1
	l-0.1,0.1l-0.1,0.1l-0.1,0.1h-0.1h-0.1h-0.1h-0.1h-0.1h-0.1h-0.1H479h-0.1h-0.3L478.9,235.1z M478.9,235.1c-0.2,0-0.4-0.2-0.4-0.4
	s0.2-0.4,0.4-0.4l0,0V235.1z M303.3,234.1H479v0.9H303.3V234.1z M303.3,235.1c-0.2,0-0.4-0.2-0.4-0.4s0.2-0.4,0.4-0.4V235.1z
	 M301.3,232.7l0.9,0.1v0.4l0,0l0,0v0.1l0,0l0,0l0,0l0,0l0,0l0,0l0,0l0,0l0,0l0,0l0,0l0,0l0,0l0,0l0,0h0.1l0,0h0.3v0.9h-0.3l0,0h-0.1
	h-0.1h-0.1h-0.1h-0.1h-0.1h-0.1l-0.1-0.1l-0.1-0.1l-0.1-0.1l-0.1-0.1l-0.1-0.1l-0.1-0.1l-0.1-0.1v-0.1v-0.1v-0.1v-0.1V233v-0.1v-0.1
	v-0.1v-0.6L301.3,232.7z M301.3,232.7c0-0.2,0.2-0.4,0.5-0.4c0.2,0,0.4,0.2,0.4,0.5c0,0,0,0,0,0.1L301.3,232.7z M303.2,224.5
	l-1.1,8.3l-0.8-0.1l1.1-8.3L303.2,224.5z M302.4,224.4c0-0.2,0.2-0.4,0.5-0.4c0.2,0,0.4,0.2,0.4,0.5c0,0,0,0,0,0.1L302.4,224.4z
	 M304.8,222.2v0.9h-0.3h-0.1h-0.1h-0.1h-0.1h-0.1h-0.1h-0.1h-0.1l0,0h-0.1l0,0l0,0l0,0l0,0l0,0v0.1l0,0v0.1v0.1v0.1v0.1v0.1v0.1v0.1
	v0.1v0.1l-0.8-0.1V224v-0.1v-0.1v-0.1v-0.1v-0.1v-0.1v-0.1v-0.3l0.1-0.1l0.1-0.1l0.1-0.1l0.1-0.1l0.1-0.1l0.1-0.1l0.1-0.1l0.1-0.1
	l0.1-0.1l0.1-0.1l0.1-0.1h0.1h0.1h0.1h0.1h0.1h0.1h0.1h0.1h0.1h0.3L304.8,222.2z M304.8,222.2c0.2,0,0.4,0.2,0.4,0.4
	c0,0.2-0.2,0.4-0.4,0.4l0,0V222.2z"/>
<path class="st29" d="M304.8,222.6h175.7c0.8,0,1.6,0.6,1.6,1.5c0,0.1,0,0.2,0,0.3l-1.1,8.3c-0.1,0.9-1.1,1.8-2,1.8H303.3
	c-0.8,0-1.6-0.6-1.6-1.5c0-0.1,0-0.2,0-0.3l1.1-8.3C303,223.5,303.8,222.7,304.8,222.6z"/>
<path class="st28" d="M302.1,241.5h3.4l-0.3,4.2h-0.8l0.3-3.5h-1.7l-0.3,3.5h-0.8L302.1,241.5z"/>
<path class="st28" d="M306.7,243.6l-0.7-0.1c0.1-0.3,0.2-0.5,0.5-0.6c0.3-0.1,0.6-0.2,0.9-0.2c0.3,0,0.5,0,0.8,0.1
	c0.1,0.1,0.3,0.2,0.3,0.3c0,0.2,0,0.5,0,0.7v0.8c0,0.2,0,0.4,0,0.6c0,0.1,0,0.3,0.1,0.4h-0.8c0-0.1,0-0.1-0.1-0.2v-0.1
	c-0.1,0.1-0.3,0.2-0.4,0.3c-0.2,0.1-0.3,0.1-0.5,0.1c-0.3,0-0.5-0.1-0.7-0.3c-0.2-0.2-0.2-0.4-0.2-0.6c0-0.2,0.1-0.3,0.1-0.4
	c0.1-0.1,0.2-0.2,0.4-0.3c0.2-0.1,0.4-0.1,0.6-0.2c0.3,0,0.5-0.1,0.8-0.2v-0.1c0-0.1,0-0.2-0.1-0.3s-0.3-0.1-0.4-0.1
	c-0.1,0-0.2,0-0.3,0.1C306.8,243.4,306.7,243.5,306.7,243.6z M307.7,244.3l-0.5,0.1c-0.1,0-0.3,0.1-0.4,0.1
	c-0.1,0.1-0.2,0.2-0.2,0.3c0,0.1,0,0.2,0.1,0.3c0.1,0.1,0.2,0.1,0.3,0.1c0.1,0,0.3,0,0.4-0.1c0.1-0.1,0.2-0.2,0.2-0.3
	c0-0.1,0.1-0.2,0.1-0.4V244.3z"/>
<path class="st28" d="M309.4,242.6h0.7v0.4c0.1-0.1,0.2-0.3,0.4-0.3c0.2-0.1,0.4-0.1,0.5-0.1c0.3,0,0.6,0.1,0.8,0.4
	c0.2,0.3,0.3,0.7,0.3,1.2c0,0.4-0.2,0.8-0.5,1.2c-0.2,0.3-0.6,0.4-0.9,0.4c-0.1,0-0.3,0-0.4-0.1c-0.1-0.1-0.3-0.2-0.4-0.3l-0.1,1.6
	H309L309.4,242.6z M310.1,244.1c0,0.2,0,0.5,0.1,0.7c0.1,0.2,0.3,0.2,0.5,0.2s0.3-0.1,0.5-0.2c0.2-0.2,0.2-0.4,0.2-0.7
	c0-0.2,0-0.5-0.1-0.7c-0.1-0.1-0.3-0.2-0.4-0.2c-0.2,0-0.4,0.1-0.5,0.2C310.2,243.6,310.1,243.9,310.1,244.1L310.1,244.1z"/>
<path class="st28" d="M312.7,244.1c0-0.3,0.1-0.5,0.3-0.7c0.1-0.2,0.3-0.4,0.6-0.5c0.2-0.1,0.5-0.2,0.8-0.2c0.4,0,0.8,0.1,1.1,0.4
	c0.3,0.3,0.4,0.7,0.3,1.2c0,0.4-0.2,0.8-0.5,1.2c-0.3,0.3-0.7,0.4-1.2,0.4c-0.3,0-0.5-0.1-0.8-0.2c-0.2-0.1-0.4-0.3-0.5-0.5
	C312.8,244.7,312.7,244.4,312.7,244.1z M313.5,244.1c0,0.2,0,0.5,0.1,0.7c0.1,0.2,0.3,0.2,0.5,0.2s0.4-0.1,0.5-0.2
	c0.2-0.2,0.3-0.4,0.3-0.7c0-0.2,0-0.5-0.2-0.7c-0.1-0.2-0.3-0.2-0.5-0.2s-0.4,0.1-0.5,0.2C313.6,243.6,313.5,243.9,313.5,244.1
	L313.5,244.1z"/>
<path class="st28" d="M316.8,242.6h2.7l-0.2,3.1h-0.8l0.2-2.4h-1.1l-0.1,1.4c0,0.2-0.1,0.5-0.2,0.7c-0.1,0.1-0.2,0.2-0.3,0.3
	c-0.1,0.1-0.3,0.1-0.5,0.1s-0.3,0-0.5,0v-0.6h0.3c0.1,0,0.2,0,0.2-0.1c0.1-0.2,0.1-0.4,0.1-0.6L316.8,242.6z"/>
<path class="st28" d="M320.3,242.6h0.8l-0.1,1.3h0.8c0.2,0,0.5,0,0.7,0.1c0.2,0,0.3,0.1,0.4,0.3c0.2,0.4,0.1,0.9-0.2,1.2
	s-0.6,0.2-0.9,0.2h-1.7L320.3,242.6z M320.9,245.2h0.7c0.2,0,0.3,0,0.4-0.1c0.1-0.1,0.1-0.2,0.1-0.3c0-0.1,0-0.2-0.1-0.3
	c-0.2-0.1-0.4-0.1-0.6-0.1h-0.5V245.2z"/>
<path class="st27" d="M324.2,243.4l-0.4-0.3l0.5-0.4l0.1-0.1l-0.4-0.1l-0.3-0.1l0.2-0.5c0.2,0.1,0.4,0.2,0.6,0.3c0-0.2,0-0.5,0-0.7
	h0.5c0,0.2-0.1,0.5-0.1,0.7l0.2-0.1l0.5-0.2l0.1,0.5l-0.7,0.1l0.3,0.4l0.1,0.2l-0.4,0.3l-0.3-0.6C324.5,243,324.3,243.2,324.2,243.4
	z"/>
<path class="st28" d="M477.4,250.5H301.6v-0.9h175.7L477.4,250.5L477.4,250.5z M477.4,249.6c0.2,0,0.4,0.2,0.4,0.4
	c0,0.2-0.2,0.4-0.4,0.4V249.6z M479.4,251.9l-0.8-0.1v-0.5l0,0l0,0l0,0l0,0l0,0l0,0l0,0l0,0l0,0l0,0l0,0l0,0l0,0l0,0l0,0l0,0l0,0
	l0,0h-0.1h-0.3v-0.9h0.2h0.1h0.1h0.1h0.1h0.1h0.1h0.1h0.1h0.1l0.1,0.1l0.1,0.1l0.1,0.1l0.1,0.1l0.1,0.1l0.1,0.1l0.1,0.1v0.1l0.1,0.1
	v0.1v0.1v0.1v0.1v0.1v0.1v0.6L479.4,251.9z M479.4,251.9c0,0.2-0.2,0.4-0.4,0.4c-0.2,0-0.4-0.2-0.4-0.4c0,0,0,0,0-0.1L479.4,251.9z
	 M477.4,260.1l1.1-8.3l0.8,0.1l-1.1,8.3L477.4,260.1z M478.3,260.2c0,0.2-0.2,0.4-0.5,0.4l0,0c-0.2,0-0.4-0.3-0.4-0.5L478.3,260.2z
	 M475.8,262.4v-0.9h0.3h0.1h0.1h0.1h0.1h0.1h0.1l0,0h0.1h0.1h0.1l0,0l0,0l0,0l0,0l0,0l0,0v-0.1l0,0v-0.1v-0.1v-0.1V261v-0.1v-0.1
	v0.1v-0.1v-0.1l0.8,0.1v0.1v0.1v0.1v0.1v0.1v0.1v0.1v0.1v0.1l-0.1,0.1l-0.1,0.1l-0.1,0.1l-0.1,0.1l-0.1,0.1l-0.1,0.1l-0.1,0.1
	l-0.1,0.1l-0.1,0.1l-0.1,0.1l-0.1,0.1h-0.1h-0.1h-0.1h-0.1h-0.1h0h-0.1H476h-0.1h-0.3L475.8,262.4z M475.8,262.4
	c-0.2,0-0.4-0.2-0.4-0.4c0-0.2,0.2-0.4,0.4-0.4V262.4z M300.2,261.5h175.7v0.9H300.2V261.5L300.2,261.5z M300.2,262.4
	c-0.2,0-0.4-0.3-0.4-0.5s0.2-0.3,0.4-0.4V262.4z M298.2,260.1l0.8,0.1v0.4v0.1l0,0l0,0l0,0l0,0l0,0l0,0l0,0l0,0l0,0l0,0l0,0l0,0l0,0
	l0,0l0,0l0,0l0,0l0,0h0.1h0.1h0.2v0.9h-0.2h-0.1h0.1h-0.1H299h-0.1h-0.1h-0.1h-0.1l-0.1-0.1l-0.1-0.1l-0.1-0.1l-0.1-0.1l-0.1-0.1
	l-0.1-0.1l-0.1-0.1l-0.1-0.1v-0.1l-0.1-0.1v-0.1v0.3v-0.1v-0.1v-0.1v-0.1v-0.6L298.2,260.1z M298.2,260.1c0-0.2,0.2-0.4,0.4-0.4
	c0.2,0,0.4,0.2,0.4,0.4c0,0,0,0,0,0.1L298.2,260.1z M300.2,251.9l-1.1,8.3l-0.9-0.1l1.1-8.3L300.2,251.9z M299.2,251.8
	c0-0.2,0.2-0.4,0.5-0.4l0,0c0.2,0,0.4,0.2,0.4,0.5L299.2,251.8z M301.6,249.6v0.9h-0.3l0,0h-0.1h-0.1H301h-0.1h-0.1h-0.1h-0.1h-0.1
	l0,0l0,0l0,0l0,0l0,0v0.1l0,0v0.1l0,0v0.1v0.1v0.1v0.1v0.1v0.1v0.1v0.1l-0.9-0.1v-0.1v-0.1v-0.1v-0.1V251v-0.1v-0.1v-0.1v-0.1
	l0.1-0.1l0.1-0.1l0.1-0.1l0.1-0.1l0.1-0.1l0.1-0.1l0.1-0.1l0.1-0.1l0.1-0.1l0.1-0.1h0.1l0.1-0.1h0.1h0.1h0.1h0.1h0.1h0.1h0.1h0.1
	h0.1h0.2L301.6,249.6z M301.6,249.6c0.2,0,0.4,0.2,0.4,0.4c0,0.2-0.2,0.4-0.4,0.4V249.6z"/>
<path class="st29" d="M301.6,250.1h175.7c0.8,0,1.6,0.6,1.6,1.5c0,0.1,0,0.2,0,0.3l-1.1,8.3c-0.1,0.9-1.1,1.8-2,1.8H300.2
	c-0.8,0-1.6-0.6-1.6-1.5c0-0.1,0-0.2,0-0.3l1.1-8.3C299.8,250.9,300.7,250.1,301.6,250.1z"/>
<path class="st26" d="M298.4,266.6l10.5,0.1l-1.2,6.1h-10.4L298.4,266.6z"/>
<path class="st28" d="M313.1,268.4l-0.8-0.2c0.2-0.7,0.8-1.2,1.6-1.1c0.4,0,0.7,0.1,1.1,0.3c0.2,0.2,0.3,0.5,0.3,0.7
	s-0.1,0.4-0.2,0.5c-0.1,0.2-0.3,0.3-0.5,0.4c0.2,0.1,0.4,0.2,0.6,0.4c0.1,0.2,0.2,0.4,0.1,0.6c0,0.3-0.2,0.6-0.5,0.8
	c-0.3,0.2-0.8,0.4-1.3,0.3c-0.3,0-0.7,0-1.1-0.2s-0.4-0.5-0.5-0.8l0.8-0.2c0,0.2,0.1,0.4,0.3,0.5c0.1,0.1,0.3,0.1,0.5,0.1
	s0.4,0,0.6-0.2c0.1-0.1,0.2-0.2,0.2-0.4c0-0.2,0-0.3-0.2-0.4c-0.2-0.1-0.4-0.2-0.6-0.2h-0.2v-0.6h0.1c0.2,0,0.4,0,0.6-0.2
	c0.1-0.1,0.2-0.3,0.2-0.4c0-0.1,0-0.3-0.1-0.4c-0.1-0.1-0.3-0.2-0.5-0.2C313.4,267.9,313.2,268.1,313.1,268.4z"/>
<path class="st28" d="M316.8,269.4l-0.7-0.1c0.1-0.3,0.2-0.5,0.5-0.6c0.3-0.1,0.6-0.2,0.9-0.2c0.3,0,0.5,0,0.8,0.1
	c0.1,0.1,0.3,0.2,0.3,0.3c0.1,0.2,0.1,0.5,0,0.7l-0.1,0.9c0,0.2,0,0.4,0,0.6c0,0.1,0.1,0.3,0.1,0.4h-0.8c0-0.1,0-0.1-0.1-0.2v-0.1
	c-0.1,0.1-0.3,0.2-0.5,0.3s-0.3,0.1-0.5,0.1c-0.3,0-0.5-0.1-0.7-0.3c-0.2-0.2-0.2-0.4-0.2-0.6s0.1-0.3,0.2-0.4
	c0.1-0.1,0.2-0.2,0.3-0.3c0.2-0.1,0.4-0.1,0.6-0.2c0.3,0,0.5-0.1,0.8-0.2v-0.1c0-0.1,0-0.2-0.1-0.3c-0.1-0.1-0.3-0.1-0.4-0.1
	c-0.1,0-0.2,0-0.3,0.1C316.9,269.2,316.8,269.3,316.8,269.4z M317.9,270.1c-0.2,0-0.3,0.1-0.5,0.1c-0.1,0-0.3,0.1-0.4,0.1
	c-0.1,0.1-0.2,0.2-0.2,0.3s0,0.2,0.1,0.3c0.1,0.1,0.2,0.1,0.3,0.1c0.1,0,0.3,0,0.4-0.1c0.1-0.1,0.2-0.2,0.2-0.3
	c0-0.1,0.1-0.2,0.1-0.4V270.1z"/>
<path class="st28" d="M319.4,268.4h2.7l-0.2,3.1h-0.8l0.2-2.4h-1.1l-0.2,2.4h-0.8L319.4,268.4z"/>
<path class="st28" d="M322.8,269.9c0-0.3,0.1-0.5,0.3-0.7c0.1-0.2,0.3-0.4,0.6-0.5c0.2-0.1,0.5-0.2,0.8-0.2c0.4,0,0.8,0.1,1.1,0.4
	c0.3,0.3,0.4,0.7,0.3,1.2c0,0.4-0.2,0.8-0.5,1.2c-0.3,0.3-0.7,0.4-1.2,0.4c-0.3,0-0.5-0.1-0.8-0.2c-0.2-0.1-0.4-0.3-0.5-0.5
	C322.8,270.6,322.7,270.2,322.8,269.9z M323.6,269.9c0,0.2,0,0.5,0.1,0.7c0.1,0.1,0.3,0.2,0.5,0.2s0.4-0.1,0.5-0.2
	c0.2-0.2,0.3-0.4,0.3-0.7c0-0.2,0-0.5-0.2-0.7c-0.1-0.2-0.3-0.2-0.5-0.2s-0.4,0.1-0.5,0.2C323.6,269.5,323.6,269.7,323.6,269.9
	L323.6,269.9z"/>
<path class="st28" d="M326.6,268.4h1.1l0.5,2.1l0.9-2.1h1.1l-0.2,3.1h-0.7l0.2-2l-0.9,2h-0.7l-0.5-2l-0.2,2h-0.7L326.6,268.4z"/>
<path class="st28" d="M331,268.4h0.8l-0.1,1.2h1.2l0.1-1.2h0.8l-0.2,3.1h-0.8l0.1-1.3h-1.2l-0.1,1.3h-0.8L331,268.4z"/>
<path class="st28" d="M334.6,268.4h0.8l-0.2,1.9l1.4-1.9h0.8l-0.2,3.1h-0.7l0.2-1.9l-1.4,1.9h-0.8L334.6,268.4z"/>
<path class="st28" d="M337.9,268.4h2.7v0.6h-0.9l-0.2,2.4h-0.8l0.2-2.4h-0.9L337.9,268.4L337.9,268.4z"/>
<path class="st28" d="M341.1,268.4h0.8l-0.1,1.3h0.8c0.2,0,0.5,0,0.7,0.1c0.2,0,0.3,0.1,0.4,0.3c0.1,0.1,0.1,0.3,0.1,0.5
	c0,0.3-0.1,0.5-0.3,0.6c-0.3,0.2-0.6,0.2-0.9,0.2h-1.8L341.1,268.4z M341.8,271h0.7c0.2,0,0.3,0,0.5-0.1c0.1-0.1,0.1-0.2,0.1-0.3
	s0-0.2-0.1-0.3c-0.2-0.1-0.4-0.1-0.6-0.1h-0.5L341.8,271z"/>
<path class="st28" d="M346.4,268.4h1.1l0.5,2.1l0.9-2.1h1.1l-0.2,3.1H349l0.2-2l-0.9,2h-0.6l-0.5-2l-0.2,2h-0.7L346.4,268.4z"/>
<path class="st28" d="M352.4,270.6l0.8,0.1c-0.1,0.3-0.3,0.5-0.5,0.6c-0.2,0.2-0.5,0.2-0.8,0.2c-0.4,0-0.8-0.2-1.2-0.5
	c-0.2-0.3-0.3-0.7-0.2-1.1c0-0.4,0.2-0.8,0.5-1.2s0.6-0.4,1.1-0.4c0.4,0,0.8,0.1,1.1,0.4c0.2,0.4,0.3,0.9,0.3,1.4h-2
	c0,0.2,0,0.4,0.1,0.5c0.1,0.1,0.3,0.2,0.4,0.2c0.1,0,0.2,0,0.3-0.1C352.3,270.9,352.4,270.8,352.4,270.6z M352.5,269.7
	c0-0.2,0-0.4-0.1-0.5c-0.1-0.1-0.2-0.2-0.4-0.2c-0.2,0-0.3,0.1-0.4,0.2c-0.1,0.1-0.2,0.3-0.2,0.5H352.5z"/>
<path class="st28" d="M354.1,268.4h0.7l-0.1,1.2h1.2l0.1-1.2h0.8l-0.2,3.1h-0.8l0.1-1.3h-1.2l-0.1,1.3h-0.8L354.1,268.4z"/>
<path class="st28" d="M360.3,268.6l-0.2,3.1h-0.8l0.1-1.3h-0.1c-0.1,0-0.3,0-0.4,0.1c-0.1,0.1-0.2,0.2-0.3,0.3v0.1l-0.6,0.8h-1.1
	l0.6-0.8c0.1-0.2,0.3-0.3,0.5-0.4c-0.2,0-0.4-0.1-0.5-0.2c-0.1-0.2-0.2-0.4-0.2-0.6s0.1-0.3,0.2-0.5c0.1-0.1,0.2-0.2,0.4-0.3
	s0.4-0.1,0.7-0.1h1.7V268.6z M359.5,269h-0.5c-0.2,0-0.3,0-0.4,0.1c-0.1,0.1-0.1,0.2-0.1,0.3c0,0.1,0,0.2,0.1,0.3
	c0.1,0.1,0.3,0.1,0.5,0.1h0.5L359.5,269z"/>
<path class="st30" d="M300.8,268l2.3,3.6l2.6-3.7"/>
<path class="st31" d="M366,305.1h3.9c0.6,0,1.2,0,1.8,0.1c0.3,0.1,0.7,0.2,0.9,0.4c0.3,0.2,0.5,0.5,0.7,0.8c0.2,0.3,0.2,0.7,0.2,1.2
	c0,0.4-0.2,0.8-0.5,1.3c-0.3,0.4-0.6,0.6-1.1,0.8c0.5,0.1,0.9,0.4,1.3,0.8c0.3,0.4,0.4,0.9,0.3,1.5c0,0.4-0.2,0.9-0.4,1.3
	c-0.2,0.4-0.5,0.7-0.9,1.1c-0.4,0.3-0.8,0.4-1.4,0.4c-0.3,0-1.2,0.1-2.4,0.1h-3.4L366,305.1L366,305.1z M367.8,306.8l-0.2,2.2h1.3
	c0.7,0,1.3,0,1.5,0c0.3,0,0.6-0.1,0.8-0.3c0.2-0.2,0.3-0.5,0.3-0.7s0-0.5-0.2-0.7s-0.4-0.3-0.7-0.3c-0.2,0-0.7,0-1.7,0L367.8,306.8z
	 M367.5,310.7l-0.2,2.6h1.9c0.4,0,0.9,0,1.4-0.1c0.3,0,0.5-0.2,0.7-0.4c0.2-0.2,0.3-0.5,0.3-0.8c0-0.2,0-0.5-0.2-0.7
	c-0.1-0.2-0.3-0.3-0.5-0.4c-0.5-0.1-1.2-0.2-1.8-0.1H367.5z"/>
<path class="st31" d="M373.6,314.9l3.8-5.1l-2.7-4.6h2.3l1.7,2.9l2.2-2.9h2.3l-3.5,4.6l2.9,5.1h-2.4l-1.9-3.4l-2.4,3.4H373.6z"/>
<path class="st31" d="M383.4,310.2c0-0.8,0.3-1.7,0.6-2.5c0.3-0.5,0.6-0.9,1.1-1.4c0.4-0.4,0.8-0.6,1.4-0.8c0.6-0.3,1.4-0.4,2.1-0.4
	c1.3-0.1,2.5,0.4,3.4,1.4c0.8,1.1,1.2,2.4,1.1,3.7c-0.1,1.4-0.6,2.7-1.6,3.7c-0.9,0.9-2.2,1.4-3.6,1.4c-1.3,0.1-2.5-0.4-3.4-1.4
	C383.5,312.8,383.2,311.4,383.4,310.2L383.4,310.2z M385.4,310.1c-0.1,0.8,0.1,1.8,0.5,2.5c0.4,0.5,1.2,0.8,1.9,0.8
	c0.7,0,1.5-0.3,2-0.8c0.6-0.7,0.9-1.6,0.9-2.5c0.1-0.8,0-1.8-0.5-2.5c-0.4-0.5-1.2-0.8-1.9-0.8c-0.7,0-1.6,0.3-2.1,0.8
	C385.7,308.3,385.4,309.1,385.4,310.1L385.4,310.1z"/>
<path class="st31" d="M395.5,305.1h6.7l-0.6,8.1h0.8l-0.3,3.8h-1.7l0.2-2.1h-6.2l-0.2,2.1h-1.7l0.3-3.8h0.8c0.5-0.9,0.8-1.9,1.1-2.9
	c0.2-1.4,0.4-2.8,0.5-4.2L395.5,305.1L395.5,305.1z M397.2,306.8c-0.1,2.2-0.5,4.4-1.4,6.5h3.7l0.5-6.4L397.2,306.8z"/>
</svg>
