<svg width="500" height="500" viewBox="0 0 500 500" fill="none" xmlns="http://www.w3.org/2000/svg">
<path d="M500 382.4H0V382.65H500V382.4Z" fill="#EBEBEB"/>
<path d="M388.45 389.91H355.33V390.16H388.45V389.91Z" fill="#EBEBEB"/>
<path d="M302 398.37H257.97V398.62H302V398.37Z" fill="#EBEBEB"/>
<path d="M434.24 399.19H389.46V399.44H434.24V399.19Z" fill="#EBEBEB"/>
<path d="M96.8799 389.66H53.6899V389.91H96.8799V389.66Z" fill="#EBEBEB"/>
<path d="M112.12 389.66H105.79V389.91H112.12V389.66Z" fill="#EBEBEB"/>
<path d="M226.38 393.88H132.7V394.13H226.38V393.88Z" fill="#EBEBEB"/>
<path d="M237 337.8H43.91C42.3973 337.797 40.9475 337.195 39.8788 336.124C38.8102 335.053 38.21 333.603 38.21 332.09V60.66C38.2231 59.156 38.8292 57.718 39.8964 56.6582C40.9637 55.5985 42.4059 55.0026 43.91 55H237C238.514 55 239.967 55.6016 241.038 56.6724C242.108 57.7433 242.71 59.1956 242.71 60.71V332.09C242.71 333.604 242.108 335.057 241.038 336.128C239.967 337.198 238.514 337.8 237 337.8ZM43.91 55.2C42.4636 55.2026 41.0774 55.7791 40.0556 56.8027C39.0338 57.8264 38.46 59.2136 38.46 60.66V332.09C38.46 333.536 39.0338 334.924 40.0556 335.947C41.0774 336.971 42.4636 337.547 43.91 337.55H237C238.447 337.547 239.834 336.971 240.858 335.948C241.881 334.924 242.457 333.537 242.46 332.09V60.66C242.457 59.2127 241.881 57.8255 240.858 56.8021C239.834 55.7787 238.447 55.2026 237 55.2H43.91Z" fill="#EBEBEB"/>
<path d="M453.31 337.8H260.21C258.696 337.797 257.246 337.195 256.175 336.125C255.105 335.054 254.503 333.604 254.5 332.09V60.66C254.516 59.1551 255.124 57.7171 256.193 56.6576C257.262 55.5981 258.705 55.0025 260.21 55H453.31C454.812 55.0052 456.252 55.6022 457.317 56.6617C458.382 57.7212 458.987 59.1578 459 60.66V332.09C459 333.601 458.401 335.05 457.335 336.121C456.268 337.191 454.821 337.795 453.31 337.8ZM260.21 55.2C258.763 55.2026 257.375 55.7787 256.352 56.8021C255.329 57.8255 254.753 59.2127 254.75 60.66V332.09C254.753 333.537 255.329 334.924 256.352 335.948C257.375 336.971 258.763 337.547 260.21 337.55H453.31C454.757 337.547 456.145 336.971 457.168 335.948C458.191 334.924 458.767 333.537 458.77 332.09V60.66C458.767 59.2127 458.191 57.8255 457.168 56.8021C456.145 55.7787 454.757 55.2026 453.31 55.2H260.21Z" fill="#EBEBEB"/>
<path d="M207.15 284.93H86.26V113.82C86.26 100.19 207.15 100.19 207.15 113.82V284.93Z" fill="#E0E0E0"/>
<path d="M204.37 284.93H83.49V113.82C83.49 100.19 204.38 100.19 204.37 113.82V284.93Z" fill="#EBEBEB"/>
<path d="M89.49 276.34V117.2C89.4877 116.666 89.6509 116.145 89.9572 115.708C90.2634 115.271 90.6976 114.94 91.2 114.76C97.91 112.34 116.2 109.6 143.93 109.6C171.66 109.6 189.93 112.34 196.66 114.76C197.162 114.94 197.597 115.271 197.903 115.708C198.209 116.145 198.372 116.666 198.37 117.2V276.34C198.371 276.68 198.306 277.016 198.176 277.33C198.047 277.645 197.858 277.93 197.618 278.171C197.378 278.411 197.093 278.602 196.78 278.733C196.466 278.863 196.13 278.93 195.79 278.93H92.07C91.7304 278.93 91.3941 278.863 91.0804 278.733C90.7667 278.602 90.4818 278.411 90.2421 278.171C90.0024 277.93 89.8126 277.645 89.6835 277.33C89.5545 277.016 89.4887 276.68 89.49 276.34Z" fill="#FAFAFA"/>
<path d="M115 110.75L96.1899 278.93H123.72L142.72 109.6C132 109.63 122.74 110.08 115 110.75Z" fill="white"/>
<path d="M150.64 109.66L131.64 278.93H146.85L165.77 110.23C161.18 110 156.12 109.75 150.64 109.66Z" fill="white"/>
<path d="M167.21 281.15V107.01H161.93V281.15H167.21Z" fill="#EBEBEB"/>
<path d="M124.69 281.15L124.69 107.01H119.41L119.41 281.15H124.69Z" fill="#EBEBEB"/>
<path d="M125.64 281.16L125.64 107.02H124.69L124.69 281.16H125.64Z" fill="#E0E0E0"/>
<path d="M168.16 281.16V107.02H167.21V281.16H168.16Z" fill="#E0E0E0"/>
<path d="M200.31 145.38H86.3101V150.66H200.31V145.38Z" fill="#EBEBEB"/>
<path d="M201.31 283.32H77.98V289.15H201.31V283.32Z" fill="#F5F5F5"/>
<path d="M201.31 289.15H207.15V283.32H201.31V289.15Z" fill="#E0E0E0"/>
<path d="M422 284.93H301.13V113.82C301.13 100.19 422.02 100.19 422.02 113.82L422 284.93Z" fill="#E0E0E0"/>
<path d="M419.24 284.93H298.36V113.82C298.36 100.19 419.24 100.19 419.24 113.82V284.93Z" fill="#EBEBEB"/>
<path d="M304.36 276.34V117.2C304.358 116.666 304.521 116.145 304.827 115.708C305.133 115.271 305.568 114.94 306.07 114.76C312.78 112.34 331.07 109.6 358.8 109.6C386.53 109.6 404.8 112.34 411.53 114.76C412.032 114.94 412.467 115.271 412.773 115.708C413.079 116.145 413.242 116.666 413.24 117.2V276.34C413.241 276.68 413.176 277.016 413.047 277.33C412.917 277.645 412.728 277.93 412.488 278.171C412.248 278.411 411.963 278.602 411.65 278.733C411.336 278.863 411 278.93 410.66 278.93H306.94C306.6 278.93 306.264 278.863 305.95 278.733C305.637 278.602 305.352 278.411 305.112 278.171C304.872 277.93 304.683 277.645 304.554 277.33C304.424 277.016 304.359 276.68 304.36 276.34Z" fill="#FAFAFA"/>
<path d="M329.91 110.75L311.06 278.93H338.59L357.59 109.6C346.87 109.63 337.61 110.08 329.91 110.75Z" fill="white"/>
<path d="M365.51 109.66L346.51 278.93H361.72L380.64 110.23C376.05 110 371 109.75 365.51 109.66Z" fill="white"/>
<path d="M382.07 281.15V107.01H376.79V281.15H382.07Z" fill="#EBEBEB"/>
<path d="M339.56 281.15V107.01H334.28V281.15H339.56Z" fill="#EBEBEB"/>
<path d="M340.51 281.16V107.02H339.56V281.16H340.51Z" fill="#E0E0E0"/>
<path d="M383.03 281.16V107.02H382.08V281.16H383.03Z" fill="#E0E0E0"/>
<path d="M415.18 145.38H301.18V150.66H415.18V145.38Z" fill="#EBEBEB"/>
<path d="M416.18 283.32H292.85V289.15H416.18V283.32Z" fill="#F5F5F5"/>
<path d="M416.18 289.15H422.02V283.32H416.18V289.15Z" fill="#E0E0E0"/>
<path d="M86.26 77.22H56.11V85.74H86.26V77.22Z" fill="#F0F0F0"/>
<path d="M101.34 85.74H71.1899V94.26H101.34V85.74Z" fill="#E6E6E6"/>
<path d="M288.78 196.38H258.63V204.9H288.78V196.38Z" fill="#F5F5F5"/>
<path d="M332.15 312.86H302V321.38H332.15V312.86Z" fill="#F5F5F5"/>
<path d="M89.48 324.05H119.63V315.53H89.48V324.05Z" fill="#E6E6E6"/>
<path d="M209.17 68.7H179.02V77.22H209.17V68.7Z" fill="#F0F0F0"/>
<path d="M215.39 307.01H185.24V315.53H215.39V307.01Z" fill="#F5F5F5"/>
<path d="M437.1 302.75H406.95V311.27H437.1V302.75Z" fill="#F5F5F5"/>
<path d="M200.31 315.53H170.16V324.05H200.31V315.53Z" fill="#F0F0F0"/>
<path d="M292.85 94.27H323V85.75H292.85V94.27Z" fill="#F0F0F0"/>
<path d="M426.75 90.11C430.322 90.11 433.749 88.6909 436.275 86.1648C438.801 83.6387 440.22 80.2125 440.22 76.64C440.22 73.0676 438.801 69.6414 436.275 67.1153C433.749 64.5892 430.322 63.17 426.75 63.17H425.13V90.11H426.75Z" fill="#E0E0E0"/>
<path d="M425.13 90.11C432.569 90.11 438.6 84.0793 438.6 76.64C438.6 69.2008 432.569 63.17 425.13 63.17C417.691 63.17 411.66 69.2008 411.66 76.64C411.66 84.0793 417.691 90.11 425.13 90.11Z" fill="#EBEBEB"/>
<path opacity="0.6" d="M422.39 73.38C420.05 76.31 416.9 77.69 415.39 76.47C413.88 75.25 414.52 71.87 416.86 68.94C419.2 66.01 422.35 64.63 423.86 65.85C425.37 67.07 424.73 70.44 422.39 73.38Z" fill="#F5F5F5"/>
<path d="M425.13 78.53C426.174 78.53 427.02 77.6838 427.02 76.64C427.02 75.5962 426.174 74.75 425.13 74.75C424.086 74.75 423.24 75.5962 423.24 76.64C423.24 77.6838 424.086 78.53 425.13 78.53Z" fill="#E0E0E0"/>
<path d="M432.26 100H421.77C420.709 100 419.692 99.5786 418.942 98.8284C418.191 98.0783 417.77 97.0609 417.77 96C417.77 94.9391 418.191 93.9217 418.942 93.1716C419.692 92.4214 420.709 92 421.77 92H432.26C433.321 92 434.338 92.4214 435.088 93.1716C435.839 93.9217 436.26 94.9391 436.26 96C436.26 97.0609 435.839 98.0783 435.088 98.8284C434.338 99.5786 433.321 100 432.26 100Z" fill="#E0E0E0"/>
<path d="M430.37 100H419.88C418.819 100 417.802 99.5786 417.052 98.8284C416.301 98.0783 415.88 97.0609 415.88 96C415.88 94.9391 416.301 93.9217 417.052 93.1716C417.802 92.4214 418.819 92 419.88 92H430.37C431.431 92 432.448 92.4214 433.198 93.1716C433.949 93.9217 434.37 94.9391 434.37 96C434.37 97.0609 433.949 98.0783 433.198 98.8284C432.448 99.5786 431.431 100 430.37 100Z" fill="#F5F5F5"/>
<path d="M435.36 95.31L435 94.25C435.769 94.0066 436.483 93.614 437.1 93.0948C437.717 92.5755 438.226 91.9397 438.597 91.2237C438.969 90.5077 439.196 89.7256 439.265 88.9219C439.334 88.1182 439.244 87.3088 439 86.54L440.06 86.21C440.639 88.04 440.469 90.0247 439.588 91.73C438.707 93.4353 437.187 94.7225 435.36 95.31Z" fill="#E0E0E0"/>
<path d="M440.09 88C439.82 88.0818 439.528 88.0544 439.277 87.9235C439.027 87.7927 438.837 87.5688 438.75 87.3L438.37 86.1C438.288 85.8294 438.316 85.5376 438.446 85.2871C438.577 85.0365 438.801 84.8473 439.07 84.76C439.204 84.7167 439.345 84.7005 439.485 84.7124C439.626 84.7243 439.762 84.7639 439.887 84.8291C440.011 84.8942 440.122 84.9836 440.212 85.0919C440.302 85.2002 440.369 85.3253 440.41 85.46L440.79 86.66C440.875 86.9305 440.848 87.2235 440.717 87.4748C440.586 87.726 440.36 87.9149 440.09 88Z" fill="#E0E0E0"/>
<path d="M250 427.56C357.082 427.56 443.89 422.492 443.89 416.24C443.89 409.988 357.082 404.92 250 404.92C142.917 404.92 56.11 409.988 56.11 416.24C56.11 422.492 142.917 427.56 250 427.56Z" fill="#F5F5F5"/>
<path d="M104.67 103.88C104.57 103.881 104.472 103.853 104.387 103.8C104.302 103.746 104.234 103.67 104.19 103.58C103.33 101.79 104.37 100.38 105.46 98.8801C107.03 96.7301 108.98 94.0601 106.92 88.8801C103.28 79.6001 106.19 74.2001 106.32 73.9801C106.395 73.8694 106.508 73.7909 106.638 73.7602C106.768 73.7295 106.904 73.7489 107.021 73.8146C107.137 73.8802 107.224 73.9873 107.265 74.1144C107.305 74.2414 107.296 74.3792 107.24 74.5001C107.24 74.5501 104.46 79.7101 107.91 88.5001C110.18 94.2701 107.91 97.3201 106.31 99.5001C105.16 101.08 104.59 101.96 105.14 103.12C105.171 103.183 105.188 103.251 105.192 103.321C105.196 103.391 105.186 103.461 105.163 103.527C105.14 103.593 105.104 103.654 105.057 103.706C105.01 103.758 104.953 103.8 104.89 103.83C104.821 103.861 104.746 103.878 104.67 103.88Z" fill="#4AA3EB"/>
<path d="M106.81 75.68C106.514 75.682 106.225 75.5961 105.978 75.4331C105.732 75.2701 105.539 75.0375 105.425 74.7649C105.311 74.4922 105.281 74.1918 105.338 73.9018C105.395 73.6119 105.537 73.3455 105.746 73.1365C105.955 72.9275 106.222 72.7854 106.512 72.7282C106.802 72.671 107.102 72.7014 107.375 72.8154C107.648 72.9294 107.88 73.1219 108.043 73.3685C108.206 73.6151 108.292 73.9045 108.29 74.2C108.287 74.5917 108.131 74.9667 107.854 75.2437C107.577 75.5206 107.202 75.6774 106.81 75.68ZM106.81 73.77C106.749 73.7606 106.686 73.7645 106.627 73.7816C106.567 73.7986 106.512 73.8283 106.465 73.8687C106.418 73.9091 106.38 73.9591 106.354 74.0155C106.328 74.0718 106.315 74.133 106.315 74.195C106.315 74.257 106.328 74.3183 106.354 74.3746C106.38 74.431 106.418 74.481 106.465 74.5214C106.512 74.5618 106.567 74.5915 106.627 74.6085C106.686 74.6255 106.749 74.6295 106.81 74.62C106.912 74.6044 107.004 74.553 107.071 74.475C107.138 74.3971 107.175 74.2978 107.175 74.195C107.175 74.0923 107.138 73.993 107.071 73.9151C107.004 73.8371 106.912 73.7857 106.81 73.77Z" fill="#4AA3EB"/>
<path d="M123.61 94.5601L124.11 95.3901L74.5601 125.66L74.0601 124.83L94.1401 102.01L123.61 94.5601Z" fill="#263238"/>
<path d="M124.11 95.39L104.03 118.21L74.5601 125.66L94.6401 102.84L124.11 95.39Z" fill="#4AA3EB"/>
<path d="M120.43 113.05C110.056 117.593 100.348 123.524 91.57 130.68C91.4483 130.787 91.305 130.867 91.1498 130.915C90.9946 130.962 90.8311 130.976 90.6702 130.955C90.5093 130.934 90.3546 130.879 90.2166 130.794C90.0786 130.709 89.9605 130.595 89.87 130.46L84.57 121.78C84.4361 121.544 84.3917 121.267 84.4449 121.001C84.4982 120.735 84.6455 120.497 84.86 120.33C93.7918 113 103.696 106.942 114.29 102.33C114.535 102.213 114.814 102.19 115.075 102.263C115.336 102.337 115.562 102.503 115.71 102.73L121.01 111.41C121.093 111.553 121.145 111.713 121.16 111.877C121.176 112.042 121.155 112.208 121.1 112.364C121.045 112.521 120.956 112.663 120.841 112.781C120.725 112.9 120.585 112.991 120.43 113.05Z" fill="#4AA3EB"/>
<path opacity="0.3" d="M120.43 113.05C110.056 117.593 100.348 123.524 91.57 130.68C91.4483 130.787 91.305 130.867 91.1498 130.915C90.9946 130.962 90.8311 130.976 90.6702 130.955C90.5093 130.934 90.3546 130.879 90.2166 130.794C90.0786 130.709 89.9605 130.595 89.87 130.46L84.57 121.78C84.4361 121.544 84.3917 121.267 84.4449 121.001C84.4982 120.735 84.6455 120.497 84.86 120.33C93.7918 113 103.696 106.942 114.29 102.33C114.535 102.213 114.814 102.19 115.075 102.263C115.336 102.337 115.562 102.503 115.71 102.73L121.01 111.41C121.093 111.553 121.145 111.713 121.16 111.877C121.176 112.042 121.155 112.208 121.1 112.364C121.045 112.521 120.956 112.663 120.841 112.781C120.725 112.9 120.585 112.991 120.43 113.05Z" fill="#263238"/>
<path d="M398.39 200.34C398.276 200.34 398.163 200.314 398.059 200.266C397.956 200.218 397.864 200.147 397.79 200.06C395.93 197.86 396.79 195.48 397.69 192.97C399.04 189.21 400.56 184.97 394.4 179.09C382.22 167.51 389.77 156.09 389.85 156.03C389.97 155.858 390.152 155.74 390.357 155.7C390.563 155.661 390.776 155.704 390.95 155.82C391.123 155.941 391.241 156.125 391.281 156.332C391.32 156.54 391.277 156.754 391.16 156.93C390.87 157.34 384.31 167.31 395.49 177.93C402.41 184.5 400.54 189.7 399.18 193.5C398.26 196.07 397.79 197.59 399 199.02C399.068 199.1 399.119 199.192 399.15 199.292C399.182 199.392 399.193 199.497 399.184 199.601C399.175 199.705 399.145 199.806 399.096 199.899C399.047 199.992 398.981 200.073 398.9 200.14C398.761 200.269 398.579 200.34 398.39 200.34Z" fill="#4AA3EB"/>
<path d="M390.54 158.69C390.125 158.69 389.719 158.573 389.367 158.353C389.015 158.134 388.731 157.82 388.549 157.447C388.366 157.075 388.291 156.658 388.333 156.246C388.375 155.833 388.532 155.44 388.786 155.112C389.04 154.784 389.38 154.533 389.769 154.389C390.158 154.244 390.58 154.212 390.987 154.295C391.393 154.378 391.768 154.573 392.069 154.859C392.37 155.144 392.585 155.509 392.69 155.91C392.836 156.48 392.751 157.085 392.453 157.593C392.156 158.1 391.669 158.47 391.1 158.62C390.917 158.667 390.729 158.691 390.54 158.69ZM390.54 155.83H390.38C390.297 155.849 390.22 155.886 390.152 155.937C390.085 155.989 390.03 156.055 389.99 156.13C389.946 156.201 389.917 156.28 389.905 156.363C389.893 156.445 389.898 156.529 389.92 156.61C389.941 156.691 389.978 156.768 390.028 156.835C390.079 156.902 390.142 156.959 390.215 157.002C390.287 157.044 390.367 157.072 390.451 157.084C390.534 157.096 390.619 157.091 390.7 157.07C390.863 157.025 391.002 156.919 391.088 156.773C391.174 156.628 391.2 156.454 391.16 156.29C391.115 156.126 391.007 155.986 390.86 155.9C390.762 155.848 390.651 155.824 390.54 155.83Z" fill="#4AA3EB"/>
<path d="M427.45 240.08L426.44 240.86L379.77 180.04L380.78 179.26L413.55 202.43L427.45 240.08Z" fill="#263238"/>
<path d="M426.44 240.86L393.67 217.69L379.77 180.04L412.54 203.21L426.44 240.86Z" fill="#4AA3EB"/>
<path d="M402.74 238.49C395.323 225.512 386.179 213.6 375.56 203.08C375.402 202.935 375.276 202.757 375.192 202.56C375.107 202.362 375.066 202.149 375.071 201.934C375.076 201.719 375.126 201.507 375.219 201.314C375.312 201.12 375.445 200.948 375.61 200.81L386.26 192.64C386.55 192.431 386.906 192.333 387.262 192.364C387.618 192.395 387.951 192.554 388.2 192.81C399.063 203.513 408.391 215.669 415.92 228.93C416.107 229.237 416.177 229.602 416.117 229.957C416.056 230.312 415.869 230.632 415.59 230.86L404.94 239C404.767 239.125 404.568 239.212 404.359 239.254C404.149 239.296 403.933 239.293 403.724 239.244C403.516 239.196 403.32 239.104 403.151 238.974C402.981 238.844 402.841 238.679 402.74 238.49Z" fill="#4AA3EB"/>
<path opacity="0.3" d="M402.74 238.49C395.323 225.512 386.179 213.6 375.56 203.08C375.402 202.935 375.276 202.757 375.192 202.56C375.107 202.362 375.066 202.149 375.071 201.934C375.076 201.719 375.126 201.507 375.219 201.314C375.312 201.12 375.445 200.948 375.61 200.81L386.26 192.64C386.55 192.431 386.906 192.333 387.262 192.364C387.618 192.395 387.951 192.554 388.2 192.81C399.063 203.513 408.391 215.669 415.92 228.93C416.107 229.237 416.177 229.602 416.117 229.957C416.056 230.312 415.869 230.632 415.59 230.86L404.94 239C404.767 239.125 404.568 239.212 404.359 239.254C404.149 239.296 403.933 239.293 403.724 239.244C403.516 239.196 403.32 239.104 403.151 238.974C402.981 238.844 402.841 238.679 402.74 238.49Z" fill="#263238"/>
<path d="M121.16 219.31C127.557 221.968 134.285 223.744 141.16 224.59C141.258 224.599 141.353 224.629 141.439 224.677C141.525 224.726 141.6 224.792 141.658 224.871C141.717 224.951 141.758 225.041 141.779 225.138C141.8 225.234 141.8 225.333 141.78 225.43L140.19 231.43C140.144 231.589 140.041 231.727 139.902 231.817C139.762 231.907 139.595 231.943 139.43 231.92C132.404 231.073 125.529 229.26 119 226.53C118.844 226.471 118.715 226.357 118.638 226.21C118.561 226.062 118.54 225.892 118.58 225.73L120.17 219.73C120.198 219.631 120.248 219.539 120.316 219.462C120.385 219.384 120.469 219.323 120.564 219.283C120.659 219.243 120.762 219.224 120.865 219.229C120.968 219.233 121.069 219.261 121.16 219.31Z" fill="#4AA3EB"/>
<path d="M114.26 216.96L114.42 216.39L148.68 225.46L148.53 226.03L129.99 226.81L114.26 216.96Z" fill="#263238"/>
<path d="M114.42 216.39L132.95 215.61L148.68 225.46L130.14 226.24L114.42 216.39Z" fill="#4AA3EB"/>
<g opacity="0.4">
<path opacity="0.4" d="M114.42 216.39L132.95 215.61L148.68 225.46L130.14 226.24L114.42 216.39Z" fill="#263238"/>
</g>
<path d="M132.5 221.2C132.454 221.215 132.406 221.215 132.36 221.2C132.297 221.163 132.251 221.102 132.232 221.031C132.213 220.959 132.223 220.884 132.26 220.82C132.6 220.23 132.34 219.74 131.79 218.82C131.152 217.979 130.777 216.969 130.711 215.916C130.646 214.863 130.892 213.814 131.42 212.9C133.63 208.39 132.42 205.56 132.42 205.53C132.39 205.462 132.387 205.385 132.413 205.316C132.44 205.247 132.492 205.191 132.56 205.16C132.593 205.144 132.63 205.134 132.667 205.132C132.704 205.13 132.741 205.136 132.776 205.149C132.81 205.163 132.842 205.183 132.868 205.209C132.895 205.235 132.916 205.266 132.93 205.3C132.99 205.42 134.3 208.4 131.98 213.15C131.491 213.976 131.262 214.93 131.323 215.887C131.383 216.845 131.731 217.763 132.32 218.52C132.84 219.36 133.32 220.15 132.79 221.06C132.763 221.111 132.72 221.153 132.668 221.178C132.616 221.203 132.557 221.211 132.5 221.2Z" fill="#4AA3EB"/>
<path d="M132.61 206.2H132.55C132.341 206.179 132.148 206.079 132.01 205.92C131.944 205.841 131.894 205.751 131.863 205.653C131.832 205.555 131.821 205.452 131.83 205.35C131.836 205.246 131.864 205.145 131.91 205.052C131.956 204.96 132.021 204.877 132.1 204.81C132.263 204.677 132.471 204.613 132.68 204.63C132.782 204.636 132.882 204.663 132.973 204.709C133.065 204.756 133.145 204.821 133.21 204.9C133.307 205.015 133.369 205.155 133.39 205.304C133.41 205.453 133.387 205.605 133.324 205.741C133.261 205.878 133.16 205.993 133.034 206.075C132.908 206.156 132.76 206.199 132.61 206.2ZM132.61 205.2C132.585 205.198 132.559 205.202 132.535 205.211C132.511 205.219 132.489 205.233 132.47 205.25C132.446 205.267 132.426 205.29 132.412 205.316C132.399 205.342 132.391 205.371 132.39 205.4C132.384 205.459 132.402 205.519 132.439 205.566C132.477 205.612 132.531 205.642 132.59 205.65C132.62 205.653 132.651 205.649 132.68 205.64C132.709 205.631 132.736 205.617 132.759 205.597C132.782 205.578 132.801 205.554 132.815 205.527C132.829 205.5 132.838 205.47 132.84 205.44C132.843 205.381 132.823 205.322 132.783 205.278C132.744 205.233 132.689 205.205 132.63 205.2H132.61Z" fill="#4AA3EB"/>
<path d="M248.77 121.16C241.54 119.16 237.49 130.54 235.55 140.06C235.093 142.709 233.859 145.163 232.006 147.11C230.153 149.058 227.763 150.412 225.14 151C225.14 151 250.61 167.57 269.59 158.41C284.87 151.03 279.99 133.58 273.11 125.55C266.23 117.52 253.18 114.25 248.77 121.16Z" fill="#263238"/>
<path d="M262.86 407.32L254.22 408.17L245.23 387.61L253.87 386.77L262.86 407.32Z" fill="#FF8B7B"/>
<path d="M317.63 381.98L310.66 387.5L297.99 370.99L304.97 365.47L317.63 381.98Z" fill="#FF8B7B"/>
<path d="M307.92 384.34L313.51 376C313.605 375.854 313.749 375.747 313.916 375.699C314.084 375.652 314.263 375.666 314.42 375.74L321.66 379.22C321.839 379.314 321.996 379.446 322.121 379.605C322.245 379.764 322.335 379.948 322.384 380.144C322.433 380.34 322.44 380.544 322.405 380.744C322.37 380.943 322.293 381.132 322.18 381.3C320.18 384.17 319.07 385.46 316.61 389.13C315.1 391.39 312.08 396.6 309.99 399.72C307.9 402.84 304.71 400.93 305.3 399.45C307.95 392.79 307.88 388.95 307.54 385.89C307.481 385.345 307.616 384.796 307.92 384.34Z" fill="#263238"/>
<path d="M253.07 405.5H263.68C263.871 405.504 264.056 405.569 264.208 405.686C264.359 405.803 264.468 405.966 264.52 406.15L266.82 414.54C266.876 414.738 266.885 414.946 266.847 415.148C266.808 415.351 266.722 415.541 266.597 415.704C266.472 415.867 266.31 415.999 266.125 416.089C265.939 416.178 265.736 416.223 265.53 416.22C261.79 416.22 260.02 416.22 255.36 416.22H241.1C237.22 416.22 236.41 412.31 238.02 411.95C245.21 410.36 249.35 408.16 251.57 406.07C251.979 405.695 252.516 405.491 253.07 405.5Z" fill="#263238"/>
<path opacity="0.2" d="M245.24 387.62L249.87 398.21H258.88L253.88 386.77L245.24 387.62Z" fill="black"/>
<path opacity="0.2" d="M304.97 365.47L298 371L304.53 379.51L311.5 373.98L304.97 365.47Z" fill="black"/>
<path d="M237 223.33C237 223.33 220.24 276.27 225.19 315C228.5 340.93 246 395.14 246 395.14L261.43 394.75C261.43 394.75 248.93 339.68 247.64 318.18C245.43 281.41 263.64 223.27 263.64 223.27L237 223.33Z" fill="#4AA3EB"/>
<path d="M243.79 395.94L262.86 395.46L261.75 389.6H242.43L243.79 395.94Z" fill="#263238"/>
<path d="M244.9 223.42C244.9 223.42 247.25 281.25 260.14 313.79C270.54 340.08 300.95 378.79 300.95 378.79L310.24 370.7C310.24 370.7 290.94 329.76 283.04 312.22C263.66 269.22 284.96 239.4 273.29 223.22L244.9 223.42Z" fill="#4AA3EB"/>
<path d="M299.99 379.91L311.92 370.09L308.68 364.8L295.62 375.67L299.99 379.91Z" fill="#263238"/>
<path d="M305.82 388.9C305.538 388.869 305.275 388.746 305.07 388.55C304.974 388.474 304.9 388.374 304.855 388.259C304.811 388.145 304.799 388.021 304.82 387.9C305.01 386.79 307.96 385.52 308.29 385.38C308.318 385.361 308.351 385.351 308.385 385.351C308.419 385.351 308.452 385.361 308.48 385.38C308.499 385.408 308.509 385.441 308.509 385.475C308.509 385.509 308.499 385.542 308.48 385.57C308.06 386.68 307.21 388.57 306.12 388.84C306.023 388.874 305.922 388.895 305.82 388.9ZM308.04 385.9C307.04 386.37 305.28 387.31 305.17 387.99C305.162 388.051 305.171 388.113 305.196 388.169C305.22 388.226 305.26 388.274 305.31 388.31C305.404 388.417 305.525 388.497 305.661 388.541C305.796 388.585 305.941 388.592 306.08 388.56C306.7 388.38 307.42 387.4 308 385.87L308.04 385.9Z" fill="#4AA3EB"/>
<path d="M305.62 386.11C305.168 386.115 304.727 385.967 304.37 385.69C304.259 385.574 304.191 385.424 304.176 385.264C304.162 385.104 304.202 384.944 304.29 384.81C304.36 384.669 304.459 384.545 304.582 384.446C304.705 384.348 304.847 384.278 305 384.24C306.24 383.92 308.37 385.33 308.46 385.39C308.484 385.409 308.504 385.433 308.518 385.461C308.532 385.489 308.539 385.519 308.54 385.55C308.536 385.581 308.525 385.611 308.508 385.637C308.49 385.663 308.467 385.685 308.44 385.7C307.543 386.049 306.579 386.189 305.62 386.11ZM305.57 384.55C305.411 384.524 305.249 384.524 305.09 384.55C304.984 384.574 304.885 384.621 304.8 384.689C304.715 384.756 304.647 384.842 304.6 384.94C304.47 385.2 304.54 385.33 304.6 385.41C305.09 385.9 306.97 385.8 307.96 385.48C307.232 385.015 306.42 384.699 305.57 384.55Z" fill="#4AA3EB"/>
<path d="M248.37 407.22C247.653 407.27 246.937 407.099 246.32 406.73C246.162 406.615 246.032 406.465 245.942 406.291C245.852 406.118 245.803 405.926 245.8 405.73C245.785 405.624 245.8 405.516 245.845 405.418C245.889 405.321 245.96 405.238 246.05 405.18C247.05 404.52 250.86 406.3 251.3 406.51C251.334 406.525 251.362 406.551 251.38 406.583C251.398 406.616 251.405 406.653 251.4 406.69C251.395 406.726 251.379 406.76 251.354 406.787C251.328 406.814 251.296 406.832 251.26 406.84C250.312 407.066 249.344 407.193 248.37 407.22ZM246.67 405.39C246.521 405.382 246.373 405.413 246.24 405.48C246.204 405.507 246.176 405.544 246.16 405.587C246.144 405.629 246.141 405.675 246.15 405.72C246.152 405.863 246.188 406.003 246.254 406.13C246.32 406.256 246.414 406.366 246.53 406.45C247.4 407.1 249.53 406.83 250.66 406.61C249.402 405.998 248.055 405.587 246.67 405.39Z" fill="#4AA3EB"/>
<path d="M251.22 406.85H251.16C250 406.38 247.57 404.43 247.7 403.46C247.7 403.26 247.87 403 248.4 402.93C250.47 402.69 251.4 406.49 251.4 406.65C251.406 406.681 251.403 406.713 251.393 406.743C251.382 406.773 251.364 406.799 251.34 406.82C251.323 406.833 251.304 406.842 251.283 406.847C251.262 406.852 251.241 406.853 251.22 406.85ZM248.59 403.26H248.44C248.08 403.31 248.06 403.44 248.05 403.49C247.97 404.11 249.7 405.69 250.96 406.35C250.7 405.47 249.92 403.26 248.59 403.26Z" fill="#4AA3EB"/>
<path d="M182.83 137.91L179.76 131.17L199.8 122.85L219.22 113.16L222.29 119.9L202.25 128.22L182.83 137.91Z" fill="#4AA3EB"/>
<path opacity="0.5" d="M182.83 137.91L179.76 131.17L199.8 122.85L219.22 113.16L222.29 119.9L202.25 128.22L182.83 137.91Z" fill="#FAFAFA"/>
<path d="M203.729 120.091L203.5 120.161C202.903 120.344 202.567 120.976 202.75 121.572L204.435 127.08C204.617 127.677 205.249 128.013 205.846 127.83L206.076 127.76C206.672 127.578 207.008 126.946 206.826 126.349L205.141 120.841C204.958 120.244 204.326 119.908 203.729 120.091Z" fill="#4AA3EB"/>
<path d="M195.123 124.104L194.927 124.242C194.418 124.604 194.299 125.309 194.66 125.818L197.995 130.514C198.357 131.023 199.062 131.143 199.571 130.781L199.767 130.642C200.275 130.281 200.395 129.576 200.034 129.067L196.699 124.371C196.337 123.862 195.632 123.742 195.123 124.104Z" fill="#4AA3EB"/>
<path d="M203.5 134.55L205.62 126.85L196.43 128.57C196.43 128.57 196.55 133.99 200.91 136.76L203.5 134.55Z" fill="#FF8B7B"/>
<path d="M202.51 119.63L195.93 122.18L196.43 128.57L205.62 126.85L202.51 119.63Z" fill="#FF8B7B"/>
<path d="M195.81 152C196.04 143.8 199.39 132.39 199.39 132.39L204.04 131.81C203.317 137.621 203.16 143.488 203.57 149.33L195.81 152Z" fill="#FF8B7B"/>
<path d="M240.71 187.25C240.13 187.41 239.79 187.49 239.34 187.6L238.09 187.88L235.63 188.41C234 188.75 232.37 189.08 230.71 189.34C227.333 189.934 223.924 190.328 220.5 190.52C216.657 190.775 212.797 190.496 209.03 189.69C206.709 189.174 204.48 188.307 202.42 187.12C201.86 186.8 201.29 186.39 200.74 186L200.53 185.85L200.25 185.62L199.68 185.14C199.35 184.82 199.01 184.49 198.68 184.14C197.704 183.039 196.871 181.819 196.2 180.51C195.225 178.599 194.464 176.587 193.93 174.51C193.44 172.66 193.12 170.91 192.84 169.2C192.26 165.79 192 162.51 191.73 159.28C191.46 156.05 191.34 152.86 191.24 149.68L191.09 144.91L191.02 142.51C191.02 141.68 190.97 140.94 190.97 140.01L210.97 141.79C210.84 142.36 210.7 143.12 210.58 143.79L210.25 145.91C210.04 147.33 209.89 148.76 209.73 150.19C209.46 153.04 209.27 155.9 209.24 158.7C209.185 161.414 209.296 164.129 209.57 166.83C209.71 168.033 209.91 169.228 210.17 170.41C210.347 171.257 210.608 172.085 210.95 172.88C211.06 173.09 211.13 173.15 210.95 172.99C210.77 172.83 210.85 172.88 210.78 172.83C210.741 172.788 210.698 172.751 210.65 172.72L210.58 172.66C210.66 172.66 210.69 172.75 210.79 172.8C211.355 173.111 211.966 173.331 212.6 173.45C214.768 173.822 216.978 173.869 219.16 173.59C221.76 173.301 224.332 172.8 226.85 172.09C228.14 171.72 229.44 171.33 230.72 170.87C231.36 170.64 231.99 170.4 232.62 170.15L233.53 169.77C233.8 169.65 234.17 169.49 234.31 169.41L240.71 187.25Z" fill="#263238"/>
<g opacity="0.2">
<path opacity="0.2" d="M231.63 345.71C233.04 351.19 234.54 356.71 236.02 361.98C240.38 360.77 246.58 358.98 253.46 356.73C252.29 350.65 251.16 344.44 250.2 338.62L231.63 345.71Z" fill="black"/>
<path opacity="0.2" d="M288.43 324L268.86 331.46C271.86 336.74 275.15 342.08 278.46 347.17C284.86 344.25 290.64 341.09 294.82 337.77L288.43 324Z" fill="black"/>
</g>
<path d="M231.44 174C232.02 187.73 214.19 244.16 222.5 359.39C230.84 361.27 290.93 335.88 298 328.64C297.39 314.83 272.05 225.29 278.31 174.64C278.71 171.43 276.88 168.39 273.67 167.92C270.96 167.52 267.58 167.12 264.17 166.92C258.68 166.529 253.17 166.529 247.68 166.92C243.56 167.31 239.04 168.08 235.98 168.65C234.707 168.847 233.547 169.496 232.713 170.479C231.879 171.461 231.427 172.711 231.44 174Z" fill="#263238"/>
<path d="M262.49 148.45C261.49 153.76 260.49 163.45 264.17 167.01C264.17 167.01 258.88 175.28 249.86 179.36C242.68 173.28 247.68 167.05 247.68 167.05C253.59 165.63 253.43 161.24 252.39 157.12L262.49 148.45Z" fill="#FF8B7B"/>
<path d="M249.48 180.59L250.6 174.19L262.77 164.34L266.94 166.74C266.94 166.74 256 180.94 249.48 180.59Z" fill="#E6E6E6"/>
<path d="M249.48 180.59L250.6 174.19L249 166L245.13 166.71C245.13 166.71 243 180.94 249.48 180.59Z" fill="#E6E6E6"/>
<path d="M250.6 174.19C250.6 174.19 255.83 179.35 256.09 184.02C259.62 180.58 268.09 169.56 268.26 166.38C266.41 164.84 262.66 163.9 262.66 163.9L250.6 174.19Z" fill="white"/>
<path d="M250.6 174.19C250.6 174.19 245.52 178.19 245.25 182.9C241.72 179.46 243.38 169.72 243.82 167.03C245.67 165.49 249.36 165.03 249.36 165.03L250.6 174.19Z" fill="white"/>
<path opacity="0.2" d="M258.37 152L252.37 157.12C252.629 158.08 252.803 159.06 252.89 160.05C255.15 159.72 258.55 157.68 258.78 155.32C258.845 154.198 258.706 153.073 258.37 152Z" fill="black"/>
<path d="M267.91 140.48C264.91 148.85 263.91 152.48 258.33 155.59C249.99 160.32 240.33 154.87 240.75 145.78C241.1 137.61 245.87 125.3 255.18 124.29C257.23 124.059 259.305 124.356 261.208 125.152C263.112 125.948 264.78 127.217 266.055 128.839C267.33 130.46 268.17 132.381 268.495 134.418C268.819 136.456 268.618 138.542 267.91 140.48Z" fill="#FF8B7B"/>
<path d="M264.41 130.74C259.15 132.59 259.61 143.09 264.83 146.74C270.05 150.39 276.29 126.57 264.41 130.74Z" fill="#263238"/>
<path d="M249 127C254.3 131.65 261.91 133.45 264.58 132.1C266.52 133.61 272.98 136.67 269.13 129.38C265.28 122.09 258.46 121.15 254.02 121.21C249.58 121.27 244.49 123 249 127Z" fill="#263238"/>
<path d="M267.94 148.36C266.952 149.877 265.414 150.952 263.65 151.36C261.37 151.85 260.53 149.65 261.41 147.46C262.2 145.46 264.34 142.87 266.51 143.37C268.68 143.87 269.18 146.44 267.94 148.36Z" fill="#FF8B7B"/>
<path d="M254.31 139.17C254.11 139.86 253.58 140.32 253.13 140.17C252.68 140.02 252.47 139.38 252.67 138.68C252.87 137.98 253.39 137.53 253.85 137.68C254.31 137.83 254.51 138.48 254.31 139.17Z" fill="#263238"/>
<path d="M246.47 136.93C246.27 137.63 245.74 138.09 245.29 137.93C244.84 137.77 244.63 137.13 244.83 136.44C245.03 135.75 245.55 135.29 246.01 135.44C246.47 135.59 246.67 136.24 246.47 136.93Z" fill="#263238"/>
<path d="M246.2 135.54L244.67 134.54C244.67 134.54 245.15 136.13 246.2 135.54Z" fill="#263238"/>
<path d="M248.2 138.72C247.132 140.124 245.877 141.376 244.47 142.44C244.752 142.793 245.107 143.08 245.511 143.282C245.915 143.484 246.358 143.596 246.81 143.61L248.2 138.72Z" fill="#FF5652"/>
<path d="M249.78 147.24C249.34 147.204 248.904 147.124 248.48 147C248.457 146.994 248.436 146.984 248.417 146.97C248.398 146.955 248.383 146.937 248.372 146.916C248.36 146.896 248.353 146.873 248.351 146.849C248.349 146.826 248.352 146.802 248.36 146.78C248.366 146.758 248.376 146.738 248.39 146.72C248.403 146.702 248.42 146.687 248.44 146.676C248.459 146.665 248.481 146.658 248.503 146.655C248.526 146.652 248.548 146.654 248.57 146.66C249.433 146.927 250.348 146.987 251.239 146.836C252.13 146.685 252.973 146.327 253.7 145.79C253.734 145.758 253.778 145.74 253.825 145.74C253.872 145.74 253.916 145.758 253.95 145.79C253.982 145.824 254 145.868 254 145.915C254 145.962 253.982 146.006 253.95 146.04C252.765 146.959 251.272 147.388 249.78 147.24Z" fill="#263238"/>
<path d="M258.59 135.1C258.53 135.095 258.472 135.073 258.423 135.038C258.374 135.003 258.335 134.955 258.31 134.9C258.084 134.405 257.743 133.971 257.315 133.635C256.887 133.3 256.385 133.071 255.85 132.97C255.757 132.955 255.673 132.906 255.616 132.831C255.558 132.757 255.531 132.664 255.54 132.57C255.555 132.48 255.603 132.399 255.676 132.343C255.748 132.287 255.839 132.261 255.93 132.27C256.58 132.387 257.191 132.659 257.714 133.063C258.236 133.467 258.653 133.991 258.93 134.59C258.969 134.674 258.974 134.769 258.944 134.857C258.914 134.944 258.852 135.017 258.77 135.06C258.714 135.087 258.652 135.101 258.59 135.1Z" fill="#263238"/>
<path d="M243.73 132.55C243.668 132.546 243.608 132.526 243.557 132.49C243.506 132.455 243.465 132.407 243.44 132.35C243.402 132.265 243.398 132.168 243.43 132.081C243.462 131.993 243.526 131.921 243.61 131.88C244.206 131.594 244.861 131.453 245.522 131.471C246.183 131.488 246.83 131.663 247.41 131.98C247.487 132.033 247.54 132.113 247.561 132.203C247.581 132.294 247.567 132.389 247.52 132.47C247.469 132.549 247.389 132.604 247.297 132.625C247.206 132.645 247.11 132.629 247.03 132.58C246.553 132.32 246.02 132.179 245.477 132.168C244.934 132.158 244.397 132.279 243.91 132.52C243.855 132.549 243.792 132.56 243.73 132.55Z" fill="#263238"/>
<path d="M312 172.44L313 164.52L320.81 169.64C320.81 169.64 318.62 174.64 313.53 175.47L312 172.44Z" fill="#FF8B7B"/>
<path d="M318.66 159.05L323.76 163.93L320.83 169.64L313.02 164.52L318.66 159.05Z" fill="#FF8B7B"/>
<path d="M312.4 191.49C315.34 183.84 316.64 172.02 316.64 172.02L312.57 169.7C310.995 175.323 308.882 180.782 306.26 186L312.4 191.49Z" fill="#FF8B7B"/>
<path d="M277.72 171.09C278.25 172.21 278.93 173.55 279.59 174.77C280.25 175.99 280.96 177.24 281.67 178.46C283.1 180.9 284.61 183.28 286.19 185.56C287.719 187.792 289.364 189.942 291.12 192C291.97 193 292.82 193.9 293.67 194.74C294.427 195.483 295.235 196.172 296.09 196.8C296.253 196.924 296.423 197.037 296.6 197.14L296.82 197.29C296.89 197.29 296.82 197.29 296.82 197.29H296.74C296.345 197.115 295.921 197.017 295.49 197C295.077 196.982 294.664 197.036 294.27 197.16C294.04 197.24 294.04 197.26 294.14 197.16C294.663 196.715 295.127 196.204 295.52 195.64C296.158 194.752 296.742 193.827 297.27 192.87C298.452 190.602 299.456 188.245 300.27 185.82C300.73 184.56 301.1 183.26 301.48 181.96L301.98 179.96C302.06 179.63 302.13 179.3 302.19 178.96C302.25 178.62 302.34 178.28 302.35 178.1L321.63 184C321.43 184.53 321.28 184.86 321.1 185.26L320.6 186.4L319.6 188.65C318.94 190.14 318.22 191.65 317.51 193.1C316.035 196.161 314.392 199.139 312.59 202.02C311.599 203.62 310.503 205.154 309.31 206.61C307.871 208.396 306.207 209.99 304.36 211.35C303.127 212.24 301.782 212.963 300.36 213.5C298.569 214.159 296.666 214.458 294.76 214.38C292.837 214.298 290.951 213.821 289.22 212.98L288.65 212.69C288.47 212.6 288.25 212.48 288.16 212.42L287.43 211.98C286.93 211.69 286.5 211.39 286.08 211.09C283.139 208.934 280.431 206.477 278 203.76C275.75 201.28 273.68 198.81 271.72 196.3C269.76 193.79 267.89 191.3 266.06 188.73L263.34 184.9L262 183C261.53 182.33 261.11 181.73 260.61 181L277.72 171.09Z" fill="#263238"/>
<path d="M254 137.78L252.48 136.78C252.48 136.78 253 138.37 254 137.78Z" fill="#263238"/>
<path d="M290.34 124.46L290.18 125.09L233.86 110.96L234.02 110.33L263.65 111.53L290.34 124.46Z" fill="#263238"/>
<path d="M290.18 125.09L260.55 123.89L233.86 110.96L263.49 112.17L290.18 125.09Z" fill="#4AA3EB"/>
<path d="M276 131.8C265.401 127.864 254.402 125.104 243.2 123.57C242.5 123.48 241.98 122.93 242.11 122.41L244.11 114.41C244.198 114.179 244.368 113.989 244.588 113.877C244.808 113.764 245.061 113.737 245.3 113.8C256.728 115.339 267.948 118.153 278.75 122.19C278.988 122.249 279.196 122.394 279.335 122.597C279.473 122.8 279.532 123.047 279.5 123.29L277.5 131.29C277.437 131.424 277.348 131.544 277.238 131.642C277.127 131.741 276.998 131.816 276.858 131.864C276.718 131.911 276.57 131.93 276.423 131.919C276.275 131.908 276.131 131.868 276 131.8Z" fill="#4AA3EB"/>
<path opacity="0.3" d="M276 131.8C265.401 127.864 254.402 125.104 243.2 123.57C242.5 123.48 241.98 122.93 242.11 122.41L244.11 114.41C244.198 114.179 244.368 113.989 244.588 113.877C244.808 113.764 245.061 113.737 245.3 113.8C256.728 115.339 267.948 118.153 278.75 122.19C278.988 122.249 279.196 122.394 279.335 122.597C279.473 122.8 279.532 123.047 279.5 123.29L277.5 131.29C277.437 131.424 277.348 131.544 277.238 131.642C277.127 131.741 276.998 131.816 276.858 131.864C276.718 131.911 276.57 131.93 276.423 131.919C276.275 131.908 276.131 131.868 276 131.8Z" fill="#263238"/>
<path d="M281 154.83C280.876 154.83 280.756 154.788 280.66 154.71C280.554 154.617 280.489 154.487 280.478 154.347C280.467 154.207 280.511 154.068 280.6 153.96C285.5 148.19 282.78 145.58 279.01 141.96C276.85 139.88 274.39 137.52 273.15 134.18C269.72 124.97 280.2 118.89 280.3 118.83C280.422 118.761 280.566 118.744 280.701 118.781C280.836 118.819 280.951 118.908 281.02 119.03C281.056 119.089 281.079 119.155 281.089 119.224C281.099 119.293 281.095 119.363 281.077 119.43C281.059 119.497 281.028 119.56 280.986 119.615C280.943 119.67 280.89 119.716 280.83 119.75C280.42 119.98 271.03 125.45 274.14 133.81C275.3 136.93 277.66 139.2 279.75 141.2C283.45 144.76 286.95 148.12 281.41 154.64C281.36 154.7 281.297 154.748 281.226 154.781C281.155 154.814 281.078 154.83 281 154.83Z" fill="#4AA3EB"/>
<path d="M281 155.79C280.705 155.792 280.416 155.706 280.169 155.544C279.923 155.381 279.731 155.149 279.616 154.877C279.502 154.605 279.471 154.305 279.527 154.015C279.584 153.726 279.725 153.459 279.933 153.25C280.141 153.041 280.406 152.898 280.696 152.839C280.985 152.781 281.285 152.81 281.558 152.922C281.831 153.035 282.064 153.226 282.228 153.471C282.392 153.716 282.48 154.005 282.48 154.3C282.48 154.693 282.324 155.071 282.047 155.35C281.77 155.629 281.393 155.787 281 155.79ZM281 153.88C280.914 153.878 280.83 153.902 280.757 153.948C280.685 153.995 280.629 154.062 280.595 154.141C280.561 154.22 280.552 154.307 280.568 154.391C280.584 154.476 280.625 154.553 280.686 154.614C280.747 154.675 280.824 154.716 280.909 154.732C280.993 154.748 281.08 154.739 281.159 154.705C281.238 154.671 281.305 154.615 281.352 154.542C281.398 154.47 281.422 154.386 281.42 154.3C281.42 154.189 281.376 154.082 281.297 154.003C281.218 153.924 281.111 153.88 281 153.88Z" fill="#4AA3EB"/>
</svg>
