<svg width="500" height="500" viewBox="0 0 500 500" fill="none" xmlns="http://www.w3.org/2000/svg">
<path d="M242.32 451.59C306.893 451.59 359.24 443.316 359.24 433.11C359.24 422.904 306.893 414.63 242.32 414.63C177.747 414.63 125.4 422.904 125.4 433.11C125.4 443.316 177.747 451.59 242.32 451.59Z" fill="#EBEBEB"/>
<path d="M128.83 459.31C189.162 459.31 238.07 451.582 238.07 442.05C238.07 432.518 189.162 424.79 128.83 424.79C68.4984 424.79 19.59 432.518 19.59 442.05C19.59 451.582 68.4984 459.31 128.83 459.31Z" fill="#EBEBEB"/>
<path d="M371.17 459.31C431.502 459.31 480.41 451.582 480.41 442.05C480.41 432.518 431.502 424.79 371.17 424.79C310.838 424.79 261.93 432.518 261.93 442.05C261.93 451.582 310.838 459.31 371.17 459.31Z" fill="#EBEBEB"/>
<path d="M18 378.04L76 377.79L134 377.71L250 377.54L366 377.7L424 377.79L482 378.04L424 378.28L366 378.37L250 378.54L134 378.37L76 378.28L18 378.04Z" fill="#263238"/>
<path d="M290.27 272C291.59 275.83 290.15 282 293.16 281.87C295.84 281.78 296.42 277.44 296.42 277.44C296.42 277.44 297.35 282.54 300.2 281.63C303.05 280.72 302.73 275.83 302.73 275.83C302.73 275.83 303.31 280.11 306.09 279C308.87 277.89 309.36 273.68 309.36 273.68C309.36 273.68 310.36 274.79 311.98 273.12C314.29 270.73 313.31 263.61 311.91 260.01C310.51 256.41 302.75 244.28 301.53 242.44L278.37 251.2C278.37 251.2 277.9 258.74 278.13 262.59C278.36 266.44 282.63 278.92 285.8 278.07C288.97 277.22 285.8 268.46 285.49 266.14C285.18 263.82 285.67 263.36 286.62 264.3C287.24 264.94 289.69 270.34 290.27 272Z" fill="#AD6359"/>
<path d="M296.35 277.25C296.73 271.15 295.85 268.41 292.96 263.12C292.9 263.02 293.04 262.91 293.11 263.02C296.41 267.93 298.02 271.21 296.64 277.29C296.58 277.58 296.33 277.54 296.35 277.25Z" fill="#263238"/>
<path d="M302.65 276.12C302.5 269.74 301.56 266.76 298.95 261C298.95 260.92 299.04 260.85 299.09 260.93C302.09 266.36 303.66 269.67 302.97 276.06C302.94 276.35 302.66 276.41 302.65 276.12Z" fill="#263238"/>
<path d="M309.3 273.64C308.71 267.48 307.82 264.17 304.57 258.91C304.562 258.899 304.555 258.885 304.552 258.871C304.549 258.857 304.548 258.842 304.55 258.828C304.553 258.813 304.558 258.8 304.566 258.787C304.573 258.775 304.583 258.764 304.595 258.755C304.607 258.747 304.62 258.741 304.635 258.737C304.649 258.734 304.663 258.733 304.678 258.736C304.692 258.738 304.706 258.743 304.718 258.751C304.731 258.759 304.742 258.769 304.75 258.78C308.6 263.78 309.75 267.94 309.49 273.61C309.47 274 309.34 274 309.3 273.64Z" fill="#263238"/>
<path d="M262.78 170.12C278.39 189.44 299.52 236.79 302.05 243.53C303.77 248.11 279.77 257.74 279.05 254.45C278.15 250.25 262.46 197.95 258.77 178.45C256.76 167.63 259.55 166.13 262.78 170.12Z" fill="#AD6359"/>
<path d="M258.58 183.36C261.15 201.21 276.49 250.73 276.49 250.73L294.68 243.81L303.86 240.31C303.86 240.31 277.86 190.86 266.93 174.48C266.08 173.22 265.3 172.13 264.58 171.22C257.68 162.44 256.6 169.61 258.58 183.36Z" fill="#455A64"/>
<path d="M294.79 235.21C294.457 233.945 294.457 232.615 294.79 231.35C295.124 232.615 295.124 233.945 294.79 235.21Z" fill="white"/>
<path d="M261.75 172.77C261.574 172.139 261.489 171.486 261.5 170.83C261.489 170.178 261.574 169.528 261.75 168.9C261.921 169.529 262.006 170.179 262 170.83C262.006 171.485 261.921 172.138 261.75 172.77Z" fill="white"/>
<path d="M282.1 225.33C283.365 224.997 284.695 224.997 285.96 225.33C284.695 225.664 283.365 225.664 282.1 225.33Z" fill="white"/>
<path d="M272.66 200.63C273.928 200.297 275.262 200.297 276.53 200.63C275.903 200.811 275.252 200.895 274.6 200.88C273.945 200.891 273.291 200.806 272.66 200.63Z" fill="white"/>
<path d="M287.33 214.8C286.764 214.477 286.246 214.077 285.79 213.61C285.32 213.158 284.919 212.639 284.6 212.07C285.729 212.732 286.668 213.672 287.33 214.8Z" fill="white"/>
<path d="M268.18 184.47C267.614 184.147 267.095 183.747 266.64 183.28C266.17 182.828 265.769 182.309 265.45 181.74C266.019 182.059 266.538 182.46 266.99 182.93C267.456 183.386 267.857 183.904 268.18 184.47Z" fill="white"/>
<path d="M273.92 234.38C272.786 233.723 271.842 232.782 271.18 231.65C271.752 231.97 272.274 232.37 272.73 232.84C273.194 233.298 273.594 233.816 273.92 234.38Z" fill="white"/>
<path d="M274.6 214C274.274 214.567 273.874 215.089 273.41 215.55C272.952 216.017 272.43 216.418 271.86 216.74C272.518 215.602 273.462 214.658 274.6 214Z" fill="white"/>
<path d="M286.62 241C285.962 242.134 285.022 243.078 283.89 243.74C284.21 243.169 284.611 242.647 285.08 242.19C285.535 241.724 286.054 241.323 286.62 241Z" fill="white"/>
<path d="M266.81 191.32C266.148 192.449 265.209 193.389 264.08 194.05C264.742 192.922 265.682 191.982 266.81 191.32Z" fill="white"/>
<path d="M275.48 245.39C286.28 240.3 298.39 236.6 300.48 235.8C300.491 235.797 300.502 235.796 300.513 235.797C300.523 235.798 300.534 235.801 300.544 235.806C300.554 235.811 300.562 235.818 300.569 235.826C300.576 235.835 300.582 235.845 300.585 235.855C300.588 235.866 300.589 235.877 300.588 235.888C300.587 235.899 300.584 235.909 300.579 235.919C300.574 235.929 300.567 235.937 300.559 235.945C300.55 235.952 300.541 235.957 300.53 235.96C298.46 236.64 285.08 242.37 275.53 245.56C275.42 245.6 275.38 245.44 275.48 245.39Z" fill="#263238"/>
<path d="M292.91 244.48L276.49 250.73C276.49 250.73 261.15 201.21 258.58 183.36C257.28 174.36 257.3 168.16 259.41 167.45L292.91 244.48Z" fill="#263238"/>
<path d="M245.56 381.23C245.56 381.23 245.56 418.12 245.56 418.15C245.56 425.2 245.62 431.39 245.96 434.58C245.955 434.6 245.955 434.621 245.96 434.64C245.963 435.396 246.137 436.142 246.47 436.82C248.56 438.26 304.94 440.19 306.93 439.59C308.92 438.99 307.38 433.28 305.25 431.46C303.12 429.64 281.86 419.25 281.86 419.25L281.5 382.37L245.56 381.23Z" fill="#DD6A57"/>
<path d="M245.57 410.57V418.15C245.57 425.2 245.63 431.39 245.97 434.58C245.965 434.6 245.965 434.621 245.97 434.64C246.054 435.385 246.225 436.116 246.48 436.82C248.57 438.26 304.95 440.19 306.94 439.59C308.93 438.99 307.39 433.28 305.26 431.46C303.13 429.64 281.87 419.25 281.87 419.25L281.97 411.56L245.57 410.57Z" fill="#455A64"/>
<path d="M307 439.63C305 440.23 248.64 438.3 246.54 436.86C245.73 436.33 245.54 428.1 245.54 418.15V417.84L281.92 418.67V419.29C281.92 419.29 303.17 429.68 305.31 431.5C307.45 433.32 309 439.05 307 439.63Z" fill="#455A64"/>
<path d="M306.43 437.43C296.93 436.87 258.58 435.51 249.16 435.68C249.08 435.68 249.08 435.73 249.16 435.74C258.56 436.5 296.92 437.54 306.43 437.58C306.62 437.58 306.63 437.44 306.43 437.43Z" fill="#263238"/>
<path d="M285 419.51C281.29 418.68 276.7 419.1 273.75 421.66C273.63 421.76 273.75 421.92 273.9 421.89C277.501 420.865 281.203 420.231 284.94 420C285.005 420.008 285.07 419.99 285.122 419.95C285.174 419.91 285.207 419.85 285.215 419.785C285.223 419.72 285.205 419.655 285.164 419.603C285.124 419.552 285.065 419.518 285 419.51Z" fill="#263238"/>
<path d="M287.62 421.22C283.9 420.4 279.31 420.82 276.36 423.38C276.25 423.48 276.36 423.64 276.51 423.61C280.123 422.574 283.838 421.934 287.59 421.7C287.654 421.704 287.716 421.683 287.764 421.641C287.812 421.598 287.841 421.539 287.845 421.475C287.849 421.412 287.828 421.349 287.785 421.301C287.743 421.253 287.684 421.224 287.62 421.22Z" fill="#263238"/>
<path d="M290.26 422.94C286.55 422.12 281.95 422.54 279 425.1C278.89 425.2 279 425.36 279.16 425.33C282.77 424.294 286.482 423.653 290.23 423.42C290.294 423.424 290.356 423.403 290.404 423.361C290.452 423.319 290.481 423.259 290.485 423.195C290.489 423.132 290.468 423.069 290.425 423.021C290.383 422.974 290.324 422.944 290.26 422.94Z" fill="#263238"/>
<path d="M242.33 244.43L243.74 354.7L244.57 419.7L284.03 418.92L276.31 242.23L275.92 222H242.6L242.33 244.43Z" fill="#DBDBDB"/>
<path d="M282.38 412.33C276.22 412.28 277.98 412.21 271.82 412.22C268.82 412.22 248.99 412.3 246.18 412.8C246.164 412.8 246.149 412.807 246.138 412.818C246.126 412.829 246.12 412.844 246.12 412.86C246.12 412.876 246.126 412.891 246.138 412.903C246.149 412.914 246.164 412.92 246.18 412.92C249 413.36 268.81 412.92 271.82 412.92C277.98 412.78 276.21 412.75 282.37 412.55C282.384 412.551 282.399 412.549 282.412 412.544C282.426 412.539 282.439 412.531 282.449 412.522C282.46 412.512 282.469 412.5 282.475 412.487C282.481 412.474 282.484 412.46 282.485 412.445C282.486 412.431 282.483 412.416 282.479 412.403C282.474 412.389 282.466 412.377 282.456 412.366C282.447 412.355 282.435 412.347 282.422 412.341C282.409 412.334 282.394 412.331 282.38 412.33Z" fill="#263238"/>
<path d="M264.8 251.24C264.8 251.16 264.93 251.16 264.93 251.24C264.93 261.55 265.25 271.87 265.5 282.18C265.75 292.49 266.05 302.81 266.33 313.13C266.89 333.74 267.72 354.35 268.48 374.96C268.907 386.52 269.44 398.077 270.08 409.63C270.08 409.7 269.97 409.7 269.96 409.63C268.47 389.04 267.03 368.45 266.22 347.82C265.41 327.19 264.81 306.59 264.71 285.96C264.66 274.39 264.82 262.82 264.8 251.24Z" fill="#263238"/>
<path d="M242.33 244.43L243.74 354.7L270.19 222H242.6L242.33 244.43Z" fill="#263238"/>
<path d="M237.71 382.33C237.71 382.33 233 417.5 233 417.52C233 424.58 232.79 430.76 232.41 433.96C232.414 433.977 232.414 433.994 232.41 434.01C232.399 434.764 232.218 435.506 231.88 436.18V436.23C229.77 437.64 173.37 438.92 171.39 438.3C169.41 437.68 171.01 431.99 173.16 430.19C175.31 428.39 196.69 418.25 196.69 418.25L202.61 381.4L237.71 382.33Z" fill="#DD6A57"/>
<path d="M233.6 410C233.23 414.41 232.98 417.53 232.98 417.55C232.98 424.61 232.77 430.79 232.39 433.99C232.394 434.006 232.394 434.024 232.39 434.04C232.3 434.782 232.122 435.51 231.86 436.21V436.26C229.75 437.67 173.35 438.95 171.37 438.33C169.39 437.71 170.99 432.02 173.14 430.22C175.29 428.42 196.67 418.28 196.67 418.28L197.37 410.5L233.6 410Z" fill="#455A64"/>
<path d="M171.32 438.3C173.32 438.92 229.69 437.64 231.81 436.23C232.62 435.7 232.91 427.48 232.98 417.52V417.21L196.59 417.63V418.25C196.59 418.25 175.22 428.39 173.06 430.19C170.9 431.99 169.33 437.69 171.32 438.3Z" fill="#455A64"/>
<path d="M171.91 436.1C181.41 435.65 219.77 434.74 229.19 435.01C229.27 435.01 229.27 435.07 229.19 435.07C219.78 435.72 181.41 436.33 171.9 436.26C171.71 436.25 171.71 436.11 171.91 436.1Z" fill="#263238"/>
<path d="M192.54 417.83C196.27 417.05 200.86 417.52 203.78 420.12C203.89 420.22 203.78 420.38 203.62 420.34C200.019 419.28 196.314 418.61 192.57 418.34C192.502 418.344 192.436 418.321 192.385 418.276C192.335 418.231 192.304 418.168 192.3 418.1C192.296 418.033 192.319 417.966 192.364 417.916C192.409 417.865 192.472 417.834 192.54 417.83Z" fill="#263238"/>
<path d="M189.88 419.52C193.61 418.73 198.19 419.2 201.11 421.8C201.23 421.91 201.11 422.06 200.96 422.03C197.359 420.97 193.654 420.3 189.91 420.03C189.877 420.032 189.843 420.027 189.811 420.016C189.78 420.005 189.75 419.988 189.725 419.966C189.7 419.944 189.68 419.917 189.665 419.887C189.651 419.856 189.642 419.824 189.64 419.79C189.638 419.757 189.643 419.723 189.654 419.691C189.665 419.66 189.682 419.631 189.704 419.605C189.726 419.58 189.753 419.56 189.784 419.545C189.814 419.531 189.847 419.522 189.88 419.52Z" fill="#263238"/>
<path d="M187.22 421.21C190.94 420.42 195.53 420.89 198.45 423.49C198.56 423.59 198.45 423.75 198.3 423.72C194.696 422.659 190.988 421.989 187.24 421.72C187.172 421.723 187.107 421.698 187.057 421.652C187.007 421.607 186.978 421.543 186.975 421.475C186.972 421.407 186.997 421.342 187.043 421.292C187.089 421.242 187.152 421.213 187.22 421.21Z" fill="#263238"/>
<path d="M272.53 222C272.39 222.69 270.06 233.5 267.64 242.79C265.88 249.57 264.08 255.54 263.04 256.15C262 256.76 256.14 259.38 254.22 260.15L245.47 343.9L233.73 419.24L194.36 417.18L225.93 222H272.53Z" fill="#DBDBDB"/>
<path d="M233.52 412.07C227.37 411.67 229.14 411.7 222.99 411.37C219.99 411.21 200.2 410.16 197.36 410.5C197.344 410.5 197.329 410.506 197.318 410.518C197.306 410.529 197.3 410.544 197.3 410.56C197.3 410.576 197.306 410.591 197.318 410.602C197.329 410.614 197.344 410.62 197.36 410.62C200.15 411.22 219.95 411.92 222.96 412.02C229.12 412.24 227.36 412.11 233.51 412.25C233.522 412.251 233.534 412.249 233.545 412.245C233.556 412.241 233.566 412.235 233.575 412.227C233.584 412.219 233.591 412.21 233.596 412.199C233.601 412.188 233.604 412.177 233.605 412.165C233.606 412.153 233.604 412.141 233.6 412.13C233.596 412.119 233.59 412.109 233.582 412.1C233.574 412.091 233.565 412.084 233.554 412.079C233.543 412.074 233.532 412.071 233.52 412.07Z" fill="#263238"/>
<path d="M211 390.6C211.96 385.22 212.93 379.84 213.91 374.46C215.91 363.694 217.91 352.934 219.91 342.18C223.95 320.647 227.95 299.107 231.91 277.56C234.13 265.38 234.07 266.56 236 254.3C236 254.22 236.15 254.23 236.14 254.3C234.28 265.16 235.14 262.78 233.41 273.66C231.68 284.54 229.83 295.19 227.9 305.93C224.03 327.51 219.97 349.05 215.9 370.59C214.753 376.63 213.587 382.664 212.4 388.69C211.2 394.85 209.83 400.96 208.56 407.1C208.56 407.24 208.32 407.22 208.34 407.1C209.16 401.6 210 396.09 211 390.6Z" fill="#263238"/>
<path d="M221.62 255.1C222.62 254.84 223.75 254.75 224.8 254.59C225.65 254.45 226.5 254.3 227.34 254.12C228.95 253.829 230.476 253.187 231.81 252.24C233.146 251.009 234.144 249.456 234.71 247.73C235.13 246.73 235.56 245.73 236 244.8C236.21 244.33 236.42 243.86 236.64 243.39C236.939 242.843 237.206 242.278 237.44 241.7C237.44 241.61 237.6 241.7 237.56 241.7C237.4 242.09 237.33 242.52 237.21 242.92C237.09 243.32 236.93 243.92 236.78 244.34C236.52 245.19 236.26 246.03 235.99 246.87C235.569 248.413 234.964 249.9 234.19 251.3C232.64 253.78 229.86 254.77 227.08 255.12C226.29 255.22 225.48 255.28 224.68 255.33C223.682 255.414 222.678 255.414 221.68 255.33C221.5 255.36 221.45 255.14 221.62 255.1Z" fill="#263238"/>
<path d="M266.08 254.64C261.994 256.122 258.045 257.959 254.28 260.13C254.264 260.138 254.25 260.148 254.238 260.161C254.226 260.173 254.217 260.188 254.211 260.204C254.205 260.221 254.202 260.238 254.203 260.255C254.204 260.273 254.208 260.29 254.215 260.305C254.222 260.321 254.232 260.335 254.245 260.347C254.258 260.359 254.273 260.368 254.289 260.374C254.305 260.38 254.323 260.383 254.34 260.382C254.357 260.382 254.374 260.378 254.39 260.37C258.39 258.67 262.39 257.03 266.29 255.11C266.343 255.077 266.382 255.026 266.4 254.966C266.418 254.906 266.414 254.841 266.389 254.784C266.363 254.727 266.318 254.681 266.261 254.655C266.205 254.628 266.14 254.623 266.08 254.64Z" fill="#263238"/>
<path d="M267.27 227.42C267.27 227.28 267.02 227.25 267.02 227.42C267.019 231.852 266.796 236.281 266.35 240.69C266.17 242.74 264.52 254.05 260.97 253.23C260.38 253.09 260.08 252.51 259.97 251.61C259.988 250.439 260.146 249.274 260.44 248.14C260.84 245.77 261.15 243.4 261.36 241C261.775 236.547 261.725 232.063 261.21 227.62C261.203 227.595 261.188 227.574 261.167 227.558C261.146 227.543 261.121 227.535 261.095 227.535C261.069 227.535 261.044 227.543 261.023 227.558C261.003 227.574 260.987 227.595 260.98 227.62C261.091 233.799 260.73 239.977 259.9 246.1C259.46 249.04 257.98 253.47 261.05 253.93C264.12 254.39 266.22 246.93 266.6 244.93C267.583 239.147 267.808 233.261 267.27 227.42Z" fill="#263238"/>
<path d="M261.07 253.51C260.753 254.276 260.486 255.061 260.27 255.86C260.042 256.478 259.93 257.132 259.94 257.79C259.94 257.91 260.12 257.92 260.18 257.79C260.541 257.238 260.818 256.635 261 256C261.27 255.28 261.55 254.56 261.8 253.83C261.832 253.736 261.828 253.632 261.787 253.54C261.747 253.449 261.674 253.376 261.582 253.335C261.49 253.295 261.387 253.291 261.292 253.323C261.197 253.356 261.118 253.422 261.07 253.51Z" fill="#263238"/>
<path d="M220.45 240.73C220.59 240.88 279.83 239.01 280.35 238.39C281.07 237.5 268.35 178.67 258.35 166.21C255.83 163.1 247.35 162.21 244.02 165.71C234.37 175.71 232.63 182.89 230.32 189.56C228.61 194.49 226.67 202.87 224.97 211.44C222.13 225.56 219.94 240.19 220.45 240.73Z" fill="#455A64"/>
<path d="M262.09 226.72C261.914 226.093 261.829 225.442 261.84 224.79C261.825 224.138 261.909 223.487 262.09 222.86C262.424 224.125 262.424 225.455 262.09 226.72Z" fill="white"/>
<path d="M255.2 199.6C255.029 198.971 254.945 198.322 254.95 197.67C254.945 197.015 255.029 196.362 255.2 195.73C255.376 196.361 255.461 197.015 255.45 197.67C255.461 198.322 255.376 198.972 255.2 199.6Z" fill="white"/>
<path d="M236.61 188.87C236.434 188.242 236.349 187.592 236.36 186.94C236.349 186.285 236.434 185.631 236.61 185C236.786 185.631 236.871 186.285 236.86 186.94C236.866 187.592 236.781 188.241 236.61 188.87Z" fill="white"/>
<path d="M236.86 221.45C236.526 220.185 236.526 218.855 236.86 217.59C237.036 218.218 237.121 218.868 237.11 219.52C237.116 220.172 237.031 220.821 236.86 221.45Z" fill="white"/>
<path d="M247.75 216.21C249.015 215.877 250.345 215.877 251.61 216.21C250.345 216.544 249.015 216.544 247.75 216.21Z" fill="white"/>
<path d="M234 200.18C235.268 199.847 236.602 199.847 237.87 200.18C236.602 200.514 235.268 200.514 234 200.18Z" fill="white"/>
<path d="M253.27 182C253.898 181.824 254.548 181.739 255.2 181.75C255.852 181.734 256.503 181.818 257.13 182C255.865 182.334 254.535 182.334 253.27 182Z" fill="white"/>
<path d="M232.53 233.53C233.798 233.197 235.132 233.197 236.4 233.53C235.132 233.864 233.798 233.864 232.53 233.53Z" fill="white"/>
<path d="M259.12 236.65C259.752 236.479 260.405 236.395 261.06 236.4C261.712 236.395 262.361 236.479 262.99 236.65C262.362 236.827 261.712 236.911 261.06 236.9C260.405 236.911 259.751 236.827 259.12 236.65Z" fill="white"/>
<path d="M251.05 233.53C250.479 233.21 249.957 232.81 249.5 232.34C249.034 231.885 248.633 231.367 248.31 230.8C248.882 231.119 249.404 231.52 249.86 231.99C250.324 232.448 250.724 232.966 251.05 233.53Z" fill="white"/>
<path d="M230.91 212C229.776 211.342 228.832 210.402 228.17 209.27C228.741 209.59 229.263 209.991 229.72 210.46C230.186 210.915 230.587 211.434 230.91 212Z" fill="white"/>
<path d="M263.11 209.67C261.978 209.008 261.038 208.064 260.38 206.93C260.946 207.253 261.465 207.654 261.92 208.12C262.39 208.576 262.791 209.098 263.11 209.67Z" fill="white"/>
<path d="M247.75 190.27C246.616 189.612 245.672 188.672 245.01 187.54C245.582 187.859 246.104 188.26 246.56 188.73C247.024 189.188 247.424 189.706 247.75 190.27Z" fill="white"/>
<path d="M273.92 234.38C272.786 233.723 271.842 232.782 271.18 231.65C271.752 231.97 272.274 232.37 272.73 232.84C273.194 233.298 273.594 233.816 273.92 234.38Z" fill="white"/>
<path d="M274.6 214C274.274 214.567 273.874 215.089 273.41 215.55C272.952 216.017 272.43 216.418 271.86 216.74C272.518 215.602 273.462 214.658 274.6 214Z" fill="white"/>
<path d="M246 206.16C245.338 207.289 244.398 208.229 243.27 208.89C243.589 208.321 243.99 207.803 244.46 207.35C244.915 206.884 245.434 206.483 246 206.16Z" fill="white"/>
<path d="M225.93 224.94C225.268 226.069 224.329 227.009 223.2 227.67C223.862 226.542 224.802 225.602 225.93 224.94Z" fill="white"/>
<path d="M266.81 191.32C266.148 192.449 265.209 193.389 264.08 194.05C264.742 192.922 265.682 191.982 266.81 191.32Z" fill="white"/>
<path d="M244.63 175.38C244.308 175.95 243.907 176.472 243.44 176.93C242.982 177.394 242.464 177.795 241.9 178.12C242.22 177.549 242.621 177.027 243.09 176.57C243.545 176.104 244.064 175.703 244.63 175.38Z" fill="white"/>
<path d="M255.45 173.67C253 174.15 247.17 170.3 244.58 166.67C244.399 164.498 244.329 162.319 244.37 160.14C244.31 158.04 244.19 155.72 243.92 153.6C243.92 153.16 245.45 153.78 245.45 153.78L248.27 154.1L257.6 155.18C257.173 157.919 257.083 160.699 257.33 163.46C257.368 163.753 257.435 164.041 257.53 164.32C257.53 164.32 257.53 164.41 257.53 164.46C258 166.12 259.29 172.91 255.45 173.67Z" fill="#AD6359"/>
<path d="M257.53 164.36C257.53 164.36 257.53 164.45 257.53 164.5C257.084 164.617 256.629 164.697 256.17 164.74C247.17 165.65 244.68 154.43 244.68 154.43L248.23 154.14L257.56 155.22C257.133 157.959 257.043 160.739 257.29 163.5C257.341 163.794 257.422 164.082 257.53 164.36Z" fill="#263238"/>
<path d="M241.46 135.72C240.02 140.47 242.56 154.17 245.94 157.22C250.85 161.64 258.86 162.04 262.6 156.15C266.24 150.44 262.6 132.65 258.84 129.88C253.27 125.8 243.58 128.71 241.46 135.72Z" fill="#AD6359"/>
<path d="M253.57 143.11C253.57 143.11 253.51 143.17 253.57 143.21C253.81 144.12 253.92 145.21 253.17 145.69C253.17 145.69 253.17 145.75 253.17 145.74C254.11 145.37 253.94 143.93 253.57 143.11Z" fill="#263238"/>
<path d="M252.54 142.34C251.04 142.56 251.59 145.54 252.98 145.34C254.37 145.14 253.8 142.16 252.54 142.34Z" fill="#263238"/>
<path d="M259 141.91C259 141.91 259.08 141.91 259.08 141.98C259.22 142.91 259.54 143.98 260.43 144.1V144.15C259.39 144.2 259 142.82 259 141.91Z" fill="#263238"/>
<path d="M259.64 140.8C261.11 140.41 261.77 143.36 260.42 143.72C259.07 144.08 258.42 141.12 259.64 140.8Z" fill="#263238"/>
<path d="M251.11 141.2C251.5 141.02 251.83 140.79 252.19 140.58C252.55 140.37 252.96 140.18 253.19 139.73C253.239 139.598 253.241 139.453 253.198 139.319C253.154 139.185 253.067 139.069 252.95 138.99C252.694 138.868 252.41 138.816 252.128 138.839C251.845 138.862 251.573 138.959 251.34 139.12C250.822 139.378 250.419 139.82 250.21 140.36C250.17 140.483 250.167 140.615 250.199 140.74C250.231 140.865 250.299 140.978 250.393 141.066C250.488 141.154 250.605 141.214 250.732 141.237C250.859 141.261 250.99 141.248 251.11 141.2Z" fill="#263238"/>
<path d="M260.46 139.44C260.04 139.44 259.64 139.39 259.22 139.36C258.785 139.376 258.357 139.25 258 139C257.899 138.9 257.833 138.77 257.813 138.629C257.794 138.488 257.82 138.344 257.89 138.22C258.066 137.999 258.298 137.829 258.561 137.727C258.825 137.625 259.111 137.595 259.39 137.64C259.97 137.639 260.529 137.861 260.95 138.26C261.053 138.355 261.124 138.478 261.154 138.615C261.184 138.751 261.171 138.893 261.118 139.022C261.064 139.151 260.973 139.26 260.855 139.335C260.737 139.41 260.599 139.446 260.46 139.44Z" fill="#263238"/>
<path d="M254.31 151.83C254.57 152.01 254.84 152.27 255.18 152.23C255.522 152.161 255.845 152.021 256.13 151.82C256.13 151.82 256.19 151.82 256.18 151.82C256.081 152.025 255.928 152.199 255.738 152.324C255.548 152.449 255.327 152.521 255.1 152.53C254.904 152.515 254.717 152.442 254.563 152.321C254.408 152.2 254.292 152.037 254.23 151.85C254.23 151.85 254.27 151.81 254.31 151.83Z" fill="#263238"/>
<path d="M254.76 148.89C255.064 149.21 255.43 149.464 255.836 149.636C256.242 149.808 256.679 149.894 257.12 149.89C257.506 149.896 257.891 149.843 258.26 149.73C258.333 149.721 258.403 149.7 258.47 149.67L258.67 149.6C258.717 149.582 258.757 149.549 258.783 149.505C258.808 149.461 258.818 149.41 258.81 149.36C258.815 149.33 258.815 149.3 258.81 149.27V149.19C258.7 148.48 258.43 147.41 258.43 147.41C258.71 147.49 260.15 147.84 260.06 147.48C259.373 144.291 258.368 141.179 257.06 138.19C257.052 138.167 257.035 138.149 257.014 138.139C256.992 138.128 256.968 138.127 256.945 138.135C256.922 138.143 256.904 138.16 256.894 138.181C256.883 138.203 256.882 138.227 256.89 138.25C257.5 141.2 258.62 144.02 259.28 146.97C258.767 146.839 258.239 146.781 257.71 146.8C257.62 146.8 258.27 148.85 258.29 149.18C257.72 149.346 257.123 149.395 256.533 149.325C255.944 149.254 255.375 149.066 254.86 148.77C254.76 148.75 254.7 148.83 254.76 148.89Z" fill="#263238"/>
<path d="M257.77 149.46C257.478 150.039 257.04 150.532 256.5 150.89C256.203 151.081 255.853 151.172 255.5 151.15C254.73 151.09 254.58 150.42 254.61 149.81C254.628 149.491 254.685 149.175 254.78 148.87C255.689 149.378 256.736 149.584 257.77 149.46Z" fill="#263238"/>
<path d="M243.24 146.09C246.4 145.58 246.12 139.75 246.12 139.75C246.12 139.75 251.41 138.02 251.56 133.81C251.56 133.81 257.23 136.3 261.05 134.2C264.87 132.1 263.31 127.66 262.71 126.75C262.11 125.84 260.14 128 260.14 128C260.14 128 259.49 125.45 258.75 125.3C258.01 125.15 257.51 126.82 257.51 126.82C254.133 126.285 250.694 126.261 247.31 126.75C242.59 127.62 240.99 132.75 240.99 132.75C240.99 132.75 238.54 133.68 237.99 135.58C237.44 137.48 241.23 146.41 243.24 146.09Z" fill="#263238"/>
<path d="M244.85 140C249.13 139.91 251.49 136.68 251.47 132.57H251.55C252.01 136.34 249.16 141.05 244.84 140.2C244.813 140.199 244.789 140.187 244.771 140.167C244.753 140.148 244.744 140.122 244.745 140.095C244.746 140.069 244.758 140.044 244.778 140.026C244.798 140.008 244.823 139.999 244.85 140Z" fill="#263238"/>
<path d="M241.09 132.67C241.09 132.67 241.17 132.72 241.09 132.75C240 133.47 238.72 134.09 238.09 135.29C237.29 136.74 237.77 138.4 238.37 139.81C239.3 142 240.94 144.81 243.18 145.81C243.31 145.87 243.18 146.06 243.08 146.01C240.42 144.95 238.4 141.33 237.65 138.7C236.81 135.74 238.42 133.74 241.09 132.67Z" fill="#263238"/>
<path d="M256.34 134.27C257.404 134.689 258.562 134.808 259.689 134.614C260.815 134.42 261.867 133.92 262.73 133.17C264.73 131.28 263.84 128.81 262.55 126.84C262.49 126.74 262.62 126.61 262.71 126.7C264.3 128.36 264.85 131.18 263.29 133.06C261.73 134.94 258.44 135.46 256.21 134.55C256 134.47 256.16 134.19 256.34 134.27Z" fill="#263238"/>
<path d="M244.41 146.89C244.41 146.89 241.22 142.53 239.23 143.68C237.24 144.83 239.72 151.2 242.1 152.02C242.398 152.147 242.719 152.213 243.043 152.214C243.367 152.214 243.687 152.148 243.986 152.021C244.284 151.894 244.553 151.708 244.777 151.474C245.001 151.24 245.176 150.963 245.29 150.66L244.41 146.89Z" fill="#AD6359"/>
<path d="M240 145.48C240 145.48 239.95 145.54 240 145.55C240.767 145.911 241.451 146.429 242.007 147.069C242.563 147.71 242.98 148.459 243.23 149.27C243.13 149.105 242.995 148.964 242.835 148.856C242.675 148.749 242.493 148.678 242.302 148.648C242.112 148.619 241.917 148.631 241.732 148.685C241.546 148.739 241.375 148.833 241.23 148.96C241.18 148.96 241.23 149.05 241.23 149.04C241.519 148.941 241.833 148.933 242.126 149.019C242.42 149.105 242.68 149.28 242.87 149.52C243.182 149.926 243.453 150.361 243.68 150.82C243.76 150.96 244.02 150.88 243.96 150.71C244 148.56 242.26 145.65 240 145.48Z" fill="#263238"/>
<path d="M257.75 165.18L255.35 173.48L244.42 164.38L241.93 167.9C241.93 167.9 253.25 182.97 253.23 182.24L255.83 175.03L261.06 179.34L259.47 167.34L257.75 165.18Z" fill="#EBEBEB"/>
<path d="M260.61 173.37C260.28 171.37 260 169.37 259.61 167.46C259.61 167.39 259.48 167.37 259.48 167.46C259.27 169.41 260.57 176.93 260.74 178.75C260.52 178.56 255.92 174.98 255.88 175.05C255.28 176.21 253.37 181.46 253.25 181.93C251.46 179.54 243.94 170.15 241.88 167.93C241.82 167.87 241.72 167.93 241.77 168.01C243.39 170.57 253.14 183.01 253.25 182.93C254.288 180.44 255.193 177.897 255.96 175.31C256.76 176.12 261.46 180.21 261.44 179.91C261.28 177.717 261.003 175.534 260.61 173.37Z" fill="#263238"/>
<path d="M234.48 173.61C229.65 168.61 218.67 150.04 218.91 139.11C219.09 130.58 223.44 107.04 226.1 101.03C227.3 98.3003 245.43 110.09 245.57 113.28C245.71 116.47 238.57 136.39 237.73 141.36C237.33 143.71 238.84 155.79 242.4 166.79C245.61 176.7 240.38 179.68 234.48 173.61Z" fill="#AD6359"/>
<path d="M224.77 106C225.3 103.39 228.77 91.6702 230.51 88.6302C232.25 85.5902 237.75 77.1802 240.21 78.2402C242.67 79.3002 241.21 81.9002 241.21 81.9002C241.21 81.9002 244.11 78.7202 246.49 80.0202C248.87 81.3202 246.49 85.2802 246.49 85.2802C246.49 85.2802 249.71 82.2802 251.99 83.7002C254.27 85.1202 251.24 88.7002 251.24 88.7002C251.24 88.7002 254.06 85.7802 255.43 87.7802C257.08 90.1902 251.29 94.9902 249.66 98.4902C249.29 99.2902 243.31 115.15 243.31 115.15L224.77 106Z" fill="#AD6359"/>
<path d="M251.58 88.3901C247.33 91.9301 246.08 94.2201 244.4 99.3901C244.4 99.4901 244.21 99.4701 244.24 99.3901C245.42 94.1601 246.57 91.0701 251.42 88.2001C251.65 88.0001 251.78 88.2201 251.58 88.3901Z" fill="#263238"/>
<path d="M246.91 85C242.82 89.06 241.44 91.53 239.29 96.83C239.29 96.9 239.13 96.83 239.15 96.78C240.83 91.41 242.05 88.35 246.67 84.78C246.88 84.62 247.1 84.77 246.91 85Z" fill="#263238"/>
<path d="M241.15 82.1204C237.47 86.3504 235.85 88.9904 234.42 94.4004C234.42 94.5304 234.19 94.4904 234.22 94.4004C234.756 89.5347 237.193 85.0779 241 82.0004C241.27 81.8004 241.38 81.8604 241.15 82.1204Z" fill="#263238"/>
<path d="M244.3 119.06C244.3 119.06 249.55 114.25 251.12 111.56C252.69 108.87 254.82 96.6602 252.21 96.0502C248.84 95.2602 246.21 102.05 245.37 105.56C245.37 105.56 237.58 103.73 234.64 108.2C231.7 112.67 244.3 119.06 244.3 119.06Z" fill="#AD6359"/>
<path d="M251.21 96.1301C247.62 97.6301 246.8 102.29 245.73 105.63C245.716 105.68 245.69 105.726 245.654 105.764C245.619 105.802 245.574 105.83 245.525 105.847C245.476 105.864 245.423 105.868 245.372 105.86C245.32 105.852 245.272 105.831 245.23 105.8C241.92 105.25 237.08 105.44 234.6 107.99C234.584 108 234.565 108.004 234.547 108.003C234.528 108.001 234.51 107.994 234.496 107.982C234.481 107.969 234.471 107.953 234.467 107.935C234.462 107.917 234.463 107.898 234.47 107.88C236.76 104.8 241.47 104.22 245.09 105.06C246.09 101.62 247.17 96.9801 251.2 96.0601C251.22 96.0901 251.23 96.1201 251.21 96.1301Z" fill="#263238"/>
<path d="M221.65 109.44L244.78 121.44C244.78 121.44 238.78 138.15 238.28 141.26C237.78 144.37 243.41 166.4 244.19 171.07C244.97 175.74 233.19 192.07 232.26 183.86C231.33 175.65 218.88 151.03 218.26 142.66C217.64 134.29 221.65 109.44 221.65 109.44Z" fill="#455A64"/>
<path d="M236 150.8C235.824 150.172 235.74 149.522 235.75 148.87C235.735 148.215 235.819 147.56 236 146.93C236.172 147.562 236.256 148.215 236.25 148.87C236.25 149.522 236.166 150.17 236 150.8Z" fill="white"/>
<path d="M229.54 124C229.207 122.735 229.207 121.405 229.54 120.14C229.874 121.405 229.874 122.735 229.54 124Z" fill="white"/>
<path d="M238.22 159.83C239.485 159.497 240.815 159.497 242.08 159.83C240.815 160.164 239.485 160.164 238.22 159.83Z" fill="white"/>
<path d="M232.48 134.78C233.112 134.609 233.765 134.525 234.42 134.53C235.072 134.52 235.722 134.604 236.35 134.78C235.722 134.957 235.072 135.041 234.42 135.03C233.765 135.041 233.111 134.957 232.48 134.78Z" fill="white"/>
<path d="M236.57 170.83C235.436 170.172 234.492 169.232 233.83 168.1C234.401 168.42 234.923 168.821 235.38 169.29C235.847 169.746 236.247 170.264 236.57 170.83Z" fill="white"/>
<path d="M228.23 145.79C227.096 145.132 226.152 144.192 225.49 143.06C226.062 143.379 226.584 143.78 227.04 144.25C227.504 144.708 227.904 145.226 228.23 145.79Z" fill="white"/>
<path d="M244.63 175.38C244.308 175.95 243.907 176.472 243.44 176.93C242.982 177.394 242.464 177.795 241.9 178.12C242.22 177.549 242.621 177.027 243.09 176.57C243.545 176.104 244.064 175.703 244.63 175.38Z" fill="white"/>
<path d="M229.59 157.36C229.271 157.929 228.87 158.448 228.4 158.9C227.945 159.367 227.426 159.767 226.86 160.09C227.522 158.962 228.462 158.022 229.59 157.36Z" fill="white"/>
<path d="M243.07 123.56C242.408 124.688 241.469 125.628 240.34 126.29C241.002 125.162 241.942 124.222 243.07 123.56Z" fill="white"/>
<path d="M242.16 124.78C235.73 121.308 229.12 118.177 222.36 115.4C222.28 115.4 222.23 115.49 222.31 115.52C223.96 116.2 234.53 121.72 242.11 124.92C242.2 125 242.24 124.83 242.16 124.78Z" fill="#263238"/>
<path d="M288.26 442.45C290.21 443.1 345.97 442.94 348.09 441.59C348.9 441.09 349.35 432.96 349.61 423.13C349.67 421.01 349.71 418.83 349.75 416.59C349.75 413.95 349.83 411.28 349.84 408.69C349.91 397.05 349.75 386.79 349.75 386.79H313.45V408.69V416.59L313.63 423.13C313.63 423.13 292.32 432.75 290.15 434.48C287.98 436.21 286.32 441.82 288.26 442.45Z" fill="#DD6A57"/>
<path d="M288.26 442.45C290.21 443.1 345.97 442.94 348.09 441.59C348.9 441.09 349.35 432.96 349.61 423.13C349.67 421.01 349.71 418.83 349.75 416.59C349.75 413.95 349.83 411.28 349.84 408.69H313.47V416.59L313.65 423.13C313.65 423.13 292.34 432.75 290.17 434.48C288 436.21 286.32 441.82 288.26 442.45Z" fill="white"/>
<path d="M288.09 442.54C289.36 442.96 313.09 443.04 330.4 442.68C334.4 442.6 338.06 442.49 341.02 442.36C345.08 442.17 347.81 441.95 348.26 441.67C349.26 441.04 349.71 429.11 349.93 416.53H313.45L313.64 423.11C313.64 423.11 292.2 432.77 290.02 434.51C287.84 436.25 286.14 441.88 288.09 442.54Z" fill="#3D9EED"/>
<path d="M288.89 440.29C298.29 440.04 336.22 439.88 345.53 440.29C345.6 440.29 345.6 440.35 345.53 440.35C336.22 440.81 298.29 440.66 288.89 440.4C288.69 440.44 288.69 440.3 288.89 440.29Z" fill="#263238"/>
<path d="M312.31 421C316 420.3 320.53 420.86 323.36 423.48C323.47 423.59 323.36 423.74 323.21 423.7C319.67 422.569 316.019 421.821 312.32 421.47C312.266 421.46 312.217 421.432 312.181 421.39C312.145 421.348 312.125 421.294 312.124 421.239C312.122 421.184 312.14 421.13 312.174 421.086C312.208 421.043 312.256 421.012 312.31 421Z" fill="#263238"/>
<path d="M309.64 422.64C313.34 421.94 317.86 422.49 320.7 425.12C320.81 425.22 320.7 425.38 320.54 425.34C317.004 424.208 313.356 423.46 309.66 423.11C309.605 423.101 309.555 423.074 309.519 423.032C309.482 422.991 309.46 422.938 309.458 422.883C309.456 422.828 309.472 422.773 309.506 422.729C309.539 422.685 309.586 422.653 309.64 422.64Z" fill="#263238"/>
<path d="M307 424.26C310.69 423.56 315.22 424.11 318 426.74C318.11 426.84 318 426.99 317.85 426.96C314.322 425.833 310.686 425.082 307 424.72C306.939 424.72 306.881 424.696 306.837 424.653C306.794 424.609 306.77 424.551 306.77 424.49C306.77 424.429 306.794 424.37 306.837 424.327C306.881 424.284 306.939 424.26 307 424.26Z" fill="#263238"/>
<path d="M304.31 425.87C308.01 425.17 312.53 425.73 315.37 428.35C315.48 428.46 315.37 428.61 315.21 428.57C311.674 427.438 308.026 426.69 304.33 426.34C304.275 426.331 304.225 426.304 304.189 426.262C304.152 426.221 304.13 426.168 304.128 426.113C304.126 426.058 304.142 426.003 304.176 425.959C304.209 425.915 304.256 425.883 304.31 425.87Z" fill="#263238"/>
<path d="M307.12 417.75C309.75 419.75 313.12 420.6 316.21 421.75C316.28 421.769 316.353 421.771 316.423 421.756C316.494 421.742 316.56 421.711 316.616 421.666C316.673 421.621 316.718 421.564 316.748 421.499C316.778 421.433 316.793 421.362 316.79 421.29C316.805 421.289 316.82 421.285 316.833 421.277C316.847 421.27 316.858 421.259 316.867 421.247C316.876 421.234 316.881 421.22 316.884 421.205C316.886 421.19 316.885 421.174 316.88 421.16C315.746 417.888 313.774 414.971 311.16 412.7C309.61 411.41 306.9 410.51 305.45 412.52C304 414.53 305.59 416.57 307.12 417.75ZM306.17 414.75C305.51 410.69 309.87 412.81 310.98 413.81C311.693 414.468 312.361 415.173 312.98 415.92C314.214 417.482 315.366 419.107 316.43 420.79C314.96 420.14 313.43 419.63 311.96 419.04C310.15 418.37 306.54 417 306.17 414.78V414.75Z" fill="#263238"/>
<path d="M329.21 415.45C328.31 413.15 325.46 413.34 323.64 414.2C320.542 415.759 317.908 418.104 316 421C315.992 421.013 315.986 421.027 315.984 421.042C315.982 421.057 315.983 421.073 315.988 421.087C315.993 421.102 316.001 421.115 316.012 421.126C316.023 421.137 316.036 421.145 316.05 421.15C315.99 421.43 316.16 421.78 316.49 421.75C319.73 421.42 323.24 421.48 326.28 420.17C328.05 419.37 330.06 417.63 329.21 415.45ZM321.3 420.21C319.71 420.41 318.12 420.53 316.53 420.79C317.983 419.429 319.505 418.144 321.09 416.94C321.864 416.366 322.676 415.844 323.52 415.38C324.84 414.69 329.59 413.73 327.94 417.49C327 419.56 323.19 420 321.3 420.21Z" fill="#263238"/>
<path d="M361.86 232.11C361.86 232.11 352.05 329.11 351.81 330.37C351.81 330.53 351.71 332.37 351.62 335.44C351.09 352.14 349.78 404.22 349.78 404.22H309.78C309.78 404.22 312.39 342.54 313.89 328.15C315.8 309.79 327.89 232.15 327.89 232.15L361.86 232.11Z" fill="#455A64"/>
<path d="M347 333.79C348.24 312.757 350.097 291.783 352.57 270.87C353.97 259.08 355.67 247.33 357.35 235.58C357.35 235.48 357.52 235.48 357.51 235.58C354.41 256.5 352.22 277.58 350.33 298.58C348.44 319.58 347.12 340.69 346.26 361.78C345.77 373.78 345.4 385.69 345.02 397.65C345.009 397.701 344.981 397.748 344.94 397.781C344.899 397.814 344.848 397.832 344.795 397.832C344.742 397.832 344.691 397.814 344.65 397.781C344.609 397.748 344.581 397.701 344.57 397.65C345.18 376.38 345.79 355.07 347 333.79Z" fill="#263238"/>
<path d="M312.29 397.77C313.29 397.64 314.47 397.68 315.54 397.64C316.61 397.6 317.94 397.59 319.14 397.54C321.46 397.46 323.793 397.4 326.14 397.36C330.807 397.28 335.473 397.313 340.14 397.46L344 397.59C345.37 397.65 346.74 397.77 348.11 397.76C348.121 397.756 348.132 397.754 348.144 397.755C348.155 397.756 348.166 397.76 348.175 397.767C348.185 397.773 348.193 397.782 348.198 397.792C348.203 397.802 348.206 397.813 348.206 397.825C348.206 397.836 348.203 397.847 348.198 397.858C348.193 397.868 348.185 397.876 348.175 397.883C348.166 397.889 348.155 397.893 348.144 397.894C348.132 397.896 348.121 397.894 348.11 397.89C345.75 397.89 343.37 398.09 341.02 398.18C338.67 398.27 336.38 398.3 334.07 398.33C329.4 398.4 324.71 398.33 320.07 398.18L316.21 398.08L314.16 397.99C313.55 397.99 312.94 397.99 312.33 397.93C312.17 397.92 312.18 397.79 312.29 397.77Z" fill="#263238"/>
<path d="M361.86 232.11C361.86 232.11 352.05 329.11 351.81 330.37C351.81 330.53 351.71 332.37 351.62 335.44L332.75 232.11H361.86Z" fill="#263238"/>
<path d="M437.15 411C438.87 409.86 473.2 365.93 473.45 363.43C473.55 362.43 467.45 357.11 459.88 350.83C458.25 349.46 456.61 347.99 454.82 346.67C452.58 345 450.31 343.36 448.1 341.81C438.54 335.03 430.24 329.71 430.24 329.71L408.44 357.44L425.44 370.02L432.44 375.18L437.7 379.08C437.7 379.08 432.08 401.78 432.1 404.55C432.12 407.32 435.44 412.11 437.15 411Z" fill="#DD6A57"/>
<path d="M437.15 411C438.87 409.86 473.2 365.93 473.45 363.43C473.55 362.43 467.45 357.11 459.88 350.83C458.25 349.46 456.61 347.99 454.82 346.67C452.58 345 450.31 343.36 448.1 341.81C441.34 350.32 431.55 362.47 425.43 370.02L432.43 375.18L437.69 379.08C437.69 379.08 432.07 401.78 432.09 404.55C432.11 407.32 435.44 412.11 437.15 411Z" fill="white"/>
<path d="M437.11 411.16C438.83 410.02 473.36 365.84 473.61 363.32C473.73 362.16 464.61 354.43 454.88 346.47L432.33 375.14L437.62 379.06C437.62 379.06 432 401.89 432 404.68C432 407.47 435.38 412.3 437.11 411.16Z" fill="#3D9EED"/>
<path d="M435.83 409.14C441.44 401.59 464.76 371.68 470.88 364.65C470.93 364.59 470.97 364.65 470.88 364.65C465.49 372.25 441.93 401.97 435.88 409.2C435.83 409.39 435.72 409.3 435.83 409.14Z" fill="#263238"/>
<path d="M435.16 378.82C436.89 375.48 440.16 372.27 443.94 371.66C444.09 371.66 444.12 371.85 444.02 371.92C440.943 374.001 438.099 376.408 435.54 379.1C435.499 379.139 435.446 379.161 435.39 379.165C435.334 379.168 435.279 379.152 435.234 379.118C435.188 379.085 435.156 379.037 435.143 378.983C435.129 378.928 435.135 378.871 435.16 378.82Z" fill="#263238"/>
<path d="M434.78 381.92C436.52 378.58 439.78 375.36 443.57 374.76C443.71 374.76 443.75 374.95 443.64 375.02C440.564 377.099 437.721 379.503 435.16 382.19C435.119 382.225 435.068 382.245 435.015 382.248C434.961 382.25 434.908 382.235 434.864 382.204C434.82 382.173 434.788 382.128 434.773 382.076C434.758 382.025 434.76 381.97 434.78 381.92Z" fill="#263238"/>
<path d="M434.41 385C436.14 381.66 439.41 378.45 443.19 377.84C443.34 377.84 443.37 378.03 443.27 378.1C440.192 380.183 437.345 382.59 434.78 385.28C434.743 385.329 434.688 385.361 434.627 385.37C434.566 385.378 434.504 385.362 434.455 385.325C434.406 385.288 434.374 385.233 434.365 385.172C434.357 385.111 434.373 385.049 434.41 385Z" fill="#263238"/>
<path d="M434 388.1C435.73 384.77 439 381.55 442.78 380.95C442.93 380.95 442.96 381.13 442.86 381.21C439.785 383.289 436.942 385.693 434.38 388.38C434.339 388.418 434.286 388.441 434.23 388.444C434.174 388.447 434.119 388.431 434.074 388.398C434.028 388.365 433.996 388.317 433.983 388.262C433.969 388.208 433.976 388.15 434 388.1Z" fill="#263238"/>
<path d="M429.38 380.87C432.6 380.07 435.38 377.87 438.12 376.19C438.18 376.147 438.229 376.091 438.262 376.026C438.296 375.961 438.314 375.888 438.314 375.815C438.314 375.742 438.296 375.669 438.262 375.604C438.229 375.539 438.18 375.482 438.12 375.44C438.129 375.427 438.134 375.413 438.136 375.398C438.138 375.383 438.137 375.367 438.132 375.353C438.127 375.338 438.119 375.325 438.108 375.314C438.098 375.303 438.084 375.295 438.07 375.29C434.799 374.16 431.289 373.908 427.89 374.56C425.89 374.98 423.54 376.56 424.22 378.94C424.9 381.32 427.51 381.35 429.38 380.87ZM426.46 379.78C422.86 377.78 427.22 375.68 428.69 375.43C429.644 375.285 430.606 375.204 431.57 375.19C433.557 375.187 435.543 375.283 437.52 375.48C436.11 376.24 434.77 377.11 433.39 377.92C431.74 378.88 428.44 380.88 426.46 379.78Z" fill="#263238"/>
<path d="M441.23 362.09C438.86 361.38 437.23 363.73 436.8 365.7C436.098 369.09 436.302 372.604 437.39 375.89C437.39 375.97 437.48 375.97 437.54 375.94C437.581 376 437.637 376.049 437.701 376.082C437.766 376.116 437.837 376.134 437.91 376.134C437.983 376.134 438.054 376.116 438.119 376.082C438.183 376.049 438.239 376 438.28 375.94C440.03 373.19 442.28 370.47 443.09 367.27C443.59 365.42 443.47 362.77 441.23 362.09ZM440.08 371.25C439.25 372.63 438.36 373.95 437.59 375.35C437.415 373.355 437.342 371.352 437.37 369.35C437.402 368.388 437.499 367.429 437.66 366.48C437.93 365.02 440.11 360.69 442.04 364.31C443.11 366.35 441.06 369.62 440.08 371.25Z" fill="#263238"/>
<path d="M327.34 231.57C327.34 231.57 330.46 246.13 340.24 253.25C340.24 253.25 365.4 319.3 370.69 326.25C379.45 337.77 421.83 367.42 421.83 367.42L446.83 335.55C446.83 335.55 405.83 309.16 402.55 305.01C400.36 302.26 382.9 259.85 383.11 258.34C385.51 240.41 376.96 229.27 376.96 229.27L327.34 231.57Z" fill="#455A64"/>
<path d="M374 232.06C375.905 235.514 377.322 239.216 378.21 243.06C378.644 245.013 378.908 247.001 379 249C379.12 251.13 379 253.27 379 255.41C379.032 257.593 379.368 259.76 380 261.85C380.6 263.85 381.33 265.85 382 267.85C383.44 271.943 384.957 276.006 386.55 280.04C389.73 288.04 393.187 295.953 396.92 303.78C397.702 305.61 398.78 307.299 400.11 308.78C401.644 310.189 403.32 311.435 405.11 312.5C408.79 315.006 412.473 317.513 416.16 320.02L438.37 335.13V335.18C438.62 335.35 438.37 335.76 438.14 335.59C430.7 330.54 426 327.32 418.56 322.27L407.29 314.62C405.51 313.41 403.7 312.24 401.96 310.99C400.418 309.925 399.103 308.566 398.09 306.99C397.077 305.27 396.168 303.49 395.37 301.66C394.43 299.66 393.51 297.66 392.61 295.66C390.83 291.886 389.13 288 387.51 284C385.89 280 384.327 275.953 382.82 271.86C382.073 269.806 381.343 267.746 380.63 265.68C379.893 263.724 379.291 261.719 378.83 259.68C378 255.48 378.74 251.17 378.34 246.93C377.977 242.826 376.965 238.806 375.34 235.02C374.904 234.038 374.416 233.08 373.88 232.15C373.81 232.06 374 232 374 232.06Z" fill="#263238"/>
<path d="M360.23 233.2C361.055 236.006 362.776 238.465 365.13 240.2C367.737 242.052 370.825 243.112 374.02 243.25C374.56 243.25 374.61 244.1 374.02 244.11C367.49 244.11 360.9 239.97 359.94 233.21C359.94 233.08 360.19 233.05 360.23 233.2Z" fill="#263238"/>
<path d="M334 248.81C336.365 249.765 338.624 250.965 340.74 252.39C342.98 253.78 345.05 255.39 347.21 256.9C347.3 256.96 347.21 257.09 347.14 257.04C344.87 255.73 342.51 254.6 340.26 253.25C338.016 252.024 335.888 250.598 333.9 248.99C333.81 248.93 333.88 248.78 334 248.81Z" fill="#263238"/>
<path d="M333.06 235.21C333.41 236.7 333.84 238.21 334.24 239.66C334.64 241.11 334.9 242.48 335.33 243.85C335.702 245.182 336.444 246.382 337.47 247.31C338.04 247.8 338.67 248.22 339.28 248.67L340.28 249.37C340.23 249.18 340.19 248.97 340.14 248.77C340.01 248.2 339.89 247.64 339.77 247.07C339.5 245.81 339.24 244.55 338.98 243.28C338.49 240.8 337.98 238.28 337.39 235.83C337.386 235.818 337.384 235.805 337.386 235.792C337.387 235.779 337.392 235.767 337.399 235.756C337.407 235.746 337.417 235.737 337.428 235.731C337.439 235.725 337.452 235.722 337.465 235.722C337.478 235.722 337.491 235.725 337.502 235.731C337.514 235.737 337.523 235.746 337.531 235.756C337.538 235.767 337.543 235.779 337.544 235.792C337.546 235.805 337.545 235.818 337.54 235.83C338.27 238.25 339.07 240.65 339.73 243.1C340.05 244.3 341.27 250.25 341.34 250.67C341.41 251.09 341.46 251.55 341.49 251.99C341.57 252.432 341.59 252.882 341.55 253.33C341.541 253.349 341.527 253.365 341.509 253.376C341.492 253.388 341.471 253.394 341.45 253.394C341.429 253.394 341.408 253.388 341.391 253.376C341.373 253.365 341.359 253.349 341.35 253.33C341.152 252.923 341.004 252.493 340.91 252.05C340.78 251.63 340.67 251.2 340.57 250.76L340.48 250.29C339.87 249.96 339.3 249.51 338.73 249.13C338.16 248.75 337.49 248.34 336.91 247.89C335.83 247.06 335.025 245.924 334.6 244.63C334.171 243.233 333.87 241.801 333.7 240.35C333.43 238.66 333.21 236.95 332.9 235.27C332.89 235.16 333 235.11 333.06 235.21Z" fill="#263238"/>
<path d="M417.83 361.65C418.37 360.74 419.12 359.87 419.75 359.02C420.38 358.17 421.2 357.1 421.91 356.13C423.277 354.257 424.667 352.4 426.08 350.56C428.92 346.85 431.85 343.19 434.86 339.62L437.36 336.68C438.25 335.68 439.2 334.68 440.05 333.56C440.11 333.48 440.2 333.56 440.14 333.64C438.67 335.48 437.36 337.48 435.97 339.38C434.58 341.28 433.19 343.09 431.78 344.93C428.93 348.63 425.99 352.28 422.96 355.84C422.12 356.84 421.31 357.84 420.48 358.84C420.04 359.36 419.58 359.84 419.14 360.39C418.7 360.94 418.39 361.39 417.95 361.79C417.932 361.806 417.907 361.814 417.883 361.812C417.859 361.81 417.836 361.799 417.82 361.78C417.804 361.761 417.796 361.737 417.798 361.713C417.8 361.689 417.811 361.666 417.83 361.65Z" fill="#263238"/>
<path d="M336.7 137.55C338.362 138.133 339.845 139.137 341.003 140.463C342.162 141.79 342.956 143.395 343.31 145.12C343.735 147.411 344.44 149.641 345.41 151.76C346.593 153.795 348.065 155.648 349.78 157.26C352.455 159.742 354.32 162.972 355.13 166.53C356.094 170.655 356.243 174.928 355.57 179.11C356.007 174.741 355.607 170.329 354.39 166.11C353.17 161.86 350.54 159.44 347.79 156.47C345.572 154.116 344.007 151.224 343.25 148.08C342.77 146.08 342.54 144.08 341.57 142.3C340.368 140.406 338.626 138.916 336.57 138.02C336.27 137.85 336.45 137.45 336.7 137.55Z" fill="#263238"/>
<path d="M306.78 165.08C308.63 161.65 310.62 158.67 311.45 154.63C312.21 150.94 312.45 147.12 313.21 143.44C313.21 143.38 313.31 143.39 313.3 143.44C312.2 149.95 312.61 156.3 309.49 162.08C307.8 165.21 306.08 168.14 305.16 171.75C304.226 175.538 303.979 179.464 304.43 183.34C304.43 183.48 304.27 183.5 304.25 183.34C302.925 177.145 303.821 170.681 306.78 165.08Z" fill="#263238"/>
<path d="M332.06 183.12C321.76 184.94 287 173.95 280.49 166.81C270.8 156.2 263.44 137.25 261.35 130.12C260.44 127.01 280.92 117.65 282.35 120.79C285.47 127.52 294.35 148.39 296.08 150.35C297.81 152.31 315.08 164.28 325.08 169.58C338.57 176.71 337.27 182.2 332.06 183.12Z" fill="#DD6A57"/>
<path d="M283.87 125.14C283.71 123.6 278.95 112.07 276.31 108.38C273.606 104.403 270.268 100.897 266.43 97.9999C260.35 93.4599 255.71 90.8799 254.51 91.7899C252.29 93.4699 253.61 96.1999 259.7 100.87C265.79 105.54 264.97 110.07 264.15 113.23C262.122 120.977 262.077 129.111 264.02 136.88C264.02 136.88 284.51 131.09 283.87 125.14Z" fill="#DD6A57"/>
<path d="M264.48 112.09C263.74 115.38 259.65 103.09 255.96 102.09C252.27 101.09 252.57 104.94 253.96 108.32C258.87 120.02 256.71 127.44 262.48 134.16C268.25 140.88 264.48 112.09 264.48 112.09Z" fill="#DD6A57"/>
<path d="M262.9 138.92C263.34 138.55 286.23 125.29 286.23 125.29C286.23 125.29 294.73 146.96 296.47 149.55C298.21 152.14 323.23 168.11 331.88 173.16C341.13 178.57 338.37 186.54 322.08 183.32C305.79 180.1 287.19 173.83 281.01 168.45C275 163.24 262.9 138.92 262.9 138.92Z" fill="#3D9EED"/>
<path d="M266.33 141.45C275.74 137.05 284.97 130.99 286.65 130.05C286.73 130 286.65 129.88 286.57 129.93C284.97 130.93 273.68 136.72 266.24 141.32C266.226 141.333 266.217 141.351 266.216 141.37C266.214 141.389 266.218 141.408 266.229 141.423C266.24 141.439 266.256 141.45 266.275 141.455C266.293 141.46 266.313 141.458 266.33 141.45Z" fill="#263238"/>
<path d="M321.67 214.13L323.37 242.37C323.37 242.37 368.18 233.77 379.11 230.69C379.11 230.69 359.44 181.31 344.83 170.83C337.52 165.59 330.62 167.53 327.1 172.98C326.2 174.36 316.42 194.98 316.41 202.06C316.42 208.32 321.67 214.13 321.67 214.13Z" fill="#3D9EED"/>
<path d="M337.36 171.35C337.14 172.24 332.79 178.01 328.69 177.77C327.35 177.69 327.47 170.39 327.47 170.39L327.36 169.84L325.76 162.27L334.71 156.69L336 156C336 156 336.3 158.1 336.65 160.72C336.65 160.84 336.65 160.96 336.7 161.09L336.76 161.52C336.82 161.91 336.87 162.31 336.92 162.71C336.97 163.11 337 163.31 337.02 163.63C337.04 163.95 337.09 164.26 337.13 164.58C337.357 166.829 337.433 169.091 337.36 171.35Z" fill="#DD6A57"/>
<path d="M336.65 160.67C335.86 162.781 334.619 164.695 333.015 166.278C331.411 167.862 329.481 169.077 327.36 169.84L325.76 162.27L334.71 156.69L336 156C336 156 336.3 158.05 336.65 160.67Z" fill="#263238"/>
<path d="M314.7 152.13C315.21 165.71 323.4 166.94 326.33 166.83C328.98 166.72 338.02 166.04 338.92 152.48C339.82 138.92 333.35 134.87 327.25 134.78C321.15 134.69 314.2 138.56 314.7 152.13Z" fill="#DD6A57"/>
<path d="M316.57 148.31C316.877 148.248 317.181 148.172 317.48 148.08C317.811 148.044 318.12 147.9 318.36 147.67C318.427 147.586 318.464 147.482 318.464 147.375C318.464 147.267 318.427 147.163 318.36 147.08C318.2 146.939 318.006 146.842 317.797 146.8C317.588 146.758 317.372 146.771 317.17 146.84C316.739 146.92 316.353 147.159 316.09 147.51C316.037 147.591 316.009 147.686 316.007 147.783C316.006 147.88 316.031 147.976 316.081 148.059C316.131 148.142 316.203 148.21 316.29 148.254C316.376 148.299 316.473 148.318 316.57 148.31Z" fill="#263238"/>
<path d="M325.49 148C325.177 147.966 324.866 147.912 324.56 147.84C324.227 147.831 323.907 147.711 323.65 147.5C323.587 147.414 323.554 147.311 323.554 147.205C323.554 147.099 323.587 146.995 323.65 146.91C323.798 146.756 323.985 146.646 324.191 146.59C324.397 146.533 324.614 146.533 324.82 146.59C325.257 146.631 325.662 146.839 325.95 147.17C326.015 147.249 326.055 147.346 326.064 147.447C326.074 147.549 326.052 147.652 326.003 147.741C325.953 147.831 325.877 147.903 325.786 147.95C325.695 147.996 325.591 148.013 325.49 148Z" fill="#263238"/>
<path d="M323.8 151.52C323.8 151.52 323.88 151.52 323.88 151.6C323.88 152.53 324 153.6 324.88 153.89V153.94C323.81 153.81 323.64 152.4 323.8 151.52Z" fill="#263238"/>
<path d="M324.62 150.55C326.1 150.41 326.26 153.4 324.88 153.55C323.5 153.7 323.37 150.66 324.62 150.55Z" fill="#263238"/>
<path d="M325.21 150.67C325.48 150.83 325.75 151.11 326.07 151.13C326.39 151.15 326.69 150.82 326.91 150.51C326.91 150.51 326.91 150.51 326.97 150.51C326.97 151.08 326.81 151.68 326.21 151.79C325.61 151.9 325.21 151.41 325.05 150.85C325 150.77 325.1 150.61 325.21 150.67Z" fill="#263238"/>
<path d="M318.48 151.62C318.48 151.62 318.41 151.62 318.42 151.71C318.5 152.63 318.42 153.71 317.63 154.06C317.63 154.06 317.63 154.12 317.63 154.11C318.65 153.91 318.71 152.48 318.48 151.62Z" fill="#263238"/>
<path d="M317.6 150.71C316.11 150.71 316.17 153.71 317.55 153.71C318.93 153.71 318.85 150.73 317.6 150.71Z" fill="#263238"/>
<path d="M317 150.92C316.77 151.08 316.54 151.38 316.26 151.4C315.98 151.42 315.69 151.11 315.47 150.8C315.47 151.37 315.66 151.96 316.21 152.06C316.76 152.16 317.07 151.65 317.21 151.06C317.16 151 317.08 150.85 317 150.92Z" fill="#263238"/>
<path d="M320.27 155.69C320.2 156.354 320.164 157.022 320.16 157.69C320.16 157.75 320.32 157.77 320.54 157.78C321.11 157.866 321.692 157.792 322.222 157.566C322.752 157.34 323.208 156.971 323.54 156.5C323.547 156.486 323.549 156.471 323.546 156.456C323.543 156.441 323.535 156.427 323.524 156.417C323.513 156.407 323.498 156.401 323.483 156.4C323.468 156.398 323.453 156.402 323.44 156.41C322.632 157.015 321.649 157.341 320.64 157.34C320.59 157.16 320.95 154.97 320.85 154.96C320.348 155.029 319.857 155.164 319.39 155.36C319.58 152.46 320.24 149.61 320.39 146.72C320.39 146.696 320.381 146.673 320.364 146.656C320.347 146.639 320.324 146.63 320.3 146.63C320.276 146.63 320.253 146.639 320.236 146.656C320.219 146.673 320.21 146.696 320.21 146.72C319.411 149.746 318.915 152.845 318.73 155.97C318.69 156.35 320 155.81 320.27 155.69Z" fill="#263238"/>
<path d="M320.54 157.38C320.9 157.917 321.392 158.351 321.97 158.64C322.281 158.789 322.63 158.838 322.97 158.78C323.73 158.63 323.79 157.95 323.7 157.36C323.644 157.043 323.55 156.734 323.42 156.44C322.583 157.048 321.575 157.377 320.54 157.38Z" fill="#263238"/>
<path d="M322 158.64C322.311 158.789 322.66 158.838 323 158.78C323.76 158.63 323.82 157.95 323.73 157.36C323.34 157.35 322.958 157.471 322.645 157.703C322.332 157.934 322.105 158.264 322 158.64Z" fill="#FF9BBC"/>
<path d="M338.37 152.07C335.08 152.25 334.87 147.07 334.87 147.07C334.87 147.07 331.12 146.91 330.57 140.9C329.903 142.143 328.955 143.214 327.803 144.027C326.651 144.841 325.325 145.376 323.93 145.59C322.86 145.8 326.32 142.86 326.32 142.86C326.32 142.86 322.21 146.95 314.16 145.86C313.59 145.78 313.75 136.53 319.88 133.37C326.01 130.21 332.37 132.37 336.42 136.13C336.42 136.13 341.1 138.04 341.82 142.35C342.54 146.66 339.64 152 338.37 152.07Z" fill="#263238"/>
<path d="M336.8 153.61C336.8 153.61 339.22 149.03 341.26 149.84C343.3 150.65 341.85 157.03 339.71 158.14C339.446 158.303 339.152 158.411 338.845 158.457C338.538 158.503 338.225 158.487 337.925 158.408C337.625 158.329 337.344 158.191 337.099 158C336.854 157.81 336.65 157.571 336.5 157.3L336.8 153.61Z" fill="#DD6A57"/>
<path d="M340.8 151.66C340.8 151.66 340.85 151.66 340.8 151.72C340.119 152.17 339.542 152.759 339.106 153.448C338.67 154.138 338.385 154.912 338.27 155.72C338.342 155.551 338.449 155.4 338.585 155.277C338.721 155.154 338.882 155.061 339.057 155.006C339.231 154.951 339.416 154.935 339.598 154.958C339.78 154.981 339.954 155.043 340.11 155.14V155.23C339.823 155.176 339.527 155.213 339.262 155.334C338.997 155.456 338.776 155.657 338.63 155.91C338.39 156.335 338.196 156.784 338.05 157.25C337.99 157.4 337.73 157.35 337.76 157.19C337.46 155.13 338.67 152.13 340.8 151.66Z" fill="#263238"/>
<path d="M348.39 176.11C365.64 194.28 379.81 232.11 371.51 235.62C363.93 238.86 339.9 235.86 330.02 233.51C327.12 232.81 333.02 210.33 336.07 211.07C339.82 211.96 349.41 213.34 349.8 213.31C350.63 213.25 341.8 188.1 338.96 178.45C335 165 341.92 169.29 348.39 176.11Z" fill="#DD6A57"/>
<path d="M306.17 205.9C305.812 206.519 305.65 207.233 305.703 207.946C305.757 208.66 306.024 209.34 306.47 209.9C305.359 210.425 304.467 211.324 303.95 212.44C303.12 214.44 305.95 216.62 305.95 216.62C304.908 217.408 304.128 218.492 303.71 219.73C303.12 221.73 305.63 224.32 305.63 224.32C305.068 225.58 304.979 227 305.38 228.32C306.58 231.77 312.04 233.01 315.5 233.84C318.96 234.67 329.5 233.76 331.57 233.79L337 211.67C337 211.67 322.55 203.57 318.34 203.18C314.81 202.85 307.68 203.57 306.17 205.9Z" fill="#DD6A57"/>
<path d="M306.71 209.63C310.56 209.08 314.36 209.69 318.19 210.09C318.203 210.095 318.214 210.104 318.222 210.116C318.23 210.127 318.234 210.141 318.234 210.155C318.234 210.169 318.23 210.183 318.222 210.194C318.214 210.206 318.203 210.215 318.19 210.22C314.38 209.78 310.54 210.1 306.73 209.81C306.706 209.813 306.682 209.806 306.663 209.791C306.645 209.776 306.633 209.754 306.63 209.73C306.627 209.706 306.634 209.682 306.649 209.663C306.664 209.645 306.686 209.633 306.71 209.63Z" fill="#263238"/>
<path d="M306.06 216.4C306.946 216.358 307.833 216.432 308.7 216.62C309.63 216.77 310.56 216.93 311.48 217.1C313.33 217.45 315.17 217.84 316.99 218.29C317.08 218.29 317.07 218.43 316.99 218.42C315.15 218.067 313.3 217.757 311.44 217.49L308.66 217.11C307.773 217.056 306.894 216.905 306.04 216.66C306.015 216.648 305.994 216.628 305.979 216.604C305.965 216.579 305.959 216.551 305.961 216.523C305.963 216.495 305.974 216.468 305.992 216.446C306.009 216.424 306.033 216.408 306.06 216.4Z" fill="#263238"/>
<path d="M305.67 224.39C306.473 224.36 307.275 224.472 308.04 224.72L310.56 225.23C312.24 225.56 313.92 225.9 315.61 226.17C315.7 226.17 315.68 226.32 315.61 226.31C313.89 226.03 312.16 225.79 310.45 225.5L307.92 225.07C307.137 225.004 306.372 224.801 305.66 224.47C305.66 224.47 305.64 224.39 305.67 224.39Z" fill="#263238"/>
<path d="M348.91 212.59C350.1 211.59 340.68 187.9 338.11 177.12C335.54 166.34 340.52 166.94 348.41 175.62C356.87 184.92 370.93 205.49 374.13 226.68C375.13 233.3 376.48 238.02 361.13 237.75C352.227 237.656 343.345 236.88 334.56 235.43L337.9 211.23C337.9 211.23 348.57 212.88 348.91 212.59Z" fill="#3D9EED"/>
<path d="M340 235.24C342 225.66 342.56 215.3 342.8 213.5C342.8 213.42 342.67 213.41 342.66 213.5C342.52 215.27 340.55 227.04 339.85 235.23C339.85 235.32 340 235.33 340 235.24Z" fill="#263238"/>
<path d="M360.55 214.47C359.603 214.202 358.637 214.005 357.66 213.88L354.97 213.39L353.8 213.18H353.91L355.47 212.96C355.99 212.88 356.47 212.77 357.04 212.72C357.12 212.72 357.12 212.58 357.04 212.59C356.52 212.66 356.04 212.66 355.48 212.69L353.85 212.8L352.43 212.95C351.56 212.81 350.69 212.67 349.82 212.55C349.44 210.83 348.82 209.13 348.31 207.45C347.8 205.77 347.19 203.95 346.59 202.21C345.99 200.47 345.38 198.81 344.72 197.13C344.39 196.29 342.63 191.13 342.05 189.77C342.05 189.68 341.91 189.77 341.93 189.82C342.27 191.18 344.07 196.49 344.33 197.35C344.52 197.98 344.72 198.61 344.92 199.23L344.84 199.14L343.79 197.74C343.09 196.79 342.39 195.83 341.79 194.82C341.79 194.73 341.61 194.82 341.66 194.9C342.24 195.96 342.79 197.02 343.4 198.05C343.71 198.57 344.03 199.05 344.4 199.57C344.705 200.076 345.067 200.546 345.48 200.97C345.64 201.48 345.79 201.97 345.96 202.51C346.5 204.23 347.05 205.95 347.58 207.67C348.11 209.39 348.5 210.87 349.06 212.42C347.27 212.18 345.49 211.97 343.7 211.75L340.96 211.43C339.96 211.32 338.96 211.32 337.96 211.15C337.87 211.15 337.84 211.27 337.96 211.28C338.96 211.39 339.9 211.69 340.86 211.86L343.56 212.33C345.46 212.65 347.37 212.99 349.28 213.33C351.19 213.67 353.06 213.83 354.95 214.05L357.8 214.37C358.717 214.511 359.642 214.588 360.57 214.6L360.55 214.47Z" fill="#263238"/>
<path d="M364.77 237.77C356.52 237.48 341.67 236.35 334.77 235.43C334.759 235.426 334.748 235.424 334.737 235.425C334.725 235.426 334.714 235.43 334.705 235.437C334.695 235.443 334.688 235.452 334.682 235.462C334.677 235.472 334.674 235.483 334.674 235.495C334.674 235.506 334.677 235.518 334.682 235.528C334.688 235.538 334.695 235.546 334.705 235.553C334.714 235.559 334.725 235.563 334.737 235.564C334.748 235.566 334.759 235.564 334.77 235.56C344.622 237.676 354.703 238.526 364.77 238.09C364.812 238.09 364.853 238.073 364.883 238.043C364.913 238.013 364.93 237.972 364.93 237.93C364.93 237.887 364.913 237.847 364.883 237.817C364.853 237.787 364.812 237.77 364.77 237.77Z" fill="#263238"/>
<path d="M369.45 209C369 208 368.52 207 368.06 206C367.52 204.84 367.47 205 367.96 206.3C368.45 207.6 368.87 208.73 369.34 209.94C370.26 212.35 375.03 226.94 374.5 232.1C374.5 232.17 374.61 232.18 374.62 232.1C375.85 225.21 371.12 212.77 369.45 209Z" fill="#263238"/>
<path d="M166.6 142.85C177.94 153.85 180.25 182.16 166.27 201.2C154.43 217.32 126.94 220.39 115.12 210.78C102.59 200.57 104.43 184.03 113.59 175.98C123.04 167.68 134.38 169.91 140.11 162.51C142.85 158.97 143.87 151.51 147.69 146.06C152 140 160.8 137.2 166.6 142.85Z" fill="#263238"/>
<path d="M156.18 140.76C157.44 140.29 158.63 133.27 154.02 129.93C149.41 126.59 143.5 130.41 146.02 136.16C147.55 139.79 153.53 141.75 156.18 140.76Z" fill="#263238"/>
<path d="M145 151.11C144.172 153.675 143.132 156.167 141.89 158.56C140.647 161.006 138.89 163.155 136.74 164.86C135.601 165.651 134.336 166.246 133 166.62C131.7 167.04 130.4 167.39 129.11 167.75C126.527 168.427 123.981 169.234 121.48 170.17C119.001 171.08 116.649 172.303 114.48 173.81C112.314 175.332 110.485 177.284 109.109 179.545C107.732 181.806 106.837 184.327 106.48 186.95C106.089 189.598 106.012 192.283 106.25 194.95C105.822 192.282 105.738 189.569 106 186.88C106.285 184.159 107.122 181.526 108.46 179.14C109.826 176.75 111.692 174.683 113.93 173.08C116.157 171.499 118.577 170.209 121.13 169.24C123.67 168.314 126.257 167.523 128.88 166.87C130.18 166.52 131.47 166.18 132.74 165.79C133.997 165.444 135.197 164.915 136.3 164.22C138.428 162.647 140.188 160.63 141.46 158.31C142.813 155.999 143.996 153.592 145 151.11Z" fill="#263238"/>
<path d="M168.77 145.31C172.064 150.076 174.604 155.321 176.3 160.86C178.042 166.427 178.72 172.272 178.3 178.09C178.057 181.001 177.463 183.872 176.53 186.64C176.32 187.34 176.04 188.01 175.77 188.69C175.5 189.37 175.24 190.05 174.9 190.69C174.56 191.33 174.27 192.01 173.9 192.69L172.77 194.56C169.609 199.428 165.534 203.635 160.77 206.95C161.84 205.95 162.97 205.1 164 204.1C165.03 203.1 166.09 202.1 167 201.02C168.935 198.915 170.647 196.616 172.11 194.16C175.085 189.254 176.873 183.72 177.33 178C177.773 172.299 177.173 166.566 175.56 161.08C174.788 158.318 173.829 155.612 172.69 152.98C171.568 150.333 170.258 147.77 168.77 145.31Z" fill="#263238"/>
<path d="M147.57 129.52C146.21 130.659 145.273 132.223 144.91 133.96C144.728 134.77 144.762 135.614 145.007 136.407C145.253 137.2 145.702 137.915 146.31 138.48C147.607 139.634 149.194 140.412 150.9 140.73C151.766 140.912 152.646 141.019 153.53 141.05C154.424 141.119 155.322 141.021 156.18 140.76C155.369 141.205 154.472 141.471 153.55 141.54C152.623 141.65 151.687 141.65 150.76 141.54C148.852 141.332 147.055 140.535 145.62 139.26C144.889 138.587 144.363 137.721 144.105 136.762C143.846 135.802 143.866 134.789 144.16 133.84C144.402 132.925 144.829 132.069 145.416 131.325C146.002 130.582 146.736 129.968 147.57 129.52Z" fill="#263238"/>
<path d="M154.14 177.73C150.59 201.06 130.01 248.56 126.9 254.66C124.79 258.8 102.67 248.13 104.53 245.54C106.9 242.21 130.68 200.48 142.02 185.38C148.28 177.05 154.87 172.91 154.14 177.73Z" fill="#F7A9A0"/>
<path d="M105 244.88C102.42 248.28 98.3801 257.99 97.4501 261.23C96.5201 264.47 94.5401 274 97.0001 275C99.4601 276 100.21 273.22 100.21 273.22C100.21 273.22 100.01 277.37 102.52 278.12C105.03 278.87 106.15 274.56 106.15 274.56C106.15 274.56 106.25 278.84 108.81 279.4C111.37 279.96 111.81 275.4 111.81 275.4C111.81 275.4 111.72 279.32 114.02 278.9C116.8 278.39 116.14 271.15 117.43 267.65C117.73 266.85 124.52 251.96 124.52 251.96L105 244.88Z" fill="#F7A9A0"/>
<path d="M111.26 275.53C110.79 270.21 111.51 267.8 113.92 263.12C113.92 263.03 113.84 262.94 113.78 263.03C111.01 267.39 109.67 270.29 111 275.57C111.07 275.83 111.28 275.79 111.26 275.53Z" fill="#263238"/>
<path d="M105.73 274.68C105.73 269.1 106.48 266.48 108.64 261.39C108.64 261.32 108.56 261.26 108.52 261.33C105.98 266.14 104.71 269.06 105.45 274.63C105.48 274.88 105.73 274.93 105.73 274.68Z" fill="#263238"/>
<path d="M99.87 272.66C100.25 267.26 100.96 264.35 103.69 259.66C103.698 259.639 103.699 259.616 103.692 259.595C103.685 259.574 103.671 259.555 103.653 259.542C103.635 259.53 103.613 259.524 103.59 259.525C103.568 259.526 103.547 259.535 103.53 259.55C100.587 263.231 99.2117 267.923 99.7 272.61C99.73 273 99.84 273 99.87 272.66Z" fill="#263238"/>
<path d="M128.32 250.1C128.32 250.1 128.02 256.79 127.23 259.7C126.44 262.61 119.55 272.38 117.35 271.01C114.52 269.24 117.35 262.81 119.21 259.85C119.21 259.85 112.65 255.76 113.72 250.7C114.79 245.64 128.32 250.1 128.32 250.1Z" fill="#F7A9A0"/>
<path d="M116.73 270.27C115.31 266.79 117.95 263.05 119.5 260.04C119.525 259.996 119.539 259.948 119.541 259.897C119.543 259.847 119.532 259.798 119.511 259.752C119.489 259.707 119.457 259.668 119.417 259.638C119.376 259.608 119.33 259.588 119.28 259.58C116.65 257.68 113.48 254.24 113.54 250.81C113.54 250.789 113.532 250.768 113.517 250.753C113.502 250.738 113.481 250.73 113.46 250.73C113.439 250.73 113.418 250.738 113.403 250.753C113.388 250.768 113.38 250.789 113.38 250.81C112.82 254.47 115.66 258.11 118.68 260.01C117.04 263.07 114.56 266.93 116.68 270.29C116.71 270.3 116.74 270.29 116.73 270.27Z" fill="#263238"/>
<path d="M127.19 203.82C127.19 203.82 130.55 205.55 134.45 207.61C139.55 210.28 145.58 213.5 146.22 214.05C146.22 214.05 152.75 193 154.22 183.59C155.69 174.18 154.33 172.34 147.47 178.01C144.16 180.76 139.32 186.87 135.21 192.46C130.78 198.44 127.19 203.82 127.19 203.82Z" fill="#3D9EED"/>
<path d="M127.19 203.82C127.19 203.82 130.55 205.55 134.45 207.61C139.55 210.28 145.58 213.5 146.22 214.05C146.22 214.05 152.75 193 154.22 183.59C155.69 174.18 154.33 172.34 147.47 178.01C144.16 180.76 139.32 186.87 135.21 192.46C130.78 198.44 127.19 203.82 127.19 203.82Z" fill="#3D9EED"/>
<path d="M154.2 183.59C152.75 193 146.2 214.05 146.2 214.05C145.56 213.5 139.53 210.28 134.43 207.61L131.61 206.13C129.04 204.78 127.17 203.82 127.17 203.82C127.17 203.82 130.76 198.44 135.17 192.46C139.28 186.87 144.12 180.76 147.43 178.01L148.15 177.43C154.4 172.48 155.6 174.52 154.2 183.59Z" fill="#3D9EED"/>
<path d="M154.2 183.59C152.75 193 146.2 214.05 146.2 214.05C145.56 213.5 139.53 210.28 134.43 207.61L131.61 206.13C129.04 204.78 127.17 203.82 127.17 203.82C127.17 203.82 130.76 198.44 135.17 192.46C139.28 186.87 144.12 180.76 147.43 178.01L148.15 177.43C154.4 172.48 155.6 174.52 154.2 183.59Z" fill="#3D9EED"/>
<path d="M154.2 183.59C152.75 193 146.2 214.05 146.2 214.05C145.56 213.5 139.53 210.28 134.43 207.61L131.61 206.13C135.66 199 143.25 185.89 148.15 177.43C154.4 172.48 155.6 174.52 154.2 183.59Z" fill="#263238"/>
<path d="M147.07 209.35C141.485 206.141 135.733 203.23 129.84 200.63C129.77 200.63 129.73 200.71 129.84 200.74C131.27 201.38 140.46 206.48 147.06 209.47C147.09 209.5 147.14 209.39 147.07 209.35Z" fill="#263238"/>
<path d="M154.73 173C154.88 173.9 158.78 179.95 162.87 180C164.2 180 164.61 172.76 164.61 172.76L164.77 172.23L166.91 164.82L158.44 158.62L157.21 157.79C157.21 157.79 156.76 159.86 156.21 162.43C156.21 162.55 156.16 162.67 156.14 162.8C156.12 162.93 156.07 163.08 156.04 163.22C155.96 163.6 155.87 164 155.79 164.39C155.71 164.78 155.67 164.98 155.62 165.29C155.57 165.6 155.51 165.91 155.45 166.23C155.054 168.467 154.814 170.729 154.73 173Z" fill="#F7A9A0"/>
<path d="M156.22 162.41C156.849 164.566 157.94 166.559 159.416 168.251C160.892 169.944 162.719 171.295 164.77 172.21L166.91 164.8L158.44 158.6L157.21 157.77C157.21 157.77 156.76 159.84 156.22 162.41Z" fill="#263238"/>
<path d="M176.68 151.88C179.82 165.03 172.36 168.52 169.45 169.07C166.85 169.57 158.03 171.44 153.55 158.68C149.07 145.92 154.19 140.3 160 138.59C165.81 136.88 173.54 138.72 176.68 151.88Z" fill="#F7A9A0"/>
<path d="M175.35 149.19C175.03 149.19 174.73 149.19 174.41 149.19C174.081 149.219 173.752 149.142 173.47 148.97C173.392 148.898 173.34 148.801 173.323 148.696C173.307 148.591 173.327 148.483 173.38 148.39C173.505 148.219 173.674 148.084 173.87 148.001C174.065 147.918 174.28 147.89 174.49 147.92C174.927 147.908 175.352 148.062 175.68 148.35C175.737 148.422 175.775 148.507 175.789 148.598C175.802 148.688 175.792 148.781 175.759 148.866C175.725 148.951 175.67 149.026 175.598 149.083C175.526 149.14 175.441 149.177 175.35 149.19Z" fill="#263238"/>
<path d="M166.81 151.09C167.106 150.993 167.397 150.88 167.68 150.75C168.004 150.673 168.292 150.49 168.5 150.23C168.548 150.136 168.565 150.028 168.547 149.923C168.529 149.819 168.477 149.723 168.4 149.65C168.225 149.532 168.021 149.463 167.811 149.449C167.6 149.435 167.389 149.477 167.2 149.57C166.781 149.703 166.426 149.984 166.2 150.36C166.155 150.45 166.138 150.552 166.15 150.652C166.162 150.752 166.203 150.846 166.267 150.924C166.332 151.001 166.418 151.058 166.514 151.088C166.61 151.117 166.713 151.118 166.81 151.09Z" fill="#263238"/>
<path d="M169.32 154.05C169.32 154.05 169.26 154.05 169.32 154.14C169.52 155.04 169.6 156.14 168.83 156.56C168.83 156.56 168.83 156.62 168.83 156.61C169.77 156.28 169.65 154.87 169.32 154.05Z" fill="#263238"/>
<path d="M168.33 153.26C166.86 153.42 167.33 156.36 168.67 156.26C170.01 156.16 169.57 153.12 168.33 153.26Z" fill="#263238"/>
<path d="M167.78 153.5C167.55 153.7 167.34 154.03 167.03 154.11C166.72 154.19 166.37 153.93 166.09 153.67H166.04C166.12 154.24 166.42 154.78 167.04 154.78C167.66 154.78 167.92 154.21 167.98 153.63C168 153.56 167.87 153.42 167.78 153.5Z" fill="#263238"/>
<path d="M174.14 152.81C174.14 152.81 174.22 152.81 174.22 152.88C174.32 153.79 174.59 154.88 175.46 155.01V155.06C174.43 155.06 174.09 153.69 174.14 152.81Z" fill="#263238"/>
<path d="M174.82 151.74C176.27 151.42 176.82 154.34 175.46 154.64C174.1 154.94 173.6 152 174.82 151.74Z" fill="#263238"/>
<path d="M175.46 151.82C175.72 151.93 176 152.17 176.28 152.14C176.56 152.11 176.79 151.74 176.93 151.4C176.93 151.4 176.93 151.4 176.99 151.4C177.1 151.95 176.99 152.57 176.51 152.78C176.03 152.99 175.59 152.55 175.35 152.02C175.31 152 175.36 151.77 175.46 151.82Z" fill="#263238"/>
<path d="M170.36 161.08C170.6 161.27 170.85 161.55 171.19 161.54C171.543 161.501 171.883 161.388 172.19 161.21C172.19 161.21 172.25 161.21 172.19 161.21C172.079 161.405 171.917 161.565 171.721 161.675C171.526 161.784 171.304 161.838 171.08 161.83C170.889 161.797 170.712 161.71 170.57 161.579C170.428 161.447 170.328 161.278 170.28 161.09C170.28 161.09 170.32 161.05 170.36 161.08Z" fill="#263238"/>
<path d="M173.63 157.18C173.63 157.18 174.04 158.51 174.14 159.18C174.14 159.24 174 159.29 173.78 159.34C173.247 159.531 172.673 159.571 172.119 159.456C171.565 159.341 171.053 159.076 170.64 158.69C170.63 158.678 170.624 158.663 170.623 158.647C170.623 158.632 170.628 158.616 170.637 158.604C170.646 158.591 170.659 158.582 170.674 158.578C170.689 158.573 170.705 158.574 170.72 158.58C171.628 159.003 172.647 159.126 173.63 158.93C173.63 158.74 172.85 156.68 172.95 156.65C173.456 156.616 173.963 156.65 174.46 156.75C173.69 153.96 172.46 151.31 171.76 148.53C171.76 148.43 171.88 148.37 171.92 148.46C173.302 151.254 174.404 154.179 175.21 157.19C175.3 157.52 173.9 157.25 173.63 157.18Z" fill="#263238"/>
<path d="M173.65 158.83C173.411 159.428 173.022 159.955 172.52 160.36C172.233 160.579 171.881 160.699 171.52 160.7C170.75 160.7 170.52 160.06 170.52 159.46C170.501 159.125 170.528 158.788 170.6 158.46C171.55 158.911 172.62 159.04 173.65 158.83Z" fill="#263238"/>
<path d="M172.52 160.36C172.233 160.579 171.881 160.699 171.52 160.7C170.75 160.7 170.52 160.06 170.52 159.46C170.906 159.364 171.313 159.4 171.676 159.563C172.039 159.726 172.336 160.007 172.52 160.36Z" fill="#FF9BBC"/>
<path d="M153.77 158.24C155.22 157.95 158.47 153.38 157.58 146.3C157.58 146.3 157.94 152.71 157.58 153.71C157.22 154.71 159.39 151.14 158.76 145.42C160.738 146.451 162.852 147.195 165.04 147.63C167.83 148 169.48 147.74 169.64 147.52C169.8 147.3 165.64 146.61 164.42 145.52C164.42 145.52 172.05 147.83 175.42 147.62C175.81 147.62 175.15 139.68 169.58 137.07C164.01 134.46 156.43 139.2 154.58 141.6C154.58 141.6 152.08 142.33 149.84 146.49C147.6 150.65 152.21 158.56 153.77 158.24Z" fill="#263238"/>
<path d="M156 158.88C156 158.88 152.46 155.13 150.72 156.46C148.98 157.79 152.08 163.46 154.43 164C154.726 164.084 155.036 164.108 155.342 164.069C155.647 164.031 155.942 163.931 156.208 163.776C156.474 163.621 156.706 163.414 156.89 163.167C157.074 162.921 157.207 162.639 157.28 162.34L156 158.88Z" fill="#F7A9A0"/>
<path d="M80.19 382.48C80.58 382.29 135.4 355.27 144.47 338.27C160.68 307.87 166.32 269.01 168.36 259.88C172.558 249.361 175.411 238.354 176.85 227.12C176.85 227.12 132.67 227.12 132.67 227.12C132.67 227.12 121.08 249.29 127.06 264.95C127.6 266.39 117.23 315.6 112.16 321.43C106.52 327.9 63.27 349.61 62.54 349.98L80.19 382.48Z" fill="#37474F"/>
<path d="M156.23 232.74C154.05 243.9 151.57 255.01 149.07 266.1C146.57 277.19 143.94 288.1 141.17 299.03C139.77 304.55 138.33 310.053 136.85 315.54C135.5 320.54 134.18 325.66 130.78 329.69C127.38 333.72 123.04 336.49 118.88 339.37C114.48 342.37 109.96 345.28 105.36 348.01C96.08 353.53 86.51 358.54 76.9 363.45L73.37 365.24C73.11 365.37 73.37 365.76 73.61 365.63C83.35 360.79 93.07 355.85 102.49 350.41C107.203 347.697 111.83 344.85 116.37 341.87C118.6 340.4 120.8 338.87 122.98 337.33C125.032 335.904 127.004 334.369 128.89 332.73C130.742 331.103 132.328 329.197 133.59 327.08C134.803 324.882 135.756 322.549 136.43 320.13C138.04 314.82 139.38 309.41 140.77 304.04C143.65 292.94 146.317 281.793 148.77 270.6C151.26 259.41 153.57 248.18 155.58 236.89C155.83 235.52 156.07 234.15 156.33 232.78C156.39 232.68 156.24 232.64 156.23 232.74Z" fill="#263238"/>
<path d="M176.85 227.12C175.411 238.354 172.558 249.361 168.36 259.88C168.15 260.8 167.91 262.02 167.63 263.51C167.56 263.87 167.49 264.24 167.41 264.62C167.33 265 167.22 265.62 167.11 266.19C167 266.76 166.92 267.19 166.82 267.73L166.61 268.8C166.48 269.51 166.33 270.26 166.18 271.03C166.12 271.34 166.06 271.66 165.99 271.97C165.88 272.56 165.75 273.17 165.63 273.79C165.12 276.29 164.55 279.02 163.91 281.93C163.63 283.16 163.34 284.44 163.03 285.74C162.72 287.04 162.41 288.37 162.03 289.74C161.89 290.32 161.74 290.9 161.59 291.48C160.83 294.48 159.98 297.67 159.05 300.88C158.85 301.59 158.64 302.3 158.43 303.02C157.483 306.187 156.457 309.4 155.35 312.66C155.07 313.47 154.78 314.28 154.5 315.1C153.92 316.72 153.317 318.347 152.69 319.98L136.33 227.12C147 227.1 176.86 227.1 176.85 227.12Z" fill="#263238"/>
<path d="M47.3301 357.85C45.3301 358.85 43.4301 359.93 41.5701 360.95L38.1901 362.82C31.1901 366.72 25.9101 369.9 25.8401 370.72C25.6101 373.22 50.8901 422.91 52.3501 424.36C53.8101 425.81 58.0001 421.72 58.5801 419C58.9101 417.35 58.5801 408.07 58.3201 401.05C58.1201 396.54 57.9501 392.96 57.9501 392.96L63.8501 390.14L90.7601 377.33L73.7601 344.14C73.7601 344.14 60.0801 351 47.3301 357.85Z" fill="white"/>
<path d="M84.61 382.89C83.93 381.97 66.08 346.71 66.08 346.71C66.08 346.71 26.36 367.31 25.34 370.46C24.32 373.61 51.84 425.52 53 426.05C54.16 426.58 58.72 423.05 60.06 417.68C61.06 413.78 59.79 394.44 59.79 394.44L84.61 382.89Z" fill="#3D9EED"/>
<path d="M62.2 395.85C62.11 392.11 60.63 387.85 57.48 385.62C57.36 385.54 57.24 385.71 57.3 385.82C59.1374 389.023 60.6291 392.412 61.75 395.93C61.7661 395.984 61.8016 396.03 61.8497 396.06C61.8978 396.09 61.9551 396.101 62.0107 396.091C62.0664 396.081 62.1164 396.051 62.1513 396.006C62.1862 395.962 62.2036 395.906 62.2 395.85Z" fill="#455A64"/>
<path d="M64.9201 394.46C64.8301 390.72 63.3401 386.46 60.1901 384.23C60.0701 384.15 59.9501 384.32 60.0101 384.43C61.8557 387.629 63.3478 391.019 64.4601 394.54C64.4814 394.59 64.5188 394.631 64.5663 394.656C64.6138 394.682 64.6685 394.691 64.7217 394.682C64.7749 394.673 64.8234 394.646 64.8594 394.605C64.8954 394.565 64.9168 394.514 64.9201 394.46Z" fill="#455A64"/>
<path d="M67.6301 393.07C67.5401 389.33 66.0501 385.07 62.9101 382.84C62.7901 382.76 62.6701 382.93 62.7301 383.04C64.5683 386.241 66.0569 389.631 67.1701 393.15C67.1914 393.2 67.2288 393.241 67.2763 393.266C67.3237 393.292 67.3785 393.301 67.4317 393.292C67.4848 393.282 67.5333 393.255 67.5693 393.215C67.6053 393.175 67.6267 393.124 67.6301 393.07Z" fill="#455A64"/>
<path d="M70.35 391.68C70.25 387.94 68.77 383.68 65.62 381.45C65.5 381.36 65.38 381.54 65.44 381.65C67.2774 384.853 68.7691 388.242 69.89 391.76C69.9114 391.81 69.9488 391.851 69.9962 391.876C70.0437 391.902 70.0984 391.911 70.1516 391.902C70.2048 391.893 70.2533 391.866 70.2893 391.825C70.3253 391.785 70.3467 391.734 70.35 391.68Z" fill="#455A64"/>
<path d="M73.06 390.29C72.97 386.55 71.48 382.29 68.34 380.06C68.21 379.97 68.0901 380.15 68.1601 380.26C69.9983 383.461 71.4869 386.851 72.6 390.37C72.6214 390.42 72.6588 390.461 72.7063 390.486C72.7537 390.512 72.8085 390.521 72.8616 390.512C72.9148 390.502 72.9633 390.475 72.9993 390.435C73.0353 390.395 73.0567 390.344 73.06 390.29Z" fill="#455A64"/>
<path d="M150.52 266.65C150.52 266.65 154.3 302.49 156.06 320.53C156.51 325.02 156.81 328.42 156.92 329.87C156.92 330.45 156.98 339.81 157 352.06C157 362.8 157 375.74 157 386.89V394.89C157 405.17 157 412.49 157 412.49H193.43C193.43 412.49 193.43 412.15 193.43 411.49C193.43 411.15 193.43 410.73 193.43 410.23C193.43 409.73 193.43 409.13 193.43 408.45C193.43 408.06 193.43 407.63 193.43 407.19C193.43 404.12 193.54 399.87 193.61 394.92C193.61 392.38 193.68 389.67 193.72 386.83C194 364.77 194.23 335.14 193.6 326.41C193.52 325.41 193.45 324.36 193.38 323.29C191.74 298.58 190.83 262.61 178.71 227.06H132.61C132.61 227.06 133.01 247.94 142.51 263.06C145.245 264.106 147.919 265.305 150.52 266.65Z" fill="#37474F"/>
<path d="M184.82 337.7C184.64 326.18 184.17 314.7 183.27 303.18C182.37 291.66 180.99 280.5 179.15 269.24C177.387 257.911 174.933 246.7 171.8 235.67C171.4 234.29 170.99 232.91 170.57 231.54C170.565 231.521 170.556 231.503 170.544 231.488C170.532 231.472 170.517 231.459 170.499 231.449C170.482 231.44 170.463 231.433 170.444 231.431C170.424 231.428 170.404 231.43 170.385 231.435C170.366 231.44 170.348 231.449 170.333 231.461C170.317 231.474 170.304 231.489 170.294 231.506C170.285 231.523 170.278 231.542 170.276 231.562C170.273 231.581 170.275 231.601 170.28 231.62C173.23 242.62 175.77 253.79 177.7 265.06C179.63 276.33 180.9 287.8 181.86 299.24C182.82 310.68 183.36 322.24 183.65 333.73C183.94 345.22 183.96 356.73 183.85 368.22C183.74 379.71 183.29 391.22 183.26 402.68C183.26 404.12 183.26 405.56 183.26 407C183.26 407.1 183.41 407.09 183.41 407C183.62 401.24 183.96 395.48 184.15 389.71C184.34 383.94 184.51 378.16 184.65 372.38C184.87 360.82 185 349.26 184.82 337.7Z" fill="#263238"/>
<path d="M156.69 269.49C154.42 268.25 152.09 267.13 149.69 266.11C147.29 265.09 144.86 264.17 142.49 263.11C142.4 263.11 142.32 263.2 142.41 263.25C144.75 264.45 147.04 265.74 149.41 266.88C151.732 267.998 154.128 268.957 156.58 269.75C156.75 269.8 156.83 269.56 156.69 269.49Z" fill="#263238"/>
<path d="M157.09 416.69C157.09 418.91 157.17 421.11 157.23 423.23C157.23 424.55 157.31 425.84 157.35 427.08C157.62 435.08 158.06 441.24 158.75 441.68C160.87 443.02 216.62 443.19 218.57 442.55C220.52 441.91 218.81 436.3 216.65 434.55C215.34 433.5 206.95 429.55 200.57 426.6C196.47 424.71 193.2 423.24 193.2 423.24L193.38 416.7L194.25 386.9H156.93C156.93 386.9 156.85 402.23 157.09 416.69Z" fill="white"/>
<path d="M196.38 394.92C195.25 395.11 155.73 394.92 155.73 394.92C155.73 394.92 155.95 439.66 158.29 442C160.63 444.34 219.38 443.53 220.37 442.75C221.36 441.97 220.3 436.28 216.14 432.64C213.14 430 195.34 422.29 195.34 422.29L196.38 394.92Z" fill="#3D9EED"/>
<path d="M197.7 420.78C194.33 419.15 189.84 418.52 186.44 420.32C186.31 420.39 186.44 420.57 186.53 420.57C190.209 420.393 193.897 420.611 197.53 421.22C197.588 421.243 197.653 421.241 197.71 421.216C197.768 421.19 197.812 421.143 197.835 421.085C197.858 421.027 197.856 420.962 197.831 420.905C197.805 420.847 197.758 420.803 197.7 420.78Z" fill="#455A64"/>
<path d="M197.7 417.73C194.33 416.1 189.84 415.47 186.44 417.27C186.31 417.34 186.44 417.52 186.53 417.52C190.209 417.344 193.897 417.562 197.53 418.17C197.588 418.193 197.653 418.191 197.71 418.166C197.768 418.141 197.812 418.094 197.835 418.035C197.858 417.977 197.856 417.912 197.831 417.855C197.805 417.798 197.758 417.753 197.7 417.73Z" fill="#455A64"/>
<path d="M197.7 414.68C194.33 413.05 189.84 412.42 186.44 414.22C186.31 414.29 186.44 414.47 186.53 414.47C190.209 414.293 193.897 414.511 197.53 415.12C197.588 415.142 197.653 415.141 197.71 415.116C197.768 415.09 197.812 415.043 197.835 414.985C197.858 414.927 197.856 414.862 197.831 414.804C197.805 414.747 197.758 414.702 197.7 414.68Z" fill="#455A64"/>
<path d="M197.7 411.63C194.33 410 189.84 409.37 186.44 411.17C186.31 411.24 186.44 411.42 186.53 411.42C190.209 411.243 193.897 411.461 197.53 412.07C197.588 412.093 197.653 412.091 197.71 412.066C197.768 412.04 197.812 411.993 197.835 411.935C197.858 411.877 197.856 411.812 197.831 411.755C197.805 411.697 197.758 411.653 197.7 411.63Z" fill="#455A64"/>
<path d="M197.7 408.58C194.33 406.95 189.84 406.32 186.44 408.12C186.31 408.19 186.44 408.37 186.53 408.37C190.209 408.193 193.897 408.411 197.53 409.02C197.588 409.042 197.653 409.041 197.71 409.015C197.768 408.99 197.812 408.943 197.835 408.885C197.858 408.826 197.856 408.762 197.831 408.704C197.805 408.647 197.758 408.602 197.7 408.58Z" fill="#455A64"/>
<path d="M179.92 214.81L183.99 242.81C183.99 242.81 135.76 243.48 124.43 242.69C124.43 242.69 136.27 190.34 148.43 177.12C154.53 170.5 161.68 171 166.24 175.62C167.39 176.79 181.15 194.98 182.6 201.93C183.89 208.06 179.92 214.81 179.92 214.81Z" fill="#3D9EED"/>
<path d="M158.06 184.78C164.9 185.78 204.98 183.41 212.06 175.09C220.66 165.02 231.06 145.25 233.69 138.91C235.41 134.7 215.51 123.91 214.39 127.91C212.64 134.17 197.16 157.82 195.96 159.91C194.76 162 176.96 168.12 166.59 173.3C157.29 177.94 153.24 184.05 158.06 184.78Z" fill="#F7A9A0"/>
<path d="M214.16 128.81C214.16 128.81 216.42 120.49 218.16 115.12C219.16 112.12 221.25 107.12 222.97 105.27C225.54 102.46 238.07 92.37 240.58 95.36C242.86 98.06 230.99 105.36 230.99 105.36C230.99 105.36 242.32 96.93 244.45 100.69C246.58 104.45 232.08 110.92 232.08 110.92C232.08 110.92 243.92 102.52 245.51 106.75C246.71 109.94 233.9 116.54 233.9 116.54C233.9 116.54 244.12 109.39 245.5 112.62C247.03 116.19 235.58 123.02 235.58 123.02C237.71 131.83 235.12 136.89 232.85 140.27C232.29 141.08 214.16 128.81 214.16 128.81Z" fill="#F7A9A0"/>
<path d="M226.87 108C228.17 107 229.47 105.9 230.87 105C232.27 104.1 233.67 103.21 235.13 102.42C237.027 101.353 239.04 100.507 241.13 99.8999C237.634 101.417 234.286 103.255 231.13 105.39C229.75 106.3 228.33 107.15 226.95 108.07C226.87 108.1 226.84 108.05 226.87 108Z" fill="#263238"/>
<path d="M230.1 113.08C231.81 111.82 233.46 110.52 235.23 109.34C237 108.16 238.76 107.21 240.59 106.16C240.74 106.08 240.73 106.16 240.59 106.27C238.8 107.39 237.23 108.56 235.46 109.7C233.69 110.84 231.86 111.92 230.13 113.12C230.1 113.14 230.08 113.1 230.1 113.08Z" fill="#263238"/>
<path d="M232.09 117.91C234.671 115.925 237.449 114.209 240.38 112.79C240.52 112.72 240.5 112.85 240.38 112.94C237.59 114.59 235.38 115.86 232.18 118C232.11 118 232 118 232.09 117.91Z" fill="#263238"/>
<path d="M185.93 162.12L195.67 183.19C195.67 183.19 171.55 189.65 159.99 188.1C151.64 186.98 151.92 180.34 163.43 173.49C172.52 168.08 185.93 162.12 185.93 162.12Z" fill="#3D9EED"/>
<path d="M191.24 183.39C188.709 176.87 185.828 170.491 182.61 164.28C182.61 164.2 182.46 164.28 182.5 164.34C183.28 165.85 187.57 176.43 191.11 183.45C191.15 183.53 191.27 183.47 191.24 183.39Z" fill="#263238"/>
<path d="M175.14 187.43C171.36 187.98 167.75 189.43 164.14 190.59C164.123 190.599 164.11 190.613 164.103 190.631C164.095 190.649 164.095 190.668 164.101 190.686C164.107 190.705 164.119 190.72 164.136 190.73C164.152 190.74 164.171 190.743 164.19 190.74C165.58 190.34 167 189.98 168.42 189.61C167.77 190 167.14 190.42 166.49 190.8C166.4 190.8 166.49 190.98 166.57 190.93C167.57 190.36 168.57 189.93 169.57 189.3C171.47 188.823 173.337 188.225 175.16 187.51C175.16 187.51 175.2 187.42 175.14 187.43Z" fill="#263238"/>
<path d="M341.66 127.93C340.32 125.947 339.596 123.613 339.58 121.22C339.58 112.73 348.91 105.84 360.42 105.84C371.93 105.84 381.24 112.73 381.24 121.22C381.24 129.71 371.92 136.61 360.42 136.61C355.307 136.693 350.292 135.206 346.05 132.35L338.87 134.18L341.66 127.93Z" fill="white"/>
<path d="M341.66 127.93C340.329 126.064 339.568 123.853 339.469 121.563C339.369 119.273 339.936 117.004 341.1 115.03C342.267 113.063 343.83 111.361 345.69 110.03C347.54 108.682 349.587 107.63 351.76 106.91C353.93 106.185 356.18 105.725 358.46 105.54C360.742 105.38 363.034 105.49 365.29 105.87C369.875 106.555 374.139 108.628 377.51 111.81C379.187 113.444 380.446 115.457 381.18 117.68C381.89 119.936 381.911 122.352 381.24 124.62C380.545 126.855 379.316 128.887 377.66 130.54C376.033 132.185 374.135 133.538 372.05 134.54C367.88 136.488 363.279 137.329 358.69 136.98C354.111 136.735 349.689 135.222 345.92 132.61H346.1L338.9 134.32L338.66 134.38L338.76 134.16L341.66 127.93ZM341.66 127.93L338.98 134.23L338.84 134.06L345.99 132.13H346.09L346.18 132.2C349.923 134.655 354.267 136.038 358.74 136.2C360.961 136.304 363.186 136.146 365.37 135.73C367.549 135.356 369.665 134.683 371.66 133.73C373.645 132.77 375.451 131.478 377 129.91C378.538 128.357 379.674 126.452 380.31 124.36C380.914 122.272 380.886 120.052 380.23 117.98C379.552 115.907 378.386 114.028 376.83 112.5C373.612 109.435 369.532 107.428 365.14 106.75C360.75 105.967 356.235 106.255 351.98 107.59C347.671 108.828 343.945 111.562 341.47 115.3C340.302 117.203 339.692 119.397 339.71 121.63C339.774 123.868 340.449 126.047 341.66 127.93Z" fill="#263238"/>
<path d="M367.91 121.22C367.91 121.647 368.037 122.065 368.274 122.42C368.511 122.775 368.849 123.052 369.243 123.216C369.638 123.379 370.072 123.422 370.491 123.339C370.91 123.255 371.295 123.049 371.597 122.747C371.899 122.445 372.105 122.06 372.189 121.641C372.272 121.222 372.229 120.788 372.066 120.393C371.902 119.999 371.625 119.661 371.27 119.424C370.915 119.187 370.497 119.06 370.07 119.06C369.497 119.06 368.948 119.288 368.543 119.693C368.138 120.098 367.91 120.647 367.91 121.22Z" fill="#263238"/>
<path d="M358.25 121.22C358.248 121.65 358.374 122.07 358.611 122.428C358.848 122.787 359.186 123.066 359.583 123.232C359.979 123.398 360.416 123.442 360.837 123.36C361.259 123.277 361.646 123.071 361.951 122.768C362.255 122.465 362.463 122.078 362.548 121.657C362.632 121.236 362.59 120.799 362.426 120.402C362.262 120.005 361.984 119.665 361.627 119.426C361.27 119.188 360.85 119.06 360.42 119.06C360.136 119.059 359.854 119.114 359.59 119.222C359.327 119.33 359.088 119.488 358.886 119.689C358.685 119.89 358.525 120.128 358.415 120.391C358.306 120.654 358.25 120.936 358.25 121.22Z" fill="#263238"/>
<path d="M348.6 121.22C348.6 121.647 348.727 122.065 348.964 122.42C349.201 122.775 349.539 123.052 349.934 123.216C350.328 123.379 350.762 123.422 351.181 123.339C351.6 123.255 351.985 123.049 352.287 122.747C352.59 122.445 352.795 122.06 352.879 121.641C352.962 121.222 352.919 120.788 352.756 120.393C352.592 119.999 352.315 119.661 351.96 119.424C351.605 119.187 351.187 119.06 350.76 119.06C350.187 119.06 349.638 119.288 349.233 119.693C348.828 120.098 348.6 120.647 348.6 121.22Z" fill="#263238"/>
</svg>
